<svg version="1.1" id="logo" xmlns="http://www.w3.org/2000/svg" xmlns:xlink="http://www.w3.org/1999/xlink" viewBox="422.15 444.9 178 178">
  <style>
    svg#logo *{clip-path:url(#SVGID_2_)}.st1{fill:#fff}.st2{fill:#fffffe}.st3{fill:#fffffd}.st4{fill:#fffffc}.st5{fill:#fffefc}.st6{fill:#fffefb}.st7{fill:#fffefa}.st8{fill:#fffef9}.st9{fill:#fffef8}.st10{fill:#fffef7}.st11{fill:#fffdf6}.st12{fill:#fffdf5}.st13{fill:#fffdf4}.st14{fill:#fffdf3}.st15{fill:#fffdf2}.st16{fill:#fffdf1}.st17{fill:#fffcf0}.st18{fill:#fffcef}.st19{fill:#fffcee}.st20{fill:#fffced}.st21{fill:#fffcec}.st22{fill:#fffceb}.st23{fill:#fffbea}.st24{fill:#fffbe9}.st26{fill:#fffbe7}.st27{fill:#fffbe6}.st29{fill:#fffae4}.st31{fill:#fffae2}.st37{fill:#fff9dd}.st47{fill:#fff8d4}
  </style>
  <defs>
    <path id="SVGID_1_" d="
        M 511, 534
        m 88, 0
        a 88,88 0 1,0 -176,0
        a 88,88 0 1,0  176,0"/>
  </defs>
  <clipPath id="SVGID_2_">
    <use xlink:href="#SVGID_1_" style="overflow:visible"/>
  </clipPath>
  <g class="st0">
    <path class="st1" d="M449.2 512.38h120.3v100.49H449.2z"/>
  </g>
  <g class="st0">
    <path class="st1" d="M579.29 612.81c-3.18 3.41-6.49 6.61-9.92 9.62v-8.17H447.82V511h123.06v101.81z"/>
  </g>
  <g class="st0">
    <path class="st1" d="M578.94 612.48c-3.16 3.4-6.46 6.59-9.88 9.58v-7.81H447.82V511h123.06v101.48z"/>
  </g>
  <g class="st0">
    <path class="st1" d="M578.59 612.16a134 134 0 0 1-9.85 9.55v-7.46H447.82V511h123.06v101.16z"/>
  </g>
  <g class="st0">
    <path class="st1" d="M578.25 611.84c-3.14 3.37-6.42 6.54-9.81 9.52v-7.1H447.82V511h123.06v100.83h7.37z"/>
  </g>
  <g class="st0">
    <path class="st1" d="M577.9 611.51a132 132 0 0 1-9.78 9.48v-6.74h-120.3V511h123.06v100.51z"/>
  </g>
  <g class="st0">
    <path class="st1" d="M577.55 611.19a133 133 0 0 1-9.74 9.45v-6.38H447.82V511h123.06v100.19z"/>
  </g>
  <g class="st0">
    <path class="st1" d="M577.2 610.87c-3.11 3.34-6.35 6.47-9.71 9.41v-6.03H447.82V511h123.06v99.86h6.32z"/>
  </g>
  <g class="st0">
    <path class="st1" d="M576.86 610.54c-3.1 3.32-6.33 6.45-9.67 9.38v-5.67H447.82V511h123.06v99.54z"/>
  </g>
  <g class="st0">
    <path class="st1" d="M576.51 610.22c-3.09 3.31-6.3 6.43-9.64 9.35v-5.31H447.82V511h123.06v99.22z"/>
  </g>
  <g class="st0">
    <path class="st1" d="M576.16 609.89c-3.07 3.3-6.28 6.4-9.6 9.31v-4.95H447.82V511h123.06v98.89z"/>
  </g>
  <g class="st0">
    <path class="st1" d="M575.81 609.57c-3.06 3.29-6.26 6.38-9.57 9.28v-4.6H447.82V511h123.06v98.57z"/>
  </g>
  <g class="st0">
    <path class="st1" d="M575.47 609.25c-3.05 3.28-6.23 6.36-9.53 9.25v-4.24H447.82V511h123.06v98.25z"/>
  </g>
  <g class="st0">
    <path class="st1" d="M575.12 608.92a131 131 0 0 1-9.5 9.21v-3.88h-117.8V511h123.06v97.92z"/>
  </g>
  <g class="st0">
    <path class="st1" d="M574.77 608.6c-3.03 3.25-6.19 6.31-9.46 9.18v-3.52H447.82V511h123.06v97.6z"/>
  </g>
  <g class="st0">
    <path class="st1" d="M574.43 608.28c-3.02 3.24-6.17 6.29-9.43 9.14v-3.17H447.82V511h123.06v97.27h3.55z"/>
  </g>
  <g class="st0">
    <path class="st1" d="M574.08 607.95c-3.01 3.23-6.14 6.26-9.39 9.11v-2.81H447.82V511h123.06v96.95z"/>
  </g>
  <g class="st0">
    <path class="st1" d="M573.73 607.63c-3 3.22-6.12 6.24-9.36 9.08v-2.45H447.82V511h123.06v96.63z"/>
  </g>
  <g class="st0">
    <path class="st1" d="M573.38 607.3c-2.99 3.2-6.1 6.22-9.32 9.04v-2.09H447.82V511h123.06v96.3z"/>
  </g>
  <g class="st0">
    <path class="st1" d="M573.04 606.98c-5.95 6.38-12.4 12.01-19.24 16.88v-9.61H447.82V511h123.06v95.98z"/>
  </g>
  <g class="st0">
    <path class="st1" d="M572.69 606.66a126.7 126.7 0 0 1-19.17 16.82v-9.22h-105.7V511h123.06v95.66z"/>
  </g>
  <g class="st0">
    <path class="st1" d="M572.34 606.33a126 126 0 0 1-19.1 16.76v-8.84H447.82V511h123.06v95.33z"/>
  </g>
  <g class="st0">
    <path class="st1" d="M571.99 606.01a125 125 0 0 1-19.03 16.69v-8.45H447.82V511h123.06v95.01z"/>
  </g>
  <g class="st0">
    <path class="st2" d="M571.65 605.69a125.4 125.4 0 0 1-18.95 16.63v-8.06H447.82V511h123.06v94.68h.77z"/>
  </g>
  <g class="st0">
    <path class="st2" d="M571.3 605.36a125 125 0 0 1-18.88 16.57v-7.68h-104.6V511h123.06v94.36z"/>
  </g>
  <g class="st0">
    <path class="st2" d="M570.95 605.04a123.6 123.6 0 0 1-18.81 16.5v-7.29H447.82V511h123.06v94.04z"/>
  </g>
  <g class="st0">
    <path class="st2" d="M570.6 604.72a123 123 0 0 1-18.74 16.44v-6.9H447.82V511h123.06v84.08h7.83c-2.5 3.31-5.21 6.53-8.11 9.64"/>
  </g>
  <g class="st0">
    <path class="st2" d="M570.26 604.39a123.3 123.3 0 0 1-18.67 16.38v-6.51H447.82V511h123.06v83.79h7.46c-2.5 3.3-5.2 6.51-8.08 9.6"/>
  </g>
  <g class="st0">
    <path class="st2" d="M569.91 604.07a122.2 122.2 0 0 1-18.59 16.31v-6.13h-103.5V511h123.06v83.5h7.08c-2.49 3.29-5.18 6.48-8.05 9.57"/>
  </g>
  <g class="st0">
    <path class="st2" d="M569.56 603.74a123 123 0 0 1-18.52 16.25v-5.74H447.82V511h123.06v83.22h6.7c-2.48 3.27-5.15 6.45-8.02 9.52"/>
  </g>
  <g class="st0">
    <path class="st2" d="M569.22 603.42c-5.7 6.12-11.89 11.52-18.45 16.19v-5.35H447.82V511h123.06v82.93h6.32a122 122 0 0 1-7.98 9.49"/>
  </g>
  <g class="st0">
    <path class="st2" d="M568.87 603.1c-5.68 6.1-11.84 11.47-18.38 16.12v-4.97H447.82V511h123.06v82.64h5.94a121 121 0 0 1-7.95 9.46"/>
  </g>
  <g class="st0">
    <path class="st2" d="M568.52 602.77c-5.66 6.07-11.8 11.43-18.3 16.06v-4.58h-102.4V511h123.06v82.36h5.56c-2.45 3.24-5.09 6.38-7.92 9.41"/>
  </g>
  <g class="st0">
    <path class="st2" d="M568.17 602.45a120.7 120.7 0 0 1-18.23 16v-4.19H447.82V511h123.06v82.07h5.18c-2.44 3.23-5.07 6.36-7.89 9.38"/>
  </g>
  <g class="st0">
    <path class="st2" d="M567.83 602.13c-5.61 6.02-11.7 11.34-18.16 15.93v-3.8H447.82V511h123.06v81.78h4.81c-2.44 3.22-5.06 6.33-7.86 9.35"/>
  </g>
  <g class="st0">
    <path class="st3" d="M567.48 601.8c-5.59 6-11.66 11.29-18.09 15.87v-3.42H447.82V511h123.06v81.5h4.43c-2.42 3.2-5.04 6.3-7.83 9.3"/>
  </g>
  <g class="st0">
    <path class="st3" d="M567.13 601.48a118.4 118.4 0 0 1-18.02 15.81v-3.03H447.82V511h123.06v81.21h4.05q-3.615 4.785-7.8 9.27"/>
  </g>
  <g class="st0">
    <path class="st3" d="M566.78 601.16c-5.55 5.95-11.56 11.2-17.94 15.74v-2.64H447.82V511h123.06v80.92h3.67q-3.6 4.77-7.77 9.24"/>
  </g>
  <g class="st0">
    <path class="st3" d="M566.44 600.83a118 118 0 0 1-17.87 15.68v-2.26H447.82V511h123.06v80.64h3.29c-2.39 3.16-4.97 6.23-7.73 9.19"/>
  </g>
  <g class="st0">
    <path class="st3" d="M566.09 600.51c-5.5 5.9-11.47 11.11-17.8 15.61v-1.87H447.82V511h123.06v70.65h9.53c-4.04 6.63-8.82 12.95-14.32 18.86"/>
  </g>
  <g class="st0">
    <path class="st3" d="M565.74 600.18a116.7 116.7 0 0 1-17.73 15.55v-1.48H447.82V511h123.06v70.41H580c-4.02 6.6-8.78 12.9-14.26 18.77"/>
  </g>
  <g class="st0">
    <path class="st3" d="M565.4 599.86a116.7 116.7 0 0 1-17.65 15.49v-1.1h-99.92V511h123.06v70.16h8.72c-4.02 6.58-8.76 12.85-14.21 18.7"/>
  </g>
  <g class="st0">
    <path class="st4" d="M565.05 599.54a115.8 115.8 0 0 1-17.58 15.42v-.71h-99.64V511h123.06v69.91h8.31c-4 6.55-8.72 12.8-14.15 18.63"/>
  </g>
  <g class="st0">
    <path class="st4" d="M564.7 599.21a115 115 0 0 1-17.51 15.36v-.32h-99.37V511h123.06v69.67h7.91a115 115 0 0 1-14.09 18.54"/>
  </g>
  <g class="st0">
    <path class="st4" d="M564.35 598.89a115.6 115.6 0 0 1-17.44 15.3c-3.1 2.21-6.29 4.24-9.55 6.1v-6.04h-89.55V511h123.06v69.42h7.5c-3.95 6.49-8.63 12.69-14.02 18.47"/>
  </g>
  <g class="st0">
    <path class="st5" d="M564.01 598.57a114.4 114.4 0 0 1-17.36 15.23c-3.09 2.2-6.26 4.22-9.51 6.08v-5.63h-89.31V511h123.06v69.17h7.1c-3.96 6.47-8.62 12.64-13.98 18.4"/>
  </g>
  <g class="st0">
    <path class="st5" d="M563.66 598.24a114.6 114.6 0 0 1-17.29 15.17c-3.07 2.19-6.23 4.21-9.47 6.05v-5.21h-89.08V511h123.06v68.92h6.69c-3.93 6.45-8.57 12.59-13.91 18.32"/>
  </g>
  <g class="st0">
    <path class="st5" d="M563.31 597.92c-5.32 5.71-11.1 10.75-17.22 15.11a112 112 0 0 1-9.43 6.03v-4.8h-88.84V511h123.06v68.68h6.29c-3.92 6.41-8.54 12.53-13.86 18.24"/>
  </g>
  <g class="st0">
    <path class="st6" d="M562.96 597.6c-10.6 11.38-23.01 20.06-36.36 26.04v-9.38h-78.78V511h123.06v68.43h5.88c-3.9 6.39-8.49 12.48-13.8 18.17"/>
  </g>
  <g class="st0">
    <path class="st6" d="M562.62 597.27c-10.56 11.33-22.91 19.98-36.21 25.93v-8.94h-78.59V511h123.06v68.18h5.47c-3.87 6.36-8.45 12.43-13.73 18.09"/>
  </g>
  <g class="st0">
    <path class="st6" d="M562.27 596.95c-10.51 11.28-22.81 19.89-36.05 25.82v-8.51h-78.39V511h123.06v67.94h5.07c-3.87 6.33-8.43 12.37-13.69 18.01"/>
  </g>
  <g class="st0">
    <path class="st6" d="M561.92 596.62c-10.47 11.23-22.72 19.81-35.9 25.71v-8.08h-78.2V511h123.06v67.69h4.66a110 110 0 0 1-13.62 17.93"/>
  </g>
  <g class="st0">
    <path class="st6" d="M561.58 596.3c-10.42 11.18-22.62 19.73-35.75 25.6v-7.64h-78.01V511h123.06v67.44h4.26c-3.83 6.28-8.35 12.27-13.56 17.86"/>
  </g>
  <g class="st0">
    <path class="st7" d="M561.23 595.98c-10.38 11.14-22.52 19.64-35.59 25.49v-7.21h-77.81V511h123.06v67.19h3.85c-3.82 6.26-8.32 12.22-13.51 17.79"/>
  </g>
  <g class="st0">
    <path class="st7" d="M560.88 595.65c-10.33 11.09-22.42 19.56-35.44 25.38v-6.78h-77.62V511h123.06v66.95h3.45a110 110 0 0 1-13.45 17.7"/>
  </g>
  <g class="st0">
    <path class="st7" d="M560.53 595.33c-10.29 11.04-22.33 19.47-35.29 25.27v-6.34h-77.42V511h123.06v66.7h3.04c-3.78 6.2-8.24 12.11-13.39 17.63"/>
  </g>
  <g class="st0">
    <path class="st7" d="M560.19 595.01c-10.24 10.99-22.23 19.39-35.13 25.16v-5.91h-77.23V511h123.06v66.45h2.64c-3.78 6.18-8.22 12.06-13.34 17.56"/>
  </g>
  <g class="st0">
    <path class="st8" d="M559.84 594.68c-10.2 10.94-22.13 19.3-34.98 25.05v-5.48h-77.04V511h123.06v66.21h2.23c-3.75 6.14-8.17 12-13.27 17.47"/>
  </g>
  <g class="st0">
    <path class="st8" d="M559.49 594.36c-10.15 10.9-22.04 19.22-34.83 24.94v-5.04h-76.84V511h123.06v65.96h1.83a108.4 108.4 0 0 1-13.22 17.4"/>
  </g>
  <g class="st0">
    <path class="st8" d="M559.14 594.04c-10.11 10.85-21.94 19.13-34.67 24.83v-4.61h-76.65V511h123.06v65.71h1.42c-3.72 6.09-8.1 11.9-13.16 17.33"/>
  </g>
  <g class="st0">
    <path class="st8" d="M558.8 593.71c-10.06 10.8-21.84 19.05-34.52 24.72v-4.18h-76.45V511h123.06v65.46h1.01a107 107 0 0 1-13.1 17.25"/>
  </g>
  <g class="st0">
    <path class="st9" d="M558.45 593.39c-10.02 10.75-21.75 18.96-34.37 24.61v-3.74h-76.26V511h123.06v65.22h.61c-3.68 6.04-8.03 11.79-13.04 17.17"/>
  </g>
  <g class="st0">
    <path class="st9" d="M558.1 593.06c-9.98 10.7-21.65 18.88-34.22 24.5v-3.31h-76.07V511h123.06v46.21h9.25c-4.71 12.93-12.04 25.15-22.02 35.85"/>
  </g>
  <g class="st0">
    <path class="st9" d="M557.76 592.74c-9.93 10.66-21.55 18.8-34.06 24.39v-2.88h-75.87V511h123.06v46.05h8.8c-4.7 12.87-12 25.03-21.93 35.69"/>
  </g>
  <g class="st0">
    <path class="st10" d="M557.41 592.42c-9.89 10.61-21.45 18.71-33.91 24.28v-2.44h-75.68V511h123.06v45.88h8.36c-4.68 12.82-11.95 24.93-21.83 35.54"/>
  </g>
  <g class="st0">
    <path class="st10" d="M557.06 592.09c-9.84 10.56-21.36 18.63-33.76 24.17v-2.01h-75.48V511h123.06v45.72h7.91c-4.65 12.76-11.89 24.81-21.73 35.37"/>
  </g>
  <g class="st0">
    <path class="st10" d="M556.71 591.77c-9.8 10.51-21.26 18.54-33.6 24.06v-1.58h-75.29V511h123.06v45.56h7.46c-4.63 12.7-11.83 24.7-21.63 35.21"/>
  </g>
  <g class="st0">
    <path class="st10" d="M556.37 591.45c-9.75 10.46-21.16 18.46-33.45 23.95v-1.14h-75.1V511h123.06v45.39h7.02c-4.61 12.65-11.78 24.59-21.53 35.06"/>
  </g>
  <g class="st0">
    <path class="st11" d="M556.02 591.12c-19.41 20.83-45.44 31.82-71.81 32.75v-9.62h-36.39V511h123.06v45.23h6.57c-4.59 12.59-11.72 24.48-21.43 34.89"/>
  </g>
  <g class="st0">
    <path class="st11" d="M555.67 590.8c-19.33 20.74-45.23 31.68-71.48 32.6v-9.15h-36.37V511h123.06v45.07h6.13c-4.57 12.52-11.68 24.36-21.34 34.73"/>
  </g>
  <g class="st0">
    <path class="st11" d="M555.32 590.48c-19.24 20.64-45.02 31.53-71.15 32.45v-8.67h-36.35V511h123.06v44.9h5.68c-4.55 12.47-11.62 24.25-21.24 34.58"/>
  </g>
  <g class="st0">
    <path class="st12" d="M554.98 590.15c-19.15 20.55-44.81 31.38-70.82 32.3v-8.2h-36.33V511h123.06v44.74h5.23c-4.53 12.41-11.57 24.14-21.14 34.41"/>
  </g>
  <g class="st0">
    <path class="st12" d="M554.63 589.83c-19.06 20.45-44.6 31.24-70.49 32.15v-7.72h-36.32V511h123.06v44.58h4.79c-4.51 12.35-11.51 24.02-21.04 34.25"/>
  </g>
  <g class="st0">
    <path class="st13" d="M554.28 589.5c-18.97 20.35-44.39 31.09-70.16 32v-7.25h-36.3V511h123.06v44.41h4.34c-4.48 12.3-11.45 23.92-20.94 34.09"/>
  </g>
  <g class="st0">
    <path class="st13" d="M553.94 589.18c-18.88 20.26-44.18 30.94-69.83 31.85v-6.78h-36.28V511h123.06v44.25h3.9c-4.48 12.24-11.42 23.8-20.85 33.93"/>
  </g>
  <g class="st0">
    <path class="st13" d="M553.59 588.86c-18.79 20.16-43.97 30.8-69.5 31.7v-6.3h-36.27V511h123.06v44.09h3.45c-4.44 12.18-11.35 23.69-20.74 33.77"/>
  </g>
  <g class="st0">
    <path class="st14" d="M553.24 588.53c-18.7 20.07-43.76 30.65-69.17 31.55-12.7.45-25.49-1.53-37.61-5.95h1.36V511h123.06v43.93h3c-4.42 12.12-11.29 23.57-20.64 33.6"/>
  </g>
  <g class="st0">
    <path class="st14" d="M552.89 588.21c-18.61 19.97-43.55 30.51-68.84 31.4a99 99 0 0 1-37.43-5.92h1.2V511h123.06v6.33h8.48c.9 25.29-7.86 50.91-26.47 70.88"/>
  </g>
  <g class="st0">
    <path class="st15" d="M552.55 587.89c-18.52 19.87-43.34 30.36-68.51 31.25-12.58.44-25.25-1.51-37.25-5.9h1.03V511h123.06v6.35h8.01c.89 25.16-7.82 50.66-26.34 70.54"/>
  </g>
  <g class="st0">
    <path class="st15" d="M552.2 587.56c-18.43 19.78-43.14 30.21-68.18 31.09a98.1 98.1 0 0 1-37.07-5.87h.87V511h123.06v6.37h7.53c.89 25.04-7.78 50.41-26.21 70.19"/>
  </g>
  <g class="st0">
    <path class="st15" d="M551.85 587.24c-18.34 19.68-42.93 30.07-67.84 30.94-12.46.44-25-1.5-36.89-5.84h.71V511h123.06v6.38h7.06c.87 24.92-7.76 50.18-26.1 69.86"/>
  </g>
  <g class="st0">
    <path class="st16" d="M551.5 586.92c-18.25 19.59-42.72 29.92-67.51 30.79-12.4.44-24.88-1.49-36.71-5.81h.54V511h123.06v6.4h6.59c.87 24.8-7.71 49.93-25.97 69.52"/>
  </g>
  <g class="st0">
    <path class="st16" d="M551.16 586.59c-18.16 19.49-42.51 29.77-67.18 30.64-12.34.43-24.76-1.48-36.53-5.78h.38V511h123.06v6.42H577c.86 24.67-7.68 49.68-25.84 69.17"/>
  </g>
  <g class="st0">
    <path class="st17" d="M550.81 586.27c-18.07 19.39-42.3 29.63-66.85 30.49a96.3 96.3 0 0 1-36.35-5.75h.22V511h123.06v6.43h5.64c.86 24.56-7.65 49.44-25.72 68.84"/>
  </g>
  <g class="st0">
    <path class="st17" d="M550.46 585.94c-17.98 19.3-42.09 29.48-66.52 30.34a95.8 95.8 0 0 1-36.17-5.72h.05V511h123.06v6.45h5.16c.87 24.43-7.59 49.2-25.58 68.49"/>
  </g>
  <g class="st0">
    <path class="st18" d="M550.12 585.62c-17.9 19.2-41.88 29.33-66.19 30.19a95 95 0 0 1-35.99-5.7 93 93 0 0 1-8.57-3.62h8.46V511h123.06v6.47h4.69c.85 24.31-7.57 48.95-25.46 68.15"/>
  </g>
  <g class="st0">
    <path class="st18" d="M549.77 585.3c-17.81 19.11-41.67 29.19-65.86 30.04-12.1.43-24.27-1.45-35.81-5.67a92 92 0 0 1-8.53-3.6h8.25V511h123.06v6.48h4.21c.86 24.2-7.52 48.71-25.32 67.82"/>
  </g>
  <g class="st0">
    <path class="st19" d="M549.42 584.97c-17.72 19.01-41.46 29.04-65.53 29.89a94.4 94.4 0 0 1-35.63-5.64 94 94 0 0 1-8.48-3.58h8.05V511h123.06v6.5h3.74c.84 24.07-7.49 48.46-25.21 67.47"/>
  </g>
  <g class="st0">
    <path class="st19" d="M549.07 584.65c-17.63 18.91-41.25 28.89-65.2 29.74a93.8 93.8 0 0 1-35.45-5.61 93 93 0 0 1-8.44-3.56h7.84V511h123.06v6.52h3.26c.85 23.95-7.44 48.21-25.07 67.13"/>
  </g>
  <g class="st0">
    <path class="st20" d="M548.73 584.33c-17.54 18.82-41.04 28.75-64.87 29.59a93.3 93.3 0 0 1-35.27-5.58 96 96 0 0 1-8.4-3.54h7.64V511h123.06v6.53h2.79c.83 23.83-7.42 47.98-24.95 66.8"/>
  </g>
  <g class="st0">
    <path class="st20" d="M548.38 584c-17.45 18.72-40.83 28.6-64.54 29.44a92.9 92.9 0 0 1-35.09-5.55 90 90 0 0 1-8.35-3.53h7.43V511h123.06v6.55h2.32c.83 23.71-7.38 47.73-24.83 66.45"/>
  </g>
  <g class="st0">
    <path class="st21" d="M548.03 583.68c-17.36 18.63-40.63 28.45-64.21 29.29a92.2 92.2 0 0 1-34.91-5.53c-2.81-1.03-5.59-2.2-8.31-3.51h7.22V511h123.06v6.57h1.84c.84 23.58-7.33 47.48-24.69 66.11"/>
  </g>
  <g class="st0">
    <path class="st21" d="M547.68 583.36c-17.27 18.53-40.42 28.31-63.88 29.13a91.9 91.9 0 0 1-34.73-5.5c-2.8-1.02-5.56-2.18-8.27-3.49h7.02V511h123.06v6.58h1.37c.83 23.47-7.3 47.24-24.57 65.78"/>
  </g>
  <g class="st0">
    <path class="st22" d="M547.34 583.03c-17.18 18.44-40.21 28.16-63.55 28.98-11.67.41-23.42-1.4-34.55-5.47a92 92 0 0 1-8.23-3.47h6.81V511h123.06v6.6h.89c.83 23.34-7.25 47-24.43 65.43"/>
  </g>
  <g class="st0">
    <path class="st22" d="M546.99 582.71c-17.09 18.34-40 28.02-63.22 28.83a90.9 90.9 0 0 1-34.37-5.44c-2.77-1.01-5.5-2.16-8.18-3.45h6.61V511h122.76v-2.06c.38 2.88.62 5.78.72 8.68.81 23.22-7.23 46.75-24.32 65.09"/>
  </g>
  <g class="st0">
    <path class="st23" d="M546.64 582.38c-17 18.24-39.79 27.87-62.89 28.68a90.4 90.4 0 0 1-34.19-5.41 90 90 0 0 1-8.14-3.44h6.4V511h122.29v-2q.57 4.305.72 8.64c.81 23.09-7.19 46.5-24.19 64.74"/>
  </g>
  <g class="st0">
    <path class="st23" d="M546.29 582.06c-16.91 18.15-39.58 27.72-62.56 28.53-11.49.4-23.05-1.38-34.01-5.38q-4.11-1.5-8.1-3.42h6.19V511h121.82v-1.94c.37 2.85.61 5.72.71 8.59.82 22.98-7.13 46.26-24.05 64.41"/>
  </g>
  <g class="st0">
    <path class="st24" d="M545.95 581.74c-16.82 18.05-39.37 27.58-62.22 28.38-11.43.4-22.93-1.37-33.83-5.36-2.73-1-5.41-2.13-8.05-3.4h5.99V511h121.35v-1.88c.37 2.84.61 5.69.71 8.55.78 22.85-7.13 46.02-23.95 64.07"/>
  </g>
  <g class="st0">
    <path class="st24" d="M545.6 581.41c-16.73 17.96-39.16 27.43-61.89 28.23-11.37.4-22.81-1.37-33.66-5.33-2.71-.99-5.39-2.12-8.01-3.38h5.78V511H568.7v-1.82c.37 2.82.61 5.66.71 8.5.8 22.74-7.08 45.78-23.81 63.73"/>
  </g>
  <path d="M545.25 581.09c-16.64 17.86-38.95 27.28-61.56 28.08-11.31.4-22.69-1.36-33.48-5.3-2.7-.98-5.36-2.11-7.97-3.36h5.58V511h120.41v-1.75c.37 2.81.6 5.63.7 8.45.8 22.61-7.03 45.53-23.68 63.39" style="fill:#fffbe8" class="st0"/>
  <g class="st0">
    <path class="st26" d="M544.91 580.77c-16.55 17.76-38.74 27.14-61.23 27.93a87.95 87.95 0 0 1-41.23-8.61h5.37V511h119.93v-1.69c.37 2.79.6 5.6.7 8.41.8 22.49-6.99 45.28-23.54 63.05"/>
  </g>
  <g class="st0">
    <path class="st26" d="M544.56 580.44c-16.47 17.67-38.53 26.99-60.9 27.78a87.9 87.9 0 0 1-33.12-5.24c-2.67-.97-5.3-2.08-7.88-3.33h5.17V511h119.46v-1.63c.36 2.78.6 5.57.7 8.36.78 22.37-6.97 45.04-23.43 62.71"/>
  </g>
  <g class="st0">
    <path class="st27" d="M544.21 580.12c-16.38 17.57-38.32 26.84-60.57 27.63a87.3 87.3 0 0 1-32.94-5.21c-2.65-.97-5.27-2.07-7.84-3.31h4.96V511h118.99v-1.57c.36 2.76.59 5.54.69 8.32.79 22.25-6.91 44.8-23.29 62.37"/>
  </g>
  <g class="st0">
    <path class="st27" d="M543.86 579.79c-16.29 17.48-38.12 26.7-60.24 27.48-11.06.39-22.2-1.33-32.76-5.18-2.64-.96-5.24-2.06-7.8-3.29h4.75V511h118.52v-1.51c.36 2.75.59 5.51.69 8.27.79 22.14-6.87 44.56-23.16 62.03"/>
  </g>
  <path d="M543.52 579.47c-16.2 17.38-37.91 26.55-59.91 27.33a86 86 0 0 1-40.34-8.43h4.55V511H564.4v-9.58a86 86 0 0 1 2.15 16.37c.78 22-6.84 44.3-23.03 61.68" style="fill:#fffae5" class="st0"/>
  <g class="st0">
    <path class="st29" d="M543.17 579.15c-16.11 17.28-37.7 26.4-59.58 27.17a85.7 85.7 0 0 1-32.4-5.13c-2.61-.95-5.18-2.04-7.71-3.25h4.34V511h116.12v-9.48a86 86 0 0 1 2.14 16.28c.77 21.89-6.8 44.06-22.91 61.35"/>
  </g>
  <g class="st0">
    <path class="st29" d="M542.82 578.82c-16.02 17.19-37.49 26.26-59.25 27.02a85.3 85.3 0 0 1-32.22-5.1c-2.6-.95-5.16-2.03-7.67-3.24h4.14V511h115.66v-9.37a85 85 0 0 1 2.13 16.19c.77 21.76-6.77 43.82-22.79 61"/>
  </g>
  <path d="M542.47 578.5c-15.93 17.09-37.28 26.11-58.92 26.87-10.82.38-21.71-1.3-32.04-5.07a85 85 0 0 1-7.63-3.22h3.93V511h115.2v-9.26a85 85 0 0 1 2.12 16.1c.77 21.64-6.73 43.57-22.66 60.66" style="fill:#fffae3" class="st0"/>
  <g class="st0">
    <path class="st31" d="M542.13 578.18c-15.84 17-37.07 25.96-58.59 26.72a84.2 84.2 0 0 1-31.86-5.04c-2.57-.94-5.1-2-7.58-3.2h3.73V511h114.73v-9.15a85 85 0 0 1 2.11 16.01c.75 21.51-6.7 43.32-22.54 60.32"/>
  </g>
  <g class="st0">
    <path class="st31" d="M541.78 577.85c-15.75 16.9-36.86 25.82-58.26 26.57-10.7.38-21.47-1.29-31.68-5.01-2.55-.93-5.07-1.99-7.54-3.18h3.52V511h114.27v-9.05c1.21 5.23 1.9 10.57 2.09 15.91.76 21.41-6.65 43.09-22.4 59.99"/>
  </g>
  <path d="M541.43 577.53c-15.66 16.81-36.65 25.67-57.93 26.42a83.34 83.34 0 0 1-39-8.15h3.31V511h113.81v-8.94c1.2 5.2 1.89 10.51 2.08 15.82.76 21.28-6.61 42.84-22.27 59.65" style="fill:#fffae1" class="st0"/>
  <path d="M541.09 577.21c-15.57 16.71-36.44 25.52-57.6 26.27a82.8 82.8 0 0 1-31.32-4.96 82 82 0 0 1-7.46-3.15h3.11V511h113.35v-8.83a83.6 83.6 0 0 1 2.07 15.73c.74 21.16-6.58 42.6-22.15 59.31" style="fill:#fffae0" class="st0"/>
  <path d="M540.74 576.88c-15.48 16.61-36.23 25.38-57.27 26.12-10.52.37-21.1-1.26-31.14-4.93-2.51-.92-4.98-1.96-7.41-3.13h2.9V511H560.7v-8.73a83 83 0 0 1 2.06 15.64c.74 21.04-6.54 42.36-22.02 58.97" style="fill:#fffadf" class="st0"/>
  <path d="M540.39 576.56c-15.39 16.52-36.02 25.23-56.94 25.97a81.9 81.9 0 0 1-30.96-4.9c-2.49-.91-4.95-1.95-7.37-3.11h2.7V511h112.42v-8.62a82.6 82.6 0 0 1 2.05 15.55c.74 20.92-6.51 42.11-21.9 58.63" style="fill:#fff9df" class="st0"/>
  <path d="M540.04 576.23c-15.3 16.42-35.81 25.09-56.61 25.82-10.4.37-20.86-1.25-30.78-4.87a80.3 80.3 0 0 1-14.39-6.94h9.55V511h111.96v-8.51a81.7 81.7 0 0 1 2.03 15.46c.75 20.79-6.45 41.86-21.76 58.28" style="fill:#fff9de" class="st0"/>
  <g class="st0">
    <path class="st37" d="M539.7 575.91c-15.21 16.33-35.61 24.94-56.27 25.67a81 81 0 0 1-30.6-4.84c-4.93-1.8-9.73-4.1-14.31-6.9h9.31V511h111.5v-8.41a81.5 81.5 0 0 1 2.02 15.37c.72 20.68-6.44 41.63-21.65 57.95"/>
  </g>
  <g class="st0">
    <path class="st37" d="M539.35 575.59c-15.12 16.23-35.4 24.79-55.94 25.52a80.7 80.7 0 0 1-30.42-4.81c-4.9-1.79-9.67-4.07-14.22-6.86h9.06V511h111.03v-8.3a80.6 80.6 0 0 1 2.01 15.28c.72 20.55-6.4 41.38-21.52 57.61"/>
  </g>
  <path d="M539 575.26c-15.04 16.13-35.19 24.65-55.61 25.37a80 80 0 0 1-30.24-4.79 79 79 0 0 1-14.14-6.82h8.81V511h110.57v-8.19c1.15 5 1.82 10.09 2 15.19.72 20.43-6.35 41.13-21.39 57.26" style="fill:#fff9dc" class="st0"/>
  <path d="M538.65 574.94c-14.95 16.04-34.98 24.5-55.28 25.21a79.4 79.4 0 0 1-30.06-4.76 79.3 79.3 0 0 1-14.06-6.78h8.57V511h110.11v-8.08a80.3 80.3 0 0 1 1.99 15.1c.71 20.3-6.32 40.88-21.27 56.92" style="fill:#fff9db" class="st0"/>
  <path d="M538.31 574.62c-14.86 15.94-34.77 24.35-54.95 25.06a78.9 78.9 0 0 1-29.88-4.73c-4.81-1.76-9.5-4-13.97-6.74h8.32V511h109.65v-7.98c1.14 4.94 1.8 9.97 1.97 15.01.7 20.19-6.29 40.64-21.14 56.59" style="fill:#fff9da" class="st0"/>
  <path d="M537.96 574.29c-14.77 15.85-34.56 24.21-54.62 24.91a78.7 78.7 0 0 1-29.7-4.7 78.4 78.4 0 0 1-13.89-6.69h8.07V511H557v-7.87c1.13 4.91 1.79 9.91 1.96 14.92.71 20.07-6.23 40.4-21 56.24" style="fill:#fff9d9" class="st0"/>
  <path d="M537.61 573.97c-14.68 15.75-34.35 24.06-54.29 24.76-9.97.35-20.01-1.2-29.52-4.67a77.5 77.5 0 0 1-13.8-6.65h7.83V511h108.72v-7.76c1.12 4.88 1.77 9.85 1.95 14.83.7 19.94-6.21 40.15-20.89 55.9" style="fill:#fff8d9" class="st0"/>
  <path d="M537.27 573.65c-14.59 15.65-34.14 23.91-53.96 24.61-9.91.35-19.89-1.19-29.34-4.64a77 77 0 0 1-13.72-6.61h7.58v-76h108.26v-7.66c1.12 4.85 1.76 9.79 1.94 14.74.69 19.82-6.18 39.9-20.76 55.56" style="fill:#fff8d8" class="st0"/>
  <path d="M536.92 573.32c-14.5 15.56-33.93 23.77-53.63 24.46a76.9 76.9 0 0 1-42.8-11.19h7.33V511h107.79v-7.55a78 78 0 0 1 1.93 14.65c.7 19.7-6.12 39.66-20.62 55.22" style="fill:#fff8d7" class="st0"/>
  <path d="M536.57 573c-14.41 15.46-33.72 23.62-53.3 24.31a76.7 76.7 0 0 1-28.98-4.59 75.7 75.7 0 0 1-13.55-6.53h7.08V511h107.33v-7.44c1.1 4.79 1.74 9.67 1.91 14.56.7 19.58-6.08 39.42-20.49 54.88" style="fill:#fff8d6" class="st0"/>
  <path d="M536.22 572.67c-14.32 15.37-33.51 23.47-52.97 24.16a76.2 76.2 0 0 1-28.8-4.56 76 76 0 0 1-13.47-6.49h6.84V511h106.87v-7.33a76 76 0 0 1 1.9 14.47c.69 19.45-6.05 39.17-20.37 54.53" style="fill:#fff8d5" class="st0"/>
  <g class="st0">
    <path class="st47" d="M535.88 572.35c-14.23 15.27-33.3 23.33-52.64 24.01-9.67.34-19.4-1.16-28.62-4.53-4.61-1.68-9.1-3.83-13.38-6.45h6.59V511h106.41v-7.23c1.09 4.73 1.72 9.55 1.89 14.38.67 19.34-6.02 38.93-20.25 54.2"/>
  </g>
  <g class="st0">
    <path class="st47" d="M535.53 572.03c-14.14 15.17-33.1 23.18-52.31 23.86-9.61.34-19.28-1.16-28.44-4.5a74.6 74.6 0 0 1-13.3-6.41h6.34V511h105.94v-7.12c1.08 4.7 1.71 9.49 1.88 14.29.68 19.21-5.97 38.68-20.11 53.86"/>
  </g>
  <path d="M535.18 571.7c-14.05 15.08-32.89 23.03-51.98 23.71-9.55.34-19.15-1.15-28.26-4.47a74.7 74.7 0 0 1-13.22-6.37h6.1V511H553.3v-7.01a75 75 0 0 1 1.87 14.2c.67 19.09-5.94 38.43-19.99 53.51" style="fill:#fff7d3" class="st0"/>
  <path d="M534.83 571.38c-13.96 14.98-32.68 22.89-51.65 23.56a74.4 74.4 0 0 1-28.08-4.44 73 73 0 0 1-13.13-6.33h5.85V511h105.02v-6.91c1.07 4.64 1.69 9.37 1.86 14.11.67 18.97-5.9 38.2-19.87 53.18" style="fill:#fff7d2" class="st0"/>
  <path d="M534.49 571.06c-13.87 14.89-32.47 22.74-51.32 23.41a73.7 73.7 0 0 1-27.9-4.42c-4.5-1.64-8.87-3.74-13.05-6.29h5.6V511h104.56v-6.8c1.06 4.61 1.68 9.31 1.84 14.02.67 18.85-5.86 37.95-19.73 52.84" style="fill:#fff7d1" class="st0"/>
  <path d="M534.14 570.73c-13.78 14.79-32.26 22.59-50.99 23.25-9.36.33-18.79-1.13-27.72-4.39a72 72 0 0 1-12.96-6.25h5.35V511h104.09v-6.69c1.06 4.58 1.67 9.25 1.83 13.93.67 18.72-5.82 37.7-19.6 52.49" style="fill:#fff7d0" class="st0"/>
  <path d="M533.79 570.41c-13.7 14.7-32.05 22.45-50.65 23.1-9.3.33-18.67-1.12-27.54-4.36a72.3 72.3 0 0 1-12.88-6.21h5.11V511h103.63v-6.59c1.05 4.55 1.66 9.19 1.82 13.84.65 18.61-5.79 37.46-19.49 52.16" style="fill:#fff7cf" class="st0"/>
  <path d="M533.45 570.09c-13.61 14.6-31.84 22.3-50.32 22.95-9.24.33-18.55-1.11-27.36-4.33-4.41-1.61-8.7-3.66-12.79-6.17h4.86V511h103.17v-6.48c1.04 4.52 1.65 9.13 1.81 13.75.63 18.48-5.77 37.22-19.37 51.82" style="fill:#fff7ce" class="st0"/>
  <path d="M533.1 569.76c-13.52 14.5-31.63 22.16-49.99 22.8-9.18.32-18.42-1.1-27.18-4.3-4.38-1.6-8.64-3.64-12.71-6.13h4.61V511h102.71v-6.37c1.03 4.49 1.63 9.07 1.8 13.66.63 18.36-5.73 36.97-19.24 51.47" style="fill:#fff6cd" class="st0"/>
  <path d="M532.75 569.44c-13.43 14.41-31.42 22.01-49.66 22.65-9.12.32-18.3-1.1-27-4.27a71 71 0 0 1-12.63-6.09h4.37V511h102.24v-6.26c1.03 4.46 1.62 9.01 1.78 13.57.64 18.23-5.67 36.72-19.1 51.13" style="fill:#fff6cc" class="st0"/>
  <path d="M532.4 569.11c-13.34 14.31-31.21 21.86-49.33 22.5-9.06.32-18.18-1.09-26.82-4.25a70 70 0 0 1-12.54-6.05h4.12V511H549.6v-6.16c1.02 4.43 1.61 8.95 1.77 13.48.65 18.12-5.63 36.48-18.97 50.79" style="fill:#fff6cb" class="st0"/>
  <path d="M532.06 568.79c-13.25 14.22-31 21.72-49 22.35-9 .32-18.06-1.08-26.64-4.22a70 70 0 0 1-12.46-6.01h3.87V511h101.32v-6.05c1.01 4.4 1.6 8.89 1.76 13.39.63 18-5.61 36.24-18.85 50.45" style="fill:#fff6ca" class="st0"/>
  <path d="M531.71 568.47c-13.16 14.12-30.79 21.57-48.67 22.2-8.94.31-17.94-1.08-26.47-4.19a69 69 0 0 1-12.37-5.97h3.62V511h100.86v-5.94c1.01 4.37 1.59 8.83 1.75 13.3.63 17.87-5.56 35.99-18.72 50.11" style="fill:#fff6c9" class="st0"/>
  <path d="M531.36 568.14c-13.07 14.02-30.59 21.42-48.34 22.05-8.88.31-17.81-1.07-26.29-4.16a69.4 69.4 0 0 1-12.29-5.92h3.38V511h100.39v-5.84c1 4.34 1.58 8.77 1.74 13.21.63 17.76-5.52 35.75-18.59 49.77" style="fill:#fff6c8" class="st0"/>
  <path d="M531.01 567.82c-12.98 13.93-30.38 21.28-48.01 21.9-8.82.31-17.69-1.06-26.11-4.13-4.21-1.54-8.3-3.5-12.21-5.88h3.13V511h99.93v-5.73c.99 4.31 1.57 8.71 1.72 13.12.64 17.63-5.47 35.5-18.45 49.43" style="fill:#fff5c7" class="st0"/>
  <path d="M530.67 567.5c-12.89 13.83-30.17 21.13-47.68 21.75-8.76.31-17.57-1.05-25.93-4.1a68 68 0 0 1-12.12-5.84h2.88V511h99.47v-5.62c.99 4.28 1.56 8.65 1.71 13.03.62 17.51-5.44 35.25-18.33 49.09" style="fill:#fff5c6" class="st0"/>
  <path d="M530.32 567.17c-12.8 13.74-29.96 20.98-47.35 21.6a68.2 68.2 0 0 1-25.75-4.07 67.6 67.6 0 0 1-12.04-5.8h2.64V511h99.01v-5.52a68 68 0 0 1 1.7 12.93c.61 17.4-5.41 35.03-18.21 48.76" style="fill:#fff5c5" class="st0"/>
  <path d="M529.97 566.85c-12.71 13.64-29.75 20.84-47.02 21.45-8.63.3-17.33-1.04-25.57-4.05-4.12-1.5-8.13-3.42-11.95-5.76h2.39V511h98.54v-5.41c.97 4.22 1.54 8.53 1.69 12.84.61 17.28-5.37 34.78-18.08 48.42" style="fill:#fff5c4" class="st0"/>
  <path d="M529.63 566.53c-12.62 13.54-29.54 20.69-46.69 21.29-8.57.3-17.21-1.03-25.39-4.02-4.09-1.49-8.07-3.4-11.87-5.72h2.14V511h98.08v-5.3c.97 4.19 1.53 8.47 1.68 12.75.61 17.15-5.33 34.53-17.95 48.08" style="fill:#fff5c3" class="st0"/>
  <path d="M529.28 566.2c-12.53 13.45-29.33 20.54-46.36 21.14-8.51.3-17.08-1.02-25.21-3.99a66.5 66.5 0 0 1-11.79-5.68h1.9V511h97.62v-5.19c.96 4.16 1.52 8.41 1.67 12.66.6 17.03-5.3 34.28-17.83 47.73" style="fill:#fff4c2" class="st0"/>
  <path d="M528.93 565.88c-12.44 13.35-29.12 20.4-46.03 20.99-8.45.3-16.96-1.02-25.03-3.96a65.5 65.5 0 0 1-11.7-5.64h1.65V511h97.16v-5.09c.95 4.14 1.5 8.35 1.65 12.57.6 16.91-5.26 34.05-17.7 47.4" style="fill:#fff4c1" class="st0"/>
  <path d="M528.58 565.55c-12.35 13.26-28.91 20.25-45.7 20.84a65.7 65.7 0 0 1-24.85-3.93c-4-1.46-7.9-3.33-11.62-5.6h1.4V511h96.69v-4.98c.95 4.11 1.49 8.29 1.64 12.48.61 16.79-5.2 33.8-17.56 47.05" style="fill:#fff4c0" class="st0"/>
  <path d="M528.24 565.23c-12.27 13.16-28.7 20.1-45.37 20.69-8.33.29-16.72-1-24.67-3.9-3.97-1.45-7.84-3.3-11.53-5.56h1.15V511h96.23v-4.87c.94 4.08 1.48 8.23 1.63 12.39.59 16.66-5.18 33.55-17.44 46.71" style="fill:#fff4bf" class="st0"/>
  <path d="M527.89 564.91c-12.18 13.06-28.49 19.96-45.04 20.54-8.27.29-16.6-.99-24.49-3.88a64 64 0 0 1-11.45-5.52h.91V511h95.77v-4.77c.93 4.05 1.47 8.17 1.62 12.3.58 16.55-5.15 33.31-17.32 46.38" style="fill:#fff4be" class="st0"/>
  <path d="M527.54 564.58c-12.09 12.97-28.29 19.81-44.7 20.39-8.21.29-16.47-.99-24.31-3.85a64 64 0 0 1-11.37-5.48h.66V511h95.31v-4.66c.93 4.02 1.46 8.11 1.61 12.21.57 16.42-5.11 33.06-17.2 46.03" style="fill:#fff4bd" class="st0"/>
  <path d="M527.19 564.26c-12 12.87-28.08 19.66-44.37 20.24-8.15.29-16.35-.98-24.13-3.82a63 63 0 0 1-11.28-5.44h.41V511h94.84v-4.55c.92 3.99 1.45 8.05 1.59 12.12.58 16.3-5.06 32.82-17.06 45.69" style="fill:#fff3bc" class="st0"/>
  <path d="M526.85 563.94c-11.91 12.78-27.87 19.52-44.04 20.09-8.09.28-16.23-.97-23.95-3.79a63 63 0 0 1-11.2-5.4h.17V511h94.38v-4.45c.91 3.96 1.44 7.99 1.58 12.03.57 16.18-5.04 32.58-16.94 45.36" style="fill:#fff3ba" class="st0"/>
  <path d="M526.5 563.61c-11.82 12.68-27.66 19.37-43.71 19.94-8.03.28-16.11-.97-23.77-3.76-3.83-1.4-7.55-3.18-11.11-5.36a64 64 0 0 1-5.21-3.55h5.13V511h93.92v-4.34c.9 3.93 1.43 7.93 1.57 11.94.56 16.06-5 32.33-16.82 45.01" style="fill:#fff3b9" class="st0"/>
  <path d="M526.15 563.29c-11.73 12.59-27.45 19.23-43.38 19.79a62.5 62.5 0 0 1-23.59-3.73 62 62 0 0 1-11.03-5.32 61 61 0 0 1-5.17-3.53h4.84V511h93.46v-4.23c.9 3.9 1.42 7.87 1.56 11.85.56 15.94-4.96 32.08-16.69 44.67" style="fill:#fff3b8" class="st0"/>
  <path d="M525.81 562.97c-23.28 24.98-62.4 26.36-87.38 3.08h9.4V511h92.99v-4.12c.89 3.87 1.41 7.81 1.55 11.76.55 15.81-4.93 31.84-16.56 44.33" style="fill:#fff3b7" class="st0"/>
  <path d="M525.46 562.64c-23.1 24.79-61.92 26.15-86.71 3.05h9.07V511h92.53v-4.02c.88 3.84 1.4 7.75 1.53 11.67.56 15.7-4.87 31.6-16.42 43.99" style="fill:#fff2b6" class="st0"/>
  <path d="M525.11 562.32c-22.92 24.6-61.44 25.95-86.04 3.03h8.75V511h92.07v-3.91c.88 3.81 1.39 7.69 1.52 11.58.55 15.57-4.84 31.35-16.3 43.65" style="fill:#fff2b5" class="st0"/>
  <path d="M524.76 561.99c-22.74 24.4-60.96 25.75-85.37 3.01h8.42v-54h91.61v-3.8a60.3 60.3 0 0 1 1.51 11.49c.55 15.45-4.8 31.1-16.17 43.3" style="fill:#fff2b3" class="st0"/>
  <path d="M524.42 561.67c-22.56 24.21-60.48 25.55-84.69 2.98h8.1V511h91.14v-3.7c.86 3.75 1.36 7.57 1.5 11.4.54 15.33-4.77 30.86-16.05 42.97" style="fill:#fff2b2" class="st0"/>
  <path d="M524.07 561.35c-22.39 24.02-60 25.35-84.02 2.96h7.78V511h90.68v-3.59c.86 3.72 1.35 7.51 1.49 11.31.53 15.21-4.74 30.62-15.93 42.63" style="fill:#fff2b1" class="st0"/>
  <path d="M523.72 561.02c-22.21 23.83-59.52 25.14-83.35 2.94h7.45V511h90.22v-3.48c.85 3.69 1.34 7.45 1.48 11.22.53 15.08-4.7 30.37-15.8 42.28" style="fill:#fff1b0" class="st0"/>
  <path d="M523.37 560.7c-22.03 23.64-59.05 24.94-82.68 2.91h7.13V511h89.76v-3.38a59 59 0 0 1 1.46 11.13c.53 14.97-4.65 30.13-15.67 41.95" style="fill:#fff1ae" class="st0"/>
  <path d="M523.03 560.38c-21.85 23.44-58.57 24.74-82.01 2.89h6.81V511h89.29v-3.27c.84 3.63 1.32 7.33 1.45 11.04.52 14.84-4.62 29.88-15.54 41.61" style="fill:#fff1ad" class="st0"/>
  <path d="M522.68 560.05c-21.67 23.25-58.09 24.54-81.34 2.87h6.48V511h88.83v-3.16c.83 3.6 1.31 7.27 1.44 10.95.52 14.72-4.58 29.64-15.41 41.26" style="fill:#fff1ac" class="st0"/>
  <path d="M522.33 559.73c-21.49 23.06-57.61 24.33-80.67 2.84h6.16V511h88.37v-3.05c.82 3.57 1.3 7.21 1.43 10.86.51 14.59-4.54 29.39-15.29 40.92" style="fill:#fff0aa" class="st0"/>
  <path d="M521.99 559.41c-21.31 22.87-57.13 24.13-80 2.82h5.84V511h87.91v-2.95c.82 3.54 1.29 7.15 1.42 10.77.49 14.48-4.52 29.15-15.17 40.59" style="fill:#fff0a9" class="st0"/>
  <path d="M521.64 559.08c-21.13 22.68-56.65 23.93-79.33 2.79h5.51V511h87.44v-2.84c.81 3.51 1.28 7.09 1.4 10.68.52 14.35-4.46 28.9-15.02 40.24" style="fill:#fff0a8" class="st0"/>
  <path d="M521.29 558.76c-20.96 22.49-56.17 23.73-78.66 2.77h5.19V511h86.98v-2.73c.8 3.48 1.27 7.03 1.39 10.59.51 14.23-4.42 28.66-14.9 39.9" style="fill:#fff0a7" class="st0"/>
  <path d="M520.94 558.43c-20.78 22.29-55.69 23.52-77.99 2.75h4.86V511h86.52v-2.63c.8 3.45 1.26 6.97 1.38 10.5.51 14.11-4.38 28.42-14.77 39.56" style="fill:#fff0a5" class="st0"/>
  <path d="M520.6 558.11c-20.6 22.1-55.21 23.32-77.31 2.72h4.54V511h86.06v-2.52c.79 3.42 1.25 6.91 1.37 10.41.48 13.99-4.37 28.17-14.66 39.22" style="fill:#ffefa4" class="st0"/>
  <path d="M520.25 557.79c-20.42 21.91-54.73 23.12-76.64 2.7h4.22V511h85.59v-2.41c.78 3.39 1.23 6.85 1.36 10.32.48 13.87-4.32 27.92-14.53 38.88" style="fill:#ffefa2" class="st0"/>
  <path d="M519.9 557.46c-20.24 21.72-54.25 22.92-75.97 2.68h3.89V511h85.13v-2.3c.77 3.36 1.22 6.79 1.34 10.23.49 13.74-4.27 27.67-14.39 38.53" style="fill:#ffefa1" class="st0"/>
  <path d="M519.55 557.14c-20.06 21.53-53.78 22.71-75.3 2.65h3.57V511h84.67v-2.2c.77 3.33 1.21 6.73 1.33 10.14.48 13.63-4.24 27.44-14.27 38.2" style="fill:#ffefa0" class="st0"/>
  <path d="M519.21 556.82c-19.88 21.33-53.3 22.51-74.63 2.63h3.25V511h84.21v-2.09c.76 3.3 1.2 6.67 1.32 10.05.46 13.5-4.21 27.19-14.15 37.86" style="fill:#ffee9e" class="st0"/>
  <path d="M518.86 556.49c-19.7 21.14-52.82 22.31-73.96 2.61h2.92V511h83.74v-1.98c.75 3.27 1.19 6.61 1.31 9.95.48 13.39-4.16 26.95-14.01 37.52" style="fill:#ffee9d" class="st0"/>
  <path d="M518.51 556.17c-19.53 20.95-52.34 22.11-73.29 2.58h2.6V511h83.28v-1.88c.75 3.24 1.18 6.55 1.3 9.86.47 13.27-4.13 26.71-13.89 37.19" style="fill:#ffee9b" class="st0"/>
  <path d="M518.16 555.84c-19.35 20.76-51.86 21.9-72.62 2.56h2.28V511h82.82v-1.77a52 52 0 0 1 1.29 9.77c.46 13.15-4.09 26.47-13.77 36.84" style="fill:#ffee9a" class="st0"/>
  <path d="M517.82 555.52c-19.17 20.57-51.38 21.7-71.95 2.53h1.95V511h82.35v-1.66c.73 3.18 1.16 6.43 1.27 9.68.47 13.02-4.04 26.22-13.62 36.5" style="fill:#ffed99" class="st0"/>
  <path d="M517.47 555.2c-18.99 20.38-50.9 21.5-71.28 2.51h1.63V511h81.89v-1.56a50 50 0 0 1 1.26 9.59c.46 12.91-4.01 25.98-13.5 36.17" style="fill:#ffed97" class="st0"/>
  <path d="M517.12 554.87c-18.81 20.18-50.42 21.3-70.61 2.49h1.3V511h81.43v-1.45c.72 3.13 1.14 6.31 1.25 9.5.46 12.78-3.96 25.73-13.37 35.82" style="fill:#ffed96" class="st0"/>
  <path d="M516.78 554.55c-18.63 19.99-49.94 21.1-69.93 2.46h.98V511h80.97v-1.34c.71 3.1 1.13 6.25 1.24 9.41.43 12.66-3.95 25.48-13.26 35.48" style="fill:#ffed94" class="st0"/>
  <path d="M516.43 554.23c-18.45 19.8-49.46 20.89-69.26 2.44h.66V511h80.5v-1.23a49 49 0 0 1 1.23 9.32c.43 12.53-3.91 25.24-13.13 35.14" style="fill:#ffec93" class="st0"/>
  <path d="M516.08 553.9c-18.27 19.61-48.98 20.69-68.59 2.42h.33V511h80.04v-1.13c.7 3.04 1.1 6.13 1.21 9.23.45 12.42-3.85 25-12.99 34.8" style="fill:#ffec91" class="st0"/>
  <path d="M515.73 553.58c-18.1 19.42-48.5 20.49-67.92 2.39h.01V511h79.58v-1.02c.69 3.01 1.09 6.07 1.2 9.14.44 12.29-3.82 24.75-12.87 34.46" style="fill:#ffec90" class="st0"/>
  <path d="M515.39 553.26c-17.92 19.22-48.03 20.29-67.25 2.37-2.4-2.24-4.52-4.67-6.36-7.25h6.04V511h76.2v-9.63c2.52 5.64 3.9 11.69 4.11 17.77.43 12.17-3.79 24.5-12.74 34.12" style="fill:#ffec8e" class="st0"/>
  <path d="M515.04 552.93c-17.74 19.03-47.55 20.08-66.58 2.35a47 47 0 0 1-6.29-7.17h5.66V511h75.76v-9.44a47.1 47.1 0 0 1 4.07 17.59c.42 12.06-3.75 24.27-12.62 33.78" style="fill:#ffeb8c" class="st0"/>
  <path d="M514.69 552.61c-17.56 18.84-47.07 19.88-65.91 2.32a46.7 46.7 0 0 1-6.23-7.1h5.27V511h75.33v-9.25a46.7 46.7 0 0 1 4.03 17.42c.42 11.93-3.71 24.02-12.49 33.44" style="fill:#ffeb8b" class="st0"/>
  <path d="M514.34 552.28c-17.38 18.65-46.59 19.68-65.24 2.3a46.2 46.2 0 0 1-10.67-14.9h9.39V511h74.9v-9.05a46.2 46.2 0 0 1 3.99 17.24c.41 11.81-3.68 23.77-12.37 33.09" style="fill:#ffeb89" class="st0"/>
  <path d="M514 551.96c-17.2 18.46-46.11 19.48-64.57 2.27-4.61-4.3-8.14-9.33-10.56-14.75h8.95V511h74.46v-8.86a45.9 45.9 0 0 1 3.95 17.06c.41 11.69-3.63 23.53-12.23 32.76" style="fill:#ffea88" class="st0"/>
  <path d="M513.65 551.64c-17.02 18.27-45.63 19.27-63.9 2.25a45.1 45.1 0 0 1-10.45-14.6h8.52V511h74.03v-8.66c2.4 5.36 3.7 11.1 3.91 16.89.41 11.56-3.6 23.27-12.11 32.41" style="fill:#ffea86" class="st0"/>
  <path d="M513.3 551.31c-16.84 18.07-45.15 19.07-63.23 2.23a44.6 44.6 0 0 1-10.34-14.44h8.09V511h73.59v-8.47c2.37 5.3 3.66 10.99 3.87 16.71.41 11.44-3.56 23.04-11.98 32.07" style="fill:#ffea84" class="st0"/>
  <path d="M512.96 550.99c-16.67 17.88-44.67 18.87-62.55 2.2-4.47-4.17-7.89-9.04-10.23-14.29h7.65V511h73.16v-8.28a44.3 44.3 0 0 1 3.83 16.53c.39 11.33-3.53 22.8-11.86 31.74" style="fill:#ffea83" class="st0"/>
  <path d="M512.61 550.67c-16.49 17.69-44.19 18.67-61.88 2.18-4.42-4.12-7.8-8.94-10.12-14.14h7.22V511h72.73v-8.08a43.7 43.7 0 0 1 3.78 16.35c.39 11.2-3.49 22.55-11.73 31.4" style="fill:#ffe981" class="st0"/>
  <path d="M512.26 550.34c-16.31 17.5-43.71 18.46-61.21 2.16-4.37-4.08-7.72-8.85-10.01-13.98h6.79V511h72.29v-7.89a43.2 43.2 0 0 1 3.74 16.18c.39 11.08-3.45 22.3-11.6 31.05" style="fill:#ffe980" class="st0"/>
  <path d="M511.91 550.02c-16.13 17.31-43.23 18.26-60.54 2.13a42.6 42.6 0 0 1-9.9-13.83h6.35V511h71.86v-7.69a42.9 42.9 0 0 1 3.7 16c.39 10.95-3.4 22.06-11.47 30.71" style="fill:#ffe97e" class="st0"/>
  <path d="M511.57 549.7c-15.95 17.12-42.76 18.06-59.87 2.11-8.56-7.98-13.07-18.66-13.45-29.5h9.58V511h71.43v-7.5c2.25 5.02 3.47 10.4 3.66 15.82.37 10.84-3.38 21.82-11.35 30.38" style="fill:#ffe87c" class="st0"/>
  <path d="M511.22 549.37c-15.77 16.92-42.28 17.86-59.2 2.09-8.46-7.89-12.93-18.45-13.3-29.17h9.11V511h70.99v-7.31a42 42 0 0 1 3.62 15.64c.37 10.72-3.34 21.58-11.22 30.04" style="fill:#ffe87a" class="st0"/>
  <path d="M510.87 549.05c-15.59 16.73-41.8 17.65-58.53 2.06-8.37-7.8-12.78-18.25-13.15-28.84h8.63V511h70.56v-7.11c2.2 4.91 3.39 10.17 3.58 15.47.38 10.59-3.29 21.32-11.09 29.69" style="fill:#ffe879" class="st0"/>
  <path d="M510.52 548.72c-15.41 16.54-41.32 17.45-57.86 2.04-8.27-7.71-12.63-18.04-13-28.51h8.16V511h70.13v-6.92a41.1 41.1 0 0 1 3.54 15.29c.37 10.47-3.26 21.08-10.97 29.35" style="fill:#ffe877" class="st0"/>
  <path d="M510.18 548.4c-15.24 16.35-40.84 17.25-57.19 2.01a40.34 40.34 0 0 1-12.85-28.18h7.68V511h69.69v-6.72c2.15 4.8 3.31 9.94 3.5 15.11.37 10.35-3.22 20.84-10.83 29.01" style="fill:#ffe775" class="st0"/>
  <path d="M509.83 548.08c-15.06 16.16-40.36 17.05-56.52 1.99-8.08-7.53-12.34-17.62-12.7-27.85h7.21V511h69.26v-6.53c2.12 4.74 3.28 9.82 3.46 14.93.36 10.23-3.18 20.6-10.71 28.68" style="fill:#ffe774" class="st0"/>
  <path d="M509.48 547.75c-14.88 15.96-39.88 16.85-55.84 1.97-7.98-7.44-12.19-17.41-12.55-27.51h6.73V511h68.83v-6.34c2.1 4.69 3.24 9.7 3.41 14.76.36 10.11-3.14 20.35-10.58 28.33" style="fill:#ffe772" class="st0"/>
  <path d="M509.14 547.43c-14.7 15.77-39.4 16.64-55.17 1.94-7.89-7.35-12.05-17.2-12.4-27.18h6.26V511h68.39v-6.14c2.07 4.63 3.2 9.59 3.37 14.58.35 9.99-3.1 20.1-10.45 27.99" style="fill:#ffe670" class="st0"/>
  <path d="M508.79 547.11c-14.52 15.58-38.92 16.44-54.5 1.92-7.79-7.26-11.9-16.99-12.25-26.85h5.79V511h67.96v-5.95a38.6 38.6 0 0 1 3.33 14.4c.34 9.87-3.07 19.87-10.33 27.66" style="fill:#ffe66e" class="st0"/>
  <path d="M508.44 546.78c-14.34 15.39-38.44 16.24-53.83 1.9-7.69-7.17-11.75-16.78-12.1-26.52h5.31V511h67.53v-5.75c2.02 4.52 3.12 9.35 3.29 14.23.34 9.74-3.03 19.61-10.2 27.3" style="fill:#ffe66c" class="st0"/>
  <path d="M508.09 546.46c-14.16 15.2-37.96 16.04-53.16 1.87-7.6-7.08-11.61-16.57-11.95-26.19h4.84V511h67.09v-5.56c1.99 4.46 3.08 9.24 3.25 14.05.35 9.62-2.98 19.37-10.07 26.97" style="fill:#ffe56b" class="st0"/>
  <path d="M507.75 546.14c-13.98 15.01-37.48 15.83-52.49 1.85-7.5-6.99-11.46-16.36-11.8-25.86h4.36V511h66.66v-5.37a37.2 37.2 0 0 1 3.21 13.87c.34 9.51-2.95 19.13-9.94 26.64" style="fill:#ffe569" class="st0"/>
  <path d="M507.4 545.81c-13.81 14.81-37.01 15.63-51.82 1.83-7.41-6.9-11.31-16.15-11.64-25.53h3.89V511h66.23v-5.17c1.94 4.35 3 9.01 3.17 13.69.32 9.38-2.93 18.89-9.83 26.29" style="fill:#ffe567" class="st0"/>
  <path d="M507.05 545.49c-13.63 14.62-36.53 15.43-51.15 1.8-7.31-6.81-11.17-15.94-11.49-25.2h3.41V511h65.79v-4.98c1.92 4.29 2.96 8.89 3.13 13.52.33 9.26-2.87 18.64-9.69 25.95" style="fill:#ffe465" class="st0"/>
  <path d="M506.7 545.16c-13.45 14.43-36.05 15.23-50.48 1.78-7.21-6.72-11.02-15.74-11.34-24.87h2.94V511h65.36v-4.78c1.89 4.24 2.93 8.77 3.09 13.34.32 9.13-2.84 18.39-9.57 25.6" style="fill:#ffe463" class="st0"/>
  <path d="M506.36 544.84c-13.27 14.24-35.57 15.02-49.81 1.75-7.12-6.63-10.88-15.53-11.19-24.54h2.46V511h64.93v-4.59c1.87 4.18 2.89 8.66 3.05 13.16.31 9.02-2.81 18.15-9.44 25.27" style="fill:#ffe461" class="st0"/>
  <path d="M506.01 544.52c-13.09 14.05-35.09 14.82-49.14 1.73a34.67 34.67 0 0 1-11.04-24.21c-.16-4.45.53-8.92 2.08-13.16V511h64.4v-4.4c1.84 4.12 2.85 8.54 3 12.98.32 8.9-2.75 17.91-9.3 24.94" style="fill:#ffe35f" class="st0"/>
  <path d="M505.66 544.19c-12.91 13.85-34.61 14.62-48.46 1.71-6.93-6.46-10.58-15.11-10.89-23.88-.15-4.39.53-8.8 2.06-12.98V511h63.52v-4.2c1.82 4.07 2.81 8.42 2.96 12.81.31 8.77-2.73 17.66-9.19 24.58" style="fill:#ffe35d" class="st0"/>
  <path d="M505.32 543.87c-12.73 13.66-34.13 14.42-47.79 1.68A33.7 33.7 0 0 1 446.79 522c-.15-4.32.52-8.68 2.03-12.8v1.8h62.64v-4.01a33.9 33.9 0 0 1 2.92 12.63c.3 8.65-2.7 17.42-9.06 24.25" style="fill:#ffe35b" class="st0"/>
  <path d="M504.97 543.55c-12.55 13.47-33.65 14.21-47.12 1.66-6.74-6.28-10.29-14.69-10.59-23.22-.15-4.26.51-8.56 2-12.62V511h61.76v-3.81c1.77 3.95 2.73 8.19 2.88 12.45.3 8.53-2.65 17.17-8.93 23.91" style="fill:#ffe25a" class="st0"/>
  <path d="M504.62 543.22c-12.38 13.28-33.17 14.01-46.45 1.64-6.64-6.19-10.14-14.48-10.44-22.89-.15-4.2.51-8.43 1.97-12.44V511h60.88v-3.62c1.74 3.9 2.69 8.07 2.84 12.28.3 8.4-2.61 16.92-8.8 23.56" style="fill:#ffe258" class="st0"/>
  <path d="M504.27 542.9c-12.2 13.09-32.69 13.81-45.78 1.61-6.54-6.1-10-14.27-10.29-22.56-.15-4.14.5-8.31 1.94-12.27V511h60v-3.43a32.5 32.5 0 0 1 2.8 12.1c.3 8.29-2.57 16.69-8.67 23.23" style="fill:#ffe256" class="st0"/>
  <path d="M503.93 542.58c-12.02 12.9-32.21 13.61-45.11 1.59-6.45-6.01-9.85-14.06-10.14-22.23-.14-4.08.49-8.19 1.91-12.09V511h59.12v-3.23c1.69 3.78 2.61 7.84 2.76 11.92.29 8.16-2.53 16.44-8.54 22.89" style="fill:#ffe154" class="st0"/>
  <path d="M503.58 542.25c-11.84 12.7-31.74 13.4-44.44 1.57-6.35-5.92-9.7-13.85-9.99-21.9-.14-4.02.48-8.07 1.88-11.91v.99h58.24v-3.04c1.67 3.73 2.58 7.72 2.72 11.74.29 8.05-2.49 16.2-8.41 22.55" style="fill:#ffe152" class="st0"/>
  <path d="M503.23 541.93c-11.66 12.51-31.26 13.2-43.77 1.54-6.26-5.83-9.56-13.64-9.84-21.56-.14-3.96.48-7.95 1.86-11.73v.82h57.36v-2.84a31.1 31.1 0 0 1 2.68 11.57c.28 7.92-2.46 15.94-8.29 22.2" style="fill:#ffe150" class="st0"/>
  <path d="M502.88 541.6c-11.48 12.32-30.78 13-43.1 1.52a30.38 30.38 0 0 1-9.68-21.23c-.14-3.9.47-7.83 1.83-11.55v.66h56.49v-2.65c1.62 3.62 2.5 7.49 2.64 11.39.27 7.8-2.43 15.7-8.18 21.86" style="fill:#ffe04e" class="st0"/>
  <path d="M502.54 541.28c-11.3 12.13-30.3 12.8-42.43 1.49a29.94 29.94 0 0 1-9.53-20.9c-.14-3.84.46-7.7 1.8-11.37v.5h55.61v-2.46a30 30 0 0 1 2.59 11.21c.27 7.69-2.39 15.47-8.04 21.53" style="fill:#ffe04c" class="st0"/>
  <path d="M502.19 540.96c-11.12 11.94-29.82 12.6-41.76 1.47a29.42 29.42 0 0 1-9.38-20.57c-.13-3.78.45-7.58 1.77-11.19v.33h54.73v-2.26c1.57 3.5 2.42 7.26 2.55 11.03.27 7.56-2.35 15.22-7.91 21.19" style="fill:#ffe049" class="st0"/>
  <path d="M501.84 540.63c-10.95 11.74-29.34 12.39-41.08 1.45a28.98 28.98 0 0 1-9.23-20.24c-.13-3.72.45-7.46 1.74-11.01v.17h53.85v-2.07c1.54 3.45 2.38 7.14 2.51 10.86.26 7.44-2.31 14.97-7.79 20.84" style="fill:#ffdf47" class="st0"/>
  <path d="M501.5 540.31c-10.77 11.55-28.86 12.19-40.41 1.42-5.78-5.38-8.82-12.6-9.08-19.91-.13-3.66.44-7.34 1.71-10.83v.01h52.97v-1.87a28.6 28.6 0 0 1 2.47 10.68c.25 7.31-2.28 14.72-7.66 20.5" style="fill:#ffdf45" class="st0"/>
  <path d="M501.15 539.99c-10.59 11.36-28.38 11.99-39.74 1.4s-11.99-28.38-1.4-39.74V511h46.24v-1.68c1.49 3.33 2.3 6.91 2.43 10.5.25 7.2-2.24 14.49-7.53 20.17" style="fill:#ffdf43" class="st0"/>
  <path d="M500.8 539.66c-10.41 11.17-27.9 11.79-39.07 1.38s-11.79-27.9-1.38-39.07V511h45.46v-1.49c1.47 3.28 2.26 6.79 2.39 10.33.25 7.07-2.19 14.24-7.4 19.82" style="fill:#ffde41" class="st0"/>
  <path d="M500.45 539.34c-10.23 10.98-27.42 11.58-38.4 1.35s-11.58-27.42-1.35-38.4V511h44.68v-1.29a27.2 27.2 0 0 1 2.35 10.15c.24 6.95-2.16 13.99-7.28 19.48" style="fill:#ffde3f" class="st0"/>
  <path d="M500.11 539.02c-10.05 10.79-26.94 11.38-37.73 1.33s-11.38-26.94-1.33-37.73V511h43.9v-1.1c1.42 3.17 2.19 6.56 2.31 9.97a26.67 26.67 0 0 1-7.15 19.15" style="fill:#ffdd3d" class="st0"/>
  <path d="M499.76 538.69c-9.87 10.59-26.46 11.18-37.06 1.31-10.59-9.87-11.18-26.46-1.31-37.06V511h37.06v-9.37c10.6 9.88 11.18 26.47 1.31 37.06" style="fill:#ffdd3b" class="st0"/>
  <path d="M499.41 538.37c-9.69 10.4-25.99 10.98-36.39 1.28-10.4-9.69-10.98-25.99-1.28-36.39V511h36.39v-9.02c10.4 9.69 10.98 25.99 1.28 36.39" style="fill:#ffdd39" class="st0"/>
  <path d="M499.06 538.04c-9.52 10.21-25.51 10.77-35.72 1.26-10.21-9.52-10.77-25.51-1.26-35.72V511h35.72v-8.67c10.22 9.51 10.78 25.5 1.26 35.71" style="fill:#ffdc36" class="st0"/>
  <path d="M498.72 537.72c-9.34 10.02-25.03 10.57-35.05 1.23s-10.57-25.03-1.23-35.05v7.1h35.05v-8.33c10.01 9.34 10.56 25.03 1.23 35.05" style="fill:#ffdc34" class="st0"/>
  <path d="M498.37 537.4c-9.16 9.83-24.55 10.37-34.37 1.21-9.83-9.16-10.37-24.55-1.21-34.37V511h34.37v-7.98c9.83 9.16 10.37 24.55 1.21 34.38" style="fill:#ffdc32" class="st0"/>
  <path d="M498.02 537.07c-8.98 9.64-24.07 10.17-33.7 1.19s-10.17-24.07-1.19-33.7V511h33.7v-7.63c9.64 8.98 10.17 24.07 1.19 33.7" style="fill:#ffdb30" class="st0"/>
  <path d="M497.68 536.75c-8.8 9.44-23.59 9.96-33.03 1.16s-9.96-23.59-1.16-33.03V511h33.03v-7.29c9.43 8.81 9.96 23.6 1.16 33.04" style="fill:#ffdb2d" class="st0"/>
  <path d="M497.33 536.43c-8.62 9.25-23.11 9.76-32.36 1.14s-9.76-23.11-1.14-32.36v5.8h32.36v-6.94c9.25 8.62 9.76 23.1 1.14 32.36" style="fill:#ffda2b" class="st0"/>
  <path d="M496.98 536.1c-8.44 9.06-22.63 9.56-31.69 1.12s-9.56-22.63-1.12-31.69V511h31.69v-6.59c9.06 8.44 9.56 22.63 1.12 31.69" style="fill:#ffda29" class="st0"/>
  <path d="M496.63 535.78c-8.26 8.87-22.15 9.36-31.02 1.09s-9.36-22.15-1.09-31.02V511h31.02v-6.24c8.87 8.26 9.36 22.15 1.09 31.02" style="fill:#ffda27" class="st0"/>
  <path d="M496.29 535.46c-8.09 8.68-21.67 9.15-30.35 1.07-8.68-8.09-9.15-21.67-1.07-30.35V511h30.35v-5.9c8.67 8.09 9.15 21.68 1.07 30.36" style="fill:#ffd924" class="st0"/>
  <path d="M495.94 535.13c-7.91 8.48-21.19 8.95-29.68 1.05-8.48-7.91-8.95-21.19-1.05-29.68v4.5h29.68v-5.55c8.49 7.91 8.96 21.2 1.05 29.68" style="fill:#ffd922" class="st0"/>
  <path d="M495.59 534.81c-7.73 8.29-20.72 8.75-29.01 1.02s-8.75-20.72-1.02-29.01V511h29.01v-5.2c8.29 7.73 8.75 20.72 1.02 29.01" style="fill:#ffd820" class="st0"/>
  <path d="M495.24 534.48c-7.55 8.1-20.24 8.55-28.34 1s-8.55-20.24-1-28.34V511h28.34v-4.85c8.11 7.55 8.55 20.23 1 28.33" style="fill:#ffd81d" class="st0"/>
  <path d="M494.9 534.16c-7.37 7.91-19.76 8.35-27.67.97-7.91-7.37-8.35-19.76-.97-27.67V511h27.67v-4.51c7.9 7.38 8.34 19.76.97 27.67" style="fill:#ffd81b" class="st0"/>
  <path d="M494.55 533.84c-7.19 7.72-19.28 8.14-26.99.95-7.72-7.19-8.14-19.28-.95-26.99v3.2h26.99v-4.16c7.72 7.19 8.14 19.28.95 27" style="fill:#ffd719" class="st0"/>
  <path d="M494.2 533.51c-7.01 7.53-18.8 7.94-26.32.93s-7.94-18.8-.93-26.32V511h26.32v-3.81c7.53 7.01 7.95 18.8.93 26.32" style="fill:#ffd716" class="st0"/>
  <path d="M493.85 533.19c-6.83 7.33-18.32 7.74-25.65.9-7.33-6.83-7.74-18.32-.9-25.65V511h25.65v-3.46c7.33 6.83 7.74 18.32.9 25.65" style="fill:#ffd614" class="st0"/>
  <path d="M493.51 532.87c-6.66 7.14-17.84 7.54-24.98.88s-7.54-17.84-.88-24.98V511h24.98v-3.12c7.14 6.66 7.53 17.84.88 24.99" style="fill:#ffd611" class="st0"/>
  <path d="M493.16 532.54c-6.48 6.95-17.36 7.33-24.31.86-6.95-6.48-7.33-17.36-.86-24.31V511h24.31v-2.77c6.95 6.48 7.34 17.36.86 24.31" style="fill:#ffd60f" class="st0"/>
  <path d="M492.81 532.22c-6.3 6.76-16.88 7.13-23.64.83s-7.13-16.88-.83-23.64V511h23.64v-2.42c6.76 6.3 7.13 16.88.83 23.64" style="fill:#ffd50c" class="st0"/>
  <path d="M492.47 531.9c-6.12 6.57-16.4 6.93-22.97.81s-6.93-16.4-.81-22.97V511h22.97v-2.08c6.56 6.13 6.93 16.41.81 22.98" style="fill:#ffd50a" class="st0"/>
  <path d="M492.12 531.57c-5.94 6.37-15.92 6.73-22.3.79-6.37-5.94-6.73-15.92-.79-22.3v.94h22.3v-1.73c6.38 5.94 6.73 15.93.79 22.3" style="fill:#ffd408" class="st0"/>
  <path d="M491.77 531.25c-5.76 6.18-15.44 6.52-21.63.76s-6.52-15.44-.76-21.63v.62h21.63v-1.38c6.18 5.76 6.52 15.45.76 21.63" style="fill:#ffd405" class="st0"/>
  <path d="M491.42 530.92c-5.58 5.99-14.97 6.32-20.96.74s-6.32-14.97-.74-20.96v.3h20.96v-1.03c6 5.58 6.33 14.96.74 20.95" style="fill:#ffd303" class="st0"/>
  <circle cx="480.58" cy="520.82" r="14.35" style="fill:#ffd300" class="st0"/>
  <path d="M510.91 464.33c-38.28 0-69.43 31.15-69.43 69.43 0 2.96.2 6 .6 9.04 7.89 17.07 19.46 26.46 32.59 26.46h.51c19.58-.31 21.92-14.43 22.01-15.03.53-3.11-.22-5.81-2-7.26-.99-.82-2.02-1.18-3.32-1.18-4.03 0-5.68 4.3-5.86 4.79-1.08 3.11-4.11 5.12-7.38 4.83-3.26-.22-5.96-2.64-6.56-5.88-.31-1.69-2.71-16.64 5.03-26.48 3.11-3.94 7.28-6.5 12.4-7.6 2.9-4.54 9.56-11.54 23.09-11.54 3.54 0 7.44.51 11.58 1.49 25.19 6.07 32.59 28.68 40.42 52.63l.39 1.19c1.33 4.05 2.7 8.22 4.19 12.3 7.31-11.2 11.16-24.2 11.16-37.76 0-38.28-31.15-69.43-69.42-69.43m55.02 94.58-.39-1.19c-7.92-24.22-15.39-47.09-41.14-53.29-4.25-1.01-8.22-1.52-11.81-1.52-13.79 0-20.71 7.14-23.71 11.65-5.16 1.2-9.39 3.84-12.57 7.87-8.06 10.25-5.54 25.57-5.22 27.28.68 3.69 3.75 6.45 7.45 6.7 3.72.33 7.18-1.94 8.41-5.49.25-.69 1.68-4.13 4.92-4.13 1.08 0 1.88.28 2.69.96 1.5 1.21 2.11 3.58 1.64 6.33-.08.57-2.29 13.88-21.02 14.18h-.51c-12.68 0-23.91-9.14-31.62-25.74-.38-2.94-.57-5.88-.57-8.76 0-37.73 30.7-68.43 68.43-68.43s68.42 30.7 68.42 68.43c0 12.64-3.42 24.86-9.91 35.49-1.23-3.46-2.38-6.95-3.49-10.34m-55.02-94.58c-38.28 0-69.43 31.15-69.43 69.43 0 2.96.2 6 .6 9.04 7.89 17.07 19.46 26.46 32.59 26.46h.51c19.58-.31 21.92-14.43 22.01-15.03.53-3.11-.22-5.81-2-7.26-.99-.82-2.02-1.18-3.32-1.18-4.03 0-5.68 4.3-5.86 4.79-1.08 3.11-4.11 5.12-7.38 4.83-3.26-.22-5.96-2.64-6.56-5.88-.31-1.69-2.71-16.64 5.03-26.48 3.11-3.94 7.28-6.5 12.4-7.6 2.9-4.54 9.56-11.54 23.09-11.54 3.54 0 7.44.51 11.58 1.49 25.19 6.07 32.59 28.68 40.42 52.63l.39 1.19c1.33 4.05 2.7 8.22 4.19 12.3 7.31-11.2 11.16-24.2 11.16-37.76 0-38.28-31.15-69.43-69.42-69.43m55.02 94.58-.39-1.19c-7.92-24.22-15.39-47.09-41.14-53.29-4.25-1.01-8.22-1.52-11.81-1.52-13.79 0-20.71 7.14-23.71 11.65-5.16 1.2-9.39 3.84-12.57 7.87-8.06 10.25-5.54 25.57-5.22 27.28.68 3.69 3.75 6.45 7.45 6.7 3.72.33 7.18-1.94 8.41-5.49.25-.69 1.68-4.13 4.92-4.13 1.08 0 1.88.28 2.69.96 1.5 1.21 2.11 3.58 1.64 6.33-.08.57-2.29 13.88-21.02 14.18h-.51c-12.68 0-23.91-9.14-31.62-25.74-.38-2.94-.57-5.88-.57-8.76 0-37.73 30.7-68.43 68.43-68.43s68.42 30.7 68.42 68.43c0 12.64-3.42 24.86-9.91 35.49-1.23-3.46-2.38-6.95-3.49-10.34m-55.02-94.58c-38.28 0-69.43 31.15-69.43 69.43 0 2.96.2 6 .6 9.04 7.89 17.07 19.46 26.46 32.59 26.46h.51c19.58-.31 21.92-14.43 22.01-15.03.53-3.11-.22-5.81-2-7.26-.99-.82-2.02-1.18-3.32-1.18-4.03 0-5.68 4.3-5.86 4.79-1.08 3.11-4.11 5.12-7.38 4.83-3.26-.22-5.96-2.64-6.56-5.88-.31-1.69-2.71-16.64 5.03-26.48 3.11-3.94 7.28-6.5 12.4-7.6 2.9-4.54 9.56-11.54 23.09-11.54 3.54 0 7.44.51 11.58 1.49 25.19 6.07 32.59 28.68 40.42 52.63l.39 1.19c1.33 4.05 2.7 8.22 4.19 12.3 7.31-11.2 11.16-24.2 11.16-37.76 0-38.28-31.15-69.43-69.42-69.43m55.02 94.58-.39-1.19c-7.92-24.22-15.39-47.09-41.14-53.29-4.25-1.01-8.22-1.52-11.81-1.52-13.79 0-20.71 7.14-23.71 11.65-5.16 1.2-9.39 3.84-12.57 7.87-8.06 10.25-5.54 25.57-5.22 27.28.68 3.69 3.75 6.45 7.45 6.7 3.72.33 7.18-1.94 8.41-5.49.25-.69 1.68-4.13 4.92-4.13 1.08 0 1.88.28 2.69.96 1.5 1.21 2.11 3.58 1.64 6.33-.08.57-2.29 13.88-21.02 14.18h-.51c-12.68 0-23.91-9.14-31.62-25.74-.38-2.94-.57-5.88-.57-8.76 0-37.73 30.7-68.43 68.43-68.43s68.42 30.7 68.42 68.43c0 12.64-3.42 24.86-9.91 35.49-1.23-3.46-2.38-6.95-3.49-10.34"/>
  <path d="M630.05 629.38c-1-1.99-2.43-3.3-4.49-4.13l-.44-.42h-.76c-.16-.05-.28-.08-.36-.1l-.11-.02c-.18-.04-.42-.1-.69-.13-18.35-4.06-35.27-16.48-45.41-33.28 13.76-15.97 21.33-36.38 21.33-57.54 0-48.64-39.57-88.22-88.21-88.22s-88.22 39.58-88.22 88.22c0 48.65 39.58 88.22 88.22 88.22 12.63 0 20.55-.84 31.3-5.58.18-.07.37-.15.55-.23l.39-.17c7.88-3.49 15.4-8.78 18.26-10.89 1.06-.78 1.68-2.01 1.65-3.27 0-1.31-.63-2.53-1.69-3.28-.39-.27-.78-.53-1.16-.75-8.43-5.15-17.83-1.98-18.3-1.82l-.53.23-.1.05c-9.54 5.45-17.2 7.29-30.37 7.29-18.28 0-35.55-7.03-48.64-19.8-.31-.57-.54-1.31-.29-1.66.19-.25.79-.36 1.57-.29 3.8 1.08 7.76 1.58 11.81 1.53 24.76-.41 34.11-17.05 35.73-26.81 1.36-8.12-1.25-15.76-6.97-20.45-3.54-2.9-7.66-4.37-12.25-4.37-1.36 0-2.67.13-3.94.38.08-.11.16-.23.24-.34 1.2-1.49 2.89-2.37 5.19-2.7h.08c.05 0 4.68-.22 11.16-.08a3.71 3.71 0 0 0 3.57-2.87c.37-1.71-.49-3.45-2.06-4.13l-2.78-1.26c2.77-2.22 7.95-3.91 17.54-1.62 17.57 4.23 23.49 22.36 30.34 43.34 3.24 9.89 7.31 21.44 12.89 32.14 13.32 25.6 31.59 39.46 57.52 43.62l.31.03c.16.02.33.03.56.03l1-.02v-.09c1.46-.22 3.7-.87 5.09-2.18 1.11-1.06 2.64-4.34 1.47-6.58m-65.07-70.16-.39-1.19c-7.83-23.95-15.23-46.56-40.42-52.63-4.14-.98-8.04-1.49-11.58-1.49-13.53 0-20.19 7-23.09 11.54-5.12 1.1-9.29 3.66-12.4 7.6-7.74 9.84-5.34 24.79-5.03 26.48.6 3.24 3.3 5.66 6.56 5.88 3.27.29 6.3-1.72 7.38-4.83.18-.49 1.83-4.79 5.86-4.79 1.3 0 2.33.36 3.32 1.18 1.78 1.45 2.53 4.15 2 7.26-.09.6-2.43 14.72-22.01 15.03h-.51c-13.13 0-24.7-9.39-32.59-26.46-.4-3.04-.6-6.08-.6-9.04 0-38.28 31.15-69.43 69.43-69.43 38.27 0 69.42 31.15 69.42 69.43 0 13.56-3.85 26.56-11.16 37.76-1.49-4.08-2.86-8.25-4.19-12.3" style="fill:#231f20"/>
  <path d="M580.33 533.76c0 13.56-3.85 26.56-11.16 37.76-1.49-4.08-2.86-8.25-4.19-12.3l-.39-1.19c-7.83-23.95-15.23-46.56-40.42-52.63-4.14-.98-8.04-1.49-11.58-1.49-13.53 0-20.19 7-23.09 11.54-5.12 1.1-9.29 3.66-12.4 7.6-7.74 9.84-5.34 24.79-5.03 26.48.6 3.24 3.3 5.66 6.56 5.88 3.27.29 6.3-1.72 7.38-4.83.18-.49 1.83-4.79 5.86-4.79 1.3 0 2.33.36 3.32 1.18 1.78 1.45 2.53 4.15 2 7.26-.09.6-2.43 14.72-22.01 15.03h-.51c-13.13 0-24.7-9.39-32.59-26.46-.4-3.04-.6-6.08-.6-9.04 0-38.28 31.15-69.43 69.43-69.43 38.27 0 69.42 31.15 69.42 69.43" style="fill:#ffb000"/>
</svg>
