<?xml version="1.0" encoding="utf-8"?>
<!-- Generator: Adobe Illustrator 25.2.1, SVG Export Plug-In . SVG Version: 6.00 Build 0)  -->
<svg version="1.1" id="Layer_1" xmlns="http://www.w3.org/2000/svg" xmlns:xlink="http://www.w3.org/1999/xlink" x="0px" y="0px"
	 viewBox="0 0 1080 1080" style="enable-background:new 0 0 1080 1080;" xml:space="preserve">
<style type="text/css">
	.st0{clip-path:url(#SVGID_2_);}
	.st1{fill:#FFFFFF;}
	.st2{fill:#FFFFFE;}
	.st3{fill:#FFFFFD;}
	.st4{fill:#FFFFFC;}
	.st5{fill:#FFFEFC;}
	.st6{fill:#FFFEFB;}
	.st7{fill:#FFFEFA;}
	.st8{fill:#FFFEF9;}
	.st9{fill:#FFFEF8;}
	.st10{fill:#FFFEF7;}
	.st11{fill:#FFFDF6;}
	.st12{fill:#FFFDF5;}
	.st13{fill:#FFFDF4;}
	.st14{fill:#FFFDF3;}
	.st15{fill:#FFFDF2;}
	.st16{fill:#FFFDF1;}
	.st17{fill:#FFFCF0;}
	.st18{fill:#FFFCEF;}
	.st19{fill:#FFFCEE;}
	.st20{fill:#FFFCED;}
	.st21{fill:#FFFCEC;}
	.st22{fill:#FFFCEB;}
	.st23{fill:#FFFBEA;}
	.st24{fill:#FFFBE9;}
	.st25{fill:#FFFBE8;}
	.st26{fill:#FFFBE7;}
	.st27{fill:#FFFBE6;}
	.st28{fill:#FFFAE5;}
	.st29{fill:#FFFAE4;}
	.st30{fill:#FFFAE3;}
	.st31{fill:#FFFAE2;}
	.st32{fill:#FFFAE1;}
	.st33{fill:#FFFAE0;}
	.st34{fill:#FFFADF;}
	.st35{fill:#FFF9DF;}
	.st36{fill:#FFF9DE;}
	.st37{fill:#FFF9DD;}
	.st38{fill:#FFF9DC;}
	.st39{fill:#FFF9DB;}
	.st40{fill:#FFF9DA;}
	.st41{fill:#FFF9D9;}
	.st42{fill:#FFF8D9;}
	.st43{fill:#FFF8D8;}
	.st44{fill:#FFF8D7;}
	.st45{fill:#FFF8D6;}
	.st46{fill:#FFF8D5;}
	.st47{fill:#FFF8D4;}
	.st48{fill:#FFF7D3;}
	.st49{fill:#FFF7D2;}
	.st50{fill:#FFF7D1;}
	.st51{fill:#FFF7D0;}
	.st52{fill:#FFF7CF;}
	.st53{fill:#FFF7CE;}
	.st54{fill:#FFF6CD;}
	.st55{fill:#FFF6CC;}
	.st56{fill:#FFF6CB;}
	.st57{fill:#FFF6CA;}
	.st58{fill:#FFF6C9;}
	.st59{fill:#FFF6C8;}
	.st60{fill:#FFF5C7;}
	.st61{fill:#FFF5C6;}
	.st62{fill:#FFF5C5;}
	.st63{fill:#FFF5C4;}
	.st64{fill:#FFF5C3;}
	.st65{fill:#FFF4C2;}
	.st66{fill:#FFF4C1;}
	.st67{fill:#FFF4C0;}
	.st68{fill:#FFF4BF;}
	.st69{fill:#FFF4BE;}
	.st70{fill:#FFF4BD;}
	.st71{fill:#FFF3BC;}
	.st72{fill:#FFF3BA;}
	.st73{fill:#FFF3B9;}
	.st74{fill:#FFF3B8;}
	.st75{fill:#FFF3B7;}
	.st76{fill:#FFF2B6;}
	.st77{fill:#FFF2B5;}
	.st78{fill:#FFF2B3;}
	.st79{fill:#FFF2B2;}
	.st80{fill:#FFF2B1;}
	.st81{fill:#FFF1B0;}
	.st82{fill:#FFF1AE;}
	.st83{fill:#FFF1AD;}
	.st84{fill:#FFF1AC;}
	.st85{fill:#FFF0AA;}
	.st86{fill:#FFF0A9;}
	.st87{fill:#FFF0A8;}
	.st88{fill:#FFF0A7;}
	.st89{fill:#FFF0A5;}
	.st90{fill:#FFEFA4;}
	.st91{fill:#FFEFA2;}
	.st92{fill:#FFEFA1;}
	.st93{fill:#FFEFA0;}
	.st94{fill:#FFEE9E;}
	.st95{fill:#FFEE9D;}
	.st96{fill:#FFEE9B;}
	.st97{fill:#FFEE9A;}
	.st98{fill:#FFED99;}
	.st99{fill:#FFED97;}
	.st100{fill:#FFED96;}
	.st101{fill:#FFED94;}
	.st102{fill:#FFEC93;}
	.st103{fill:#FFEC91;}
	.st104{fill:#FFEC90;}
	.st105{fill:#FFEC8E;}
	.st106{fill:#FFEB8C;}
	.st107{fill:#FFEB8B;}
	.st108{fill:#FFEB89;}
	.st109{fill:#FFEA88;}
	.st110{fill:#FFEA86;}
	.st111{fill:#FFEA84;}
	.st112{fill:#FFEA83;}
	.st113{fill:#FFE981;}
	.st114{fill:#FFE980;}
	.st115{fill:#FFE97E;}
	.st116{fill:#FFE87C;}
	.st117{fill:#FFE87A;}
	.st118{fill:#FFE879;}
	.st119{fill:#FFE877;}
	.st120{fill:#FFE775;}
	.st121{fill:#FFE774;}
	.st122{fill:#FFE772;}
	.st123{fill:#FFE670;}
	.st124{fill:#FFE66E;}
	.st125{fill:#FFE66C;}
	.st126{fill:#FFE56B;}
	.st127{fill:#FFE569;}
	.st128{fill:#FFE567;}
	.st129{fill:#FFE465;}
	.st130{fill:#FFE463;}
	.st131{fill:#FFE461;}
	.st132{fill:#FFE35F;}
	.st133{fill:#FFE35D;}
	.st134{fill:#FFE35B;}
	.st135{fill:#FFE25A;}
	.st136{fill:#FFE258;}
	.st137{fill:#FFE256;}
	.st138{fill:#FFE154;}
	.st139{fill:#FFE152;}
	.st140{fill:#FFE150;}
	.st141{fill:#FFE04E;}
	.st142{fill:#FFE04C;}
	.st143{fill:#FFE049;}
	.st144{fill:#FFDF47;}
	.st145{fill:#FFDF45;}
	.st146{fill:#FFDF43;}
	.st147{fill:#FFDE41;}
	.st148{fill:#FFDE3F;}
	.st149{fill:#FFDD3D;}
	.st150{fill:#FFDD3B;}
	.st151{fill:#FFDD39;}
	.st152{fill:#FFDC36;}
	.st153{fill:#FFDC34;}
	.st154{fill:#FFDC32;}
	.st155{fill:#FFDB30;}
	.st156{fill:#FFDB2D;}
	.st157{fill:#FFDA2B;}
	.st158{fill:#FFDA29;}
	.st159{fill:#FFDA27;}
	.st160{fill:#FFD924;}
	.st161{fill:#FFD922;}
	.st162{fill:#FFD820;}
	.st163{fill:#FFD81D;}
	.st164{fill:#FFD81B;}
	.st165{fill:#FFD719;}
	.st166{fill:#FFD716;}
	.st167{fill:#FFD614;}
	.st168{fill:#FFD611;}
	.st169{fill:#FFD60F;}
	.st170{fill:#FFD50C;}
	.st171{fill:#FFD50A;}
	.st172{fill:#FFD408;}
	.st173{fill:#FFD405;}
	.st174{fill:#FFD303;}
	.st175{fill:#FFD300;}
	.st176{fill:#231F20;}
	.st177{fill:#FFB000;}
</style>
<g>
	<g>
		<defs>
			<path id="SVGID_1_" d="M564.46,594.68L564.46,594.68c-4.19,4.3-9.55,7.27-15.42,8.56l-43.82,9.63l-37.17-8.83l-18.85-29.54h29.32
				l24.08-11.89l2.62-14.66l-14.14-6.06l-10.57-2.32l1.49-13.43l26.53-13.76l24.74,5.21l20.11,24.3l14.2,37.97
				C569.5,584.99,568.29,590.76,564.46,594.68z"/>
		</defs>
		<clipPath id="SVGID_2_">
			<use xlink:href="#SVGID_1_"  style="overflow:visible;"/>
		</clipPath>
		<g class="st0">
			<rect x="449.2" y="512.38" class="st1" width="120.3" height="100.49"/>
		</g>
		<g class="st0">
			<path class="st1" d="M579.29,612.81c-3.18,3.41-6.49,6.61-9.92,9.62v-8.17H447.82V511h123.06v101.81H579.29z"/>
		</g>
		<g class="st0">
			<path class="st1" d="M578.94,612.48c-3.16,3.4-6.46,6.59-9.88,9.58v-7.81H447.82V511h123.06v101.48H578.94z"/>
		</g>
		<g class="st0">
			<path class="st1" d="M578.59,612.16c-3.15,3.38-6.44,6.57-9.85,9.55v-7.46H447.82V511h123.06v101.16H578.59z"/>
		</g>
		<g class="st0">
			<path class="st1" d="M578.25,611.84c-3.14,3.37-6.42,6.54-9.81,9.52v-7.1H447.82V511h123.06v100.83H578.25z"/>
		</g>
		<g class="st0">
			<path class="st1" d="M577.9,611.51c-3.13,3.36-6.39,6.52-9.78,9.48v-6.74h-120.3V511h123.06v100.51H577.9z"/>
		</g>
		<g class="st0">
			<path class="st1" d="M577.55,611.19c-3.12,3.35-6.37,6.5-9.74,9.45v-6.38H447.82V511h123.06v100.19H577.55z"/>
		</g>
		<g class="st0">
			<path class="st1" d="M577.2,610.87c-3.11,3.34-6.35,6.47-9.71,9.41v-6.03H447.82V511h123.06v99.86H577.2z"/>
		</g>
		<g class="st0">
			<path class="st1" d="M576.86,610.54c-3.1,3.32-6.33,6.45-9.67,9.38v-5.67H447.82V511h123.06v99.54H576.86z"/>
		</g>
		<g class="st0">
			<path class="st1" d="M576.51,610.22c-3.09,3.31-6.3,6.43-9.64,9.35v-5.31H447.82V511h123.06v99.22H576.51z"/>
		</g>
		<g class="st0">
			<path class="st1" d="M576.16,609.89c-3.07,3.3-6.28,6.4-9.6,9.31v-4.95H447.82V511h123.06v98.89H576.16z"/>
		</g>
		<g class="st0">
			<path class="st1" d="M575.81,609.57c-3.06,3.29-6.26,6.38-9.57,9.28v-4.6H447.82V511h123.06v98.57H575.81z"/>
		</g>
		<g class="st0">
			<path class="st1" d="M575.47,609.25c-3.05,3.28-6.23,6.36-9.53,9.25v-4.24H447.82V511h123.06v98.25H575.47z"/>
		</g>
		<g class="st0">
			<path class="st1" d="M575.12,608.92c-3.04,3.26-6.21,6.33-9.5,9.21v-3.88h-117.8V511h123.06v97.92H575.12z"/>
		</g>
		<g class="st0">
			<path class="st1" d="M574.77,608.6c-3.03,3.25-6.19,6.31-9.46,9.18v-3.52H447.82V511h123.06v97.6H574.77z"/>
		</g>
		<g class="st0">
			<path class="st1" d="M574.43,608.28c-3.02,3.24-6.17,6.29-9.43,9.14v-3.17H447.82V511h123.06v97.27H574.43z"/>
		</g>
		<g class="st0">
			<path class="st1" d="M574.08,607.95c-3.01,3.23-6.14,6.26-9.39,9.11v-2.81H447.82V511h123.06v96.95H574.08z"/>
		</g>
		<g class="st0">
			<path class="st1" d="M573.73,607.63c-3,3.22-6.12,6.24-9.36,9.08v-2.45H447.82V511h123.06v96.63H573.73z"/>
		</g>
		<g class="st0">
			<path class="st1" d="M573.38,607.3c-2.99,3.2-6.1,6.22-9.32,9.04v-2.09H447.82V511h123.06v96.3H573.38z"/>
		</g>
		<g class="st0">
			<path class="st1" d="M573.04,606.98c-5.95,6.38-12.4,12.01-19.24,16.88v-9.61H447.82V511h123.06v95.98H573.04z"/>
		</g>
		<g class="st0">
			<path class="st1" d="M572.69,606.66c-5.93,6.36-12.36,11.97-19.17,16.82v-9.22H447.82V511h123.06v95.66H572.69z"/>
		</g>
		<g class="st0">
			<path class="st1" d="M572.34,606.33c-5.9,6.34-12.31,11.92-19.1,16.76v-8.84H447.82V511h123.06v95.33H572.34z"/>
		</g>
		<g class="st0">
			<path class="st1" d="M571.99,606.01c-5.88,6.31-12.26,11.88-19.03,16.69v-8.45H447.82V511h123.06v95.01H571.99z"/>
		</g>
		<g class="st0">
			<path class="st2" d="M571.65,605.69c-5.86,6.29-12.22,11.83-18.95,16.63v-8.06H447.82V511h123.06v94.68H571.65z"/>
		</g>
		<g class="st0">
			<path class="st2" d="M571.3,605.36c-5.84,6.26-12.17,11.79-18.88,16.57v-7.68H447.82V511h123.06v94.36H571.3z"/>
		</g>
		<g class="st0">
			<path class="st2" d="M570.95,605.04c-5.81,6.24-12.12,11.74-18.81,16.5v-7.29H447.82V511h123.06v94.04H570.95z"/>
		</g>
		<g class="st0">
			<path class="st2" d="M570.6,604.72c-5.79,6.22-12.08,11.7-18.74,16.44v-6.9H447.82V511h123.06v84.08h7.83
				C576.21,598.39,573.5,601.61,570.6,604.72z"/>
		</g>
		<g class="st0">
			<path class="st2" d="M570.26,604.39c-5.77,6.19-12.03,11.65-18.67,16.38v-6.51H447.82V511h123.06v83.79h7.46
				C575.84,598.09,573.14,601.3,570.26,604.39z"/>
		</g>
		<g class="st0">
			<path class="st2" d="M569.91,604.07c-5.75,6.17-11.98,11.61-18.59,16.31v-6.13H447.82V511h123.06v83.5h7.08
				C575.47,597.79,572.78,600.98,569.91,604.07z"/>
		</g>
		<g class="st0">
			<path class="st2" d="M569.56,603.74c-5.73,6.14-11.94,11.56-18.52,16.25v-5.74H447.82V511h123.06v83.22h6.7
				C575.1,597.49,572.43,600.67,569.56,603.74z"/>
		</g>
		<g class="st0">
			<path class="st2" d="M569.22,603.42c-5.7,6.12-11.89,11.52-18.45,16.19v-5.35H447.82V511h123.06v82.93h6.32
				C574.73,597.19,572.07,600.36,569.22,603.42z"/>
		</g>
		<g class="st0">
			<path class="st2" d="M568.87,603.1c-5.68,6.1-11.84,11.47-18.38,16.12v-4.97H447.82V511h123.06v82.64h5.94
				C574.36,596.89,571.71,600.05,568.87,603.1z"/>
		</g>
		<g class="st0">
			<path class="st2" d="M568.52,602.77c-5.66,6.07-11.8,11.43-18.3,16.06v-4.58H447.82V511h123.06v82.36h5.56
				C573.99,596.6,571.35,599.74,568.52,602.77z"/>
		</g>
		<g class="st0">
			<path class="st2" d="M568.17,602.45c-5.64,6.05-11.75,11.38-18.23,16v-4.19H447.82V511h123.06v82.07h5.18
				C573.62,596.3,570.99,599.43,568.17,602.45z"/>
		</g>
		<g class="st0">
			<path class="st2" d="M567.83,602.13c-5.61,6.02-11.7,11.34-18.16,15.93v-3.8H447.82V511h123.06v81.78h4.81
				C573.25,596,570.63,599.11,567.83,602.13z"/>
		</g>
		<g class="st0">
			<path class="st3" d="M567.48,601.8c-5.59,6-11.66,11.29-18.09,15.87v-3.42H447.82V511h123.06v81.5h4.43
				C572.89,595.7,570.27,598.8,567.48,601.8z"/>
		</g>
		<g class="st0">
			<path class="st3" d="M567.13,601.48c-5.57,5.98-11.61,11.25-18.02,15.81v-3.03H447.82V511h123.06v81.21h4.05
				C572.52,595.4,569.92,598.49,567.13,601.48z"/>
		</g>
		<g class="st0">
			<path class="st3" d="M566.78,601.16c-5.55,5.95-11.56,11.2-17.94,15.74v-2.64H447.82V511h123.06v80.92h3.67
				C572.15,595.1,569.56,598.18,566.78,601.16z"/>
		</g>
		<g class="st0">
			<path class="st3" d="M566.44,600.83c-5.52,5.93-11.52,11.15-17.87,15.68v-2.26H447.82V511h123.06v80.64h3.29
				C571.78,594.8,569.2,597.87,566.44,600.83z"/>
		</g>
		<g class="st0">
			<path class="st3" d="M566.09,600.51c-5.5,5.9-11.47,11.11-17.8,15.61v-1.87H447.82V511h123.06v70.65h9.53
				C576.37,588.28,571.59,594.6,566.09,600.51z"/>
		</g>
		<g class="st0">
			<path class="st3" d="M565.74,600.18c-5.48,5.88-11.42,11.06-17.73,15.55v-1.48H447.82V511h123.06v70.41h9.12
				C575.98,588.01,571.22,594.31,565.74,600.18z"/>
		</g>
		<g class="st0">
			<path class="st3" d="M565.4,599.86c-5.46,5.86-11.38,11.02-17.65,15.49v-1.1h-99.92V511h123.06v70.16h8.72
				C575.59,587.74,570.85,594.01,565.4,599.86z"/>
		</g>
		<g class="st0">
			<path class="st4" d="M565.05,599.54c-5.43,5.83-11.33,10.97-17.58,15.42v-0.71h-99.64V511h123.06v69.91h8.31
				C575.2,587.46,570.48,593.71,565.05,599.54z"/>
		</g>
		<g class="st0">
			<path class="st4" d="M564.7,599.21c-5.41,5.81-11.28,10.93-17.51,15.36v-0.32h-99.37V511h123.06v69.67h7.91
				C574.81,587.19,570.11,593.41,564.7,599.21z"/>
		</g>
		<g class="st0">
			<path class="st4" d="M564.35,598.89c-5.39,5.78-11.24,10.88-17.44,15.3c-3.1,2.21-6.29,4.24-9.55,6.1v-6.04h-89.55V511h123.06
				v69.42h7.5C574.42,586.91,569.74,593.11,564.35,598.89z"/>
		</g>
		<g class="st0">
			<path class="st5" d="M564.01,598.57c-5.37,5.76-11.19,10.84-17.36,15.23c-3.09,2.2-6.26,4.22-9.51,6.08v-5.63h-89.31V511h123.06
				v69.17h7.1C574.03,586.64,569.37,592.81,564.01,598.57z"/>
		</g>
		<g class="st0">
			<path class="st5" d="M563.66,598.24c-5.35,5.74-11.15,10.79-17.29,15.17c-3.07,2.19-6.23,4.21-9.47,6.05v-5.21h-89.08V511h123.06
				v68.92h6.69C573.64,586.37,569,592.51,563.66,598.24z"/>
		</g>
		<g class="st0">
			<path class="st5" d="M563.31,597.92c-5.32,5.71-11.1,10.75-17.22,15.11c-3.06,2.18-6.21,4.19-9.43,6.03v-4.8h-88.84V511h123.06
				v68.68h6.29C573.25,586.09,568.63,592.21,563.31,597.92z"/>
		</g>
		<g class="st0">
			<path class="st6" d="M562.96,597.6c-10.6,11.38-23.01,20.06-36.36,26.04v-9.38h-78.78V511h123.06v68.43h5.88
				C572.86,585.82,568.27,591.91,562.96,597.6z"/>
		</g>
		<g class="st0">
			<path class="st6" d="M562.62,597.27c-10.56,11.33-22.91,19.98-36.21,25.93v-8.94h-78.59V511h123.06v68.18h5.47
				C572.48,585.54,567.9,591.61,562.62,597.27z"/>
		</g>
		<g class="st0">
			<path class="st6" d="M562.27,596.95c-10.51,11.28-22.81,19.89-36.05,25.82v-8.51h-78.39V511h123.06v67.94h5.07
				C572.09,585.27,567.53,591.31,562.27,596.95z"/>
		</g>
		<g class="st0">
			<path class="st6" d="M561.92,596.62c-10.47,11.23-22.72,19.81-35.9,25.71v-8.08h-78.2V511h123.06v67.69h4.66
				C571.7,585,567.16,591.01,561.92,596.62z"/>
		</g>
		<g class="st0">
			<path class="st6" d="M561.58,596.3c-10.42,11.18-22.62,19.73-35.75,25.6v-7.64h-78.01V511h123.06v67.44h4.26
				C571.31,584.72,566.79,590.71,561.58,596.3z"/>
		</g>
		<g class="st0">
			<path class="st7" d="M561.23,595.98c-10.38,11.14-22.52,19.64-35.59,25.49v-7.21h-77.81V511h123.06v67.19h3.85
				C570.92,584.45,566.42,590.41,561.23,595.98z"/>
		</g>
		<g class="st0">
			<path class="st7" d="M560.88,595.65c-10.33,11.09-22.42,19.56-35.44,25.38v-6.78h-77.62V511h123.06v66.95h3.45
				C570.53,584.17,566.05,590.11,560.88,595.65z"/>
		</g>
		<g class="st0">
			<path class="st7" d="M560.53,595.33c-10.29,11.04-22.33,19.47-35.29,25.27v-6.34h-77.42V511h123.06v66.7h3.04
				C570.14,583.9,565.68,589.81,560.53,595.33z"/>
		</g>
		<g class="st0">
			<path class="st7" d="M560.19,595.01c-10.24,10.99-22.23,19.39-35.13,25.16v-5.91h-77.23V511h123.06v66.45h2.64
				C569.75,583.63,565.31,589.51,560.19,595.01z"/>
		</g>
		<g class="st0">
			<path class="st8" d="M559.84,594.68c-10.2,10.94-22.13,19.3-34.98,25.05v-5.48h-77.04V511h123.06v66.21h2.23
				C569.36,583.35,564.94,589.21,559.84,594.68z"/>
		</g>
		<g class="st0">
			<path class="st8" d="M559.49,594.36c-10.15,10.9-22.04,19.22-34.83,24.94v-5.04h-76.84V511h123.06v65.96h1.83
				C568.97,583.08,564.57,588.91,559.49,594.36z"/>
		</g>
		<g class="st0">
			<path class="st8" d="M559.14,594.04c-10.11,10.85-21.94,19.13-34.67,24.83v-4.61h-76.65V511h123.06v65.71h1.42
				C568.58,582.8,564.2,588.61,559.14,594.04z"/>
		</g>
		<g class="st0">
			<path class="st8" d="M558.8,593.71c-10.06,10.8-21.84,19.05-34.52,24.72v-4.18h-76.45V511h123.06v65.46h1.01
				C568.2,582.53,563.83,588.31,558.8,593.71z"/>
		</g>
		<g class="st0">
			<path class="st9" d="M558.45,593.39c-10.02,10.75-21.75,18.96-34.37,24.61v-3.74h-76.26V511h123.06v65.22h0.61
				C567.81,582.26,563.46,588.01,558.45,593.39z"/>
		</g>
		<g class="st0">
			<path class="st9" d="M558.1,593.06c-9.98,10.7-21.65,18.88-34.22,24.5v-3.31h-76.07V511h123.06v46.21h9.25
				C575.41,570.14,568.08,582.36,558.1,593.06z"/>
		</g>
		<g class="st0">
			<path class="st9" d="M557.76,592.74c-9.93,10.66-21.55,18.8-34.06,24.39v-2.88h-75.87V511h123.06v46.05h8.8
				C574.99,569.92,567.69,582.08,557.76,592.74z"/>
		</g>
		<g class="st0">
			<path class="st10" d="M557.41,592.42c-9.89,10.61-21.45,18.71-33.91,24.28v-2.44h-75.68V511h123.06v45.88h8.36
				C574.56,569.7,567.29,581.81,557.41,592.42z"/>
		</g>
		<g class="st0">
			<path class="st10" d="M557.06,592.09c-9.84,10.56-21.36,18.63-33.76,24.17v-2.01h-75.48V511h123.06v45.72h7.91
				C574.14,569.48,566.9,581.53,557.06,592.09z"/>
		</g>
		<g class="st0">
			<path class="st10" d="M556.71,591.77c-9.8,10.51-21.26,18.54-33.6,24.06v-1.58h-75.29V511h123.06v45.56h7.46
				C573.71,569.26,566.51,581.26,556.71,591.77z"/>
		</g>
		<g class="st0">
			<path class="st10" d="M556.37,591.45c-9.75,10.46-21.16,18.46-33.45,23.95v-1.14h-75.1V511h123.06v45.39h7.02
				C573.29,569.04,566.12,580.98,556.37,591.45z"/>
		</g>
		<g class="st0">
			<path class="st11" d="M556.02,591.12c-19.41,20.83-45.44,31.82-71.81,32.75v-9.62h-36.39V511h123.06v45.23h6.57
				C572.86,568.82,565.73,580.71,556.02,591.12z"/>
		</g>
		<g class="st0">
			<path class="st11" d="M555.67,590.8c-19.33,20.74-45.23,31.68-71.48,32.6v-9.15h-36.37V511h123.06v45.07h6.13
				C572.44,568.59,565.33,580.43,555.67,590.8z"/>
		</g>
		<g class="st0">
			<path class="st11" d="M555.32,590.48c-19.24,20.64-45.02,31.53-71.15,32.45v-8.67h-36.35V511h123.06v44.9h5.68
				C572.01,568.37,564.94,580.15,555.32,590.48z"/>
		</g>
		<g class="st0">
			<path class="st12" d="M554.98,590.15c-19.15,20.55-44.81,31.38-70.82,32.3v-8.2h-36.33V511h123.06v44.74h5.23
				C571.59,568.15,564.55,579.88,554.98,590.15z"/>
		</g>
		<g class="st0">
			<path class="st12" d="M554.63,589.83c-19.06,20.45-44.6,31.24-70.49,32.15v-7.72h-36.32V511h123.06v44.58h4.79
				C571.16,567.93,564.16,579.6,554.63,589.83z"/>
		</g>
		<g class="st0">
			<path class="st13" d="M554.28,589.5c-18.97,20.35-44.39,31.09-70.16,32v-7.25h-36.3V511h123.06v44.41h4.34
				C570.74,567.71,563.77,579.33,554.28,589.5z"/>
		</g>
		<g class="st0">
			<path class="st13" d="M553.94,589.18c-18.88,20.26-44.18,30.94-69.83,31.85v-6.78h-36.28V511h123.06v44.25h3.9
				C570.31,567.49,563.37,579.05,553.94,589.18z"/>
		</g>
		<g class="st0">
			<path class="st13" d="M553.59,588.86c-18.79,20.16-43.97,30.8-69.5,31.7v-6.3h-36.27V511h123.06v44.09h3.45
				C569.89,567.27,562.98,578.78,553.59,588.86z"/>
		</g>
		<g class="st0">
			<path class="st14" d="M553.24,588.53c-18.7,20.07-43.76,30.65-69.17,31.55c-12.7,0.45-25.49-1.53-37.61-5.95h1.36V511h123.06
				v43.93h3C569.46,567.05,562.59,578.5,553.24,588.53z"/>
		</g>
		<g class="st0">
			<path class="st14" d="M552.89,588.21c-18.61,19.97-43.55,30.51-68.84,31.4c-12.64,0.45-25.37-1.52-37.43-5.92h1.2V511h123.06
				v6.33h8.48C580.26,542.62,571.5,568.24,552.89,588.21z"/>
		</g>
		<g class="st0">
			<path class="st15" d="M552.55,587.89c-18.52,19.87-43.34,30.36-68.51,31.25c-12.58,0.44-25.25-1.51-37.25-5.9h1.03V511h123.06
				v6.35h8.01C579.78,542.51,571.07,568.01,552.55,587.89z"/>
		</g>
		<g class="st0">
			<path class="st15" d="M552.2,587.56c-18.43,19.78-43.14,30.21-68.18,31.09c-12.52,0.44-25.12-1.51-37.07-5.87h0.87V511h123.06
				v6.37h7.53C579.3,542.41,570.63,567.78,552.2,587.56z"/>
		</g>
		<g class="st0">
			<path class="st15" d="M551.85,587.24c-18.34,19.68-42.93,30.07-67.84,30.94c-12.46,0.44-25-1.5-36.89-5.84h0.71V511h123.06v6.38
				h7.06C578.82,542.3,570.19,567.56,551.85,587.24z"/>
		</g>
		<g class="st0">
			<path class="st16" d="M551.5,586.92c-18.25,19.59-42.72,29.92-67.51,30.79c-12.4,0.44-24.88-1.49-36.71-5.81h0.54V511h123.06v6.4
				h6.59C578.34,542.2,569.76,567.33,551.5,586.92z"/>
		</g>
		<g class="st0">
			<path class="st16" d="M551.16,586.59c-18.16,19.49-42.51,29.77-67.18,30.64c-12.34,0.43-24.76-1.48-36.53-5.78h0.38V511h123.06
				v6.42H577C577.86,542.09,569.32,567.1,551.16,586.59z"/>
		</g>
		<g class="st0">
			<path class="st17" d="M550.81,586.27c-18.07,19.39-42.3,29.63-66.85,30.49c-12.28,0.43-24.64-1.48-36.35-5.75h0.22V511h123.06
				v6.43h5.64C577.39,541.99,568.88,566.87,550.81,586.27z"/>
		</g>
		<g class="st0">
			<path class="st17" d="M550.46,585.94c-17.98,19.3-42.09,29.48-66.52,30.34c-12.22,0.43-24.51-1.47-36.17-5.72h0.05V511h123.06
				v6.45h5.16C576.91,541.88,568.45,566.65,550.46,585.94z"/>
		</g>
		<g class="st0">
			<path class="st18" d="M550.12,585.62c-17.9,19.2-41.88,29.33-66.19,30.19c-12.16,0.43-24.39-1.46-35.99-5.7
				c-2.9-1.06-5.76-2.26-8.57-3.62h8.46V511h123.06v6.47h4.69C576.43,541.78,568.01,566.42,550.12,585.62z"/>
		</g>
		<g class="st0">
			<path class="st18" d="M549.77,585.3c-17.81,19.11-41.67,29.19-65.86,30.04c-12.1,0.43-24.27-1.45-35.81-5.67
				c-2.89-1.05-5.73-2.25-8.53-3.6h8.25V511h123.06v6.48h4.21C575.95,541.68,567.57,566.19,549.77,585.3z"/>
		</g>
		<g class="st0">
			<path class="st19" d="M549.42,584.97c-17.72,19.01-41.46,29.04-65.53,29.89c-12.03,0.42-24.15-1.45-35.63-5.64
				c-2.87-1.05-5.7-2.24-8.48-3.58h8.05V511h123.06v6.5h3.74C575.47,541.57,567.14,565.96,549.42,584.97z"/>
		</g>
		<g class="st0">
			<path class="st19" d="M549.07,584.65c-17.63,18.91-41.25,28.89-65.2,29.74c-11.97,0.42-24.03-1.44-35.45-5.61
				c-2.86-1.04-5.67-2.23-8.44-3.56h7.84V511h123.06v6.52h3.26C574.99,541.47,566.7,565.73,549.07,584.65z"/>
		</g>
		<g class="st0">
			<path class="st20" d="M548.73,584.33c-17.54,18.82-41.04,28.75-64.87,29.59c-11.91,0.42-23.91-1.43-35.27-5.58
				c-2.84-1.04-5.64-2.22-8.4-3.54h7.64V511h123.06v6.53h2.79C574.51,541.36,566.26,565.51,548.73,584.33z"/>
		</g>
		<g class="st0">
			<path class="st20" d="M548.38,584c-17.45,18.72-40.83,28.6-64.54,29.44c-11.85,0.42-23.78-1.43-35.09-5.55
				c-2.83-1.03-5.62-2.21-8.35-3.53h7.43V511h123.06v6.55h2.32C574.04,541.26,565.83,565.28,548.38,584z"/>
		</g>
		<g class="st0">
			<path class="st21" d="M548.03,583.68c-17.36,18.63-40.63,28.45-64.21,29.29c-11.79,0.42-23.66-1.42-34.91-5.53
				c-2.81-1.03-5.59-2.2-8.31-3.51h7.22V511h123.06v6.57h1.84C573.56,541.15,565.39,565.05,548.03,583.68z"/>
		</g>
		<g class="st0">
			<path class="st21" d="M547.68,583.36c-17.27,18.53-40.42,28.31-63.88,29.13c-11.73,0.41-23.54-1.41-34.73-5.5
				c-2.8-1.02-5.56-2.18-8.27-3.49h7.02V511h123.06v6.58h1.37C573.08,541.05,564.95,564.82,547.68,583.36z"/>
		</g>
		<g class="st0">
			<path class="st22" d="M547.34,583.03c-17.18,18.44-40.21,28.16-63.55,28.98c-11.67,0.41-23.42-1.4-34.55-5.47
				c-2.78-1.02-5.53-2.17-8.23-3.47h6.81V511h123.06v6.6h0.89C572.6,540.94,564.52,564.6,547.34,583.03z"/>
		</g>
		<g class="st0">
			<path class="st22" d="M546.99,582.71c-17.09,18.34-40,28.02-63.22,28.83c-11.61,0.41-23.3-1.4-34.37-5.44
				c-2.77-1.01-5.5-2.16-8.18-3.45h6.61V511h122.76v-2.06c0.38,2.88,0.62,5.78,0.72,8.68C572.12,540.84,564.08,564.37,546.99,582.71
				z"/>
		</g>
		<g class="st0">
			<path class="st23" d="M546.64,582.38c-17,18.24-39.79,27.87-62.89,28.68c-11.55,0.41-23.17-1.39-34.19-5.41
				c-2.75-1.01-5.47-2.15-8.14-3.44h6.4V511h122.29v-2c0.38,2.87,0.62,5.75,0.72,8.64C571.64,540.73,563.64,564.14,546.64,582.38z"
				/>
		</g>
		<g class="st0">
			<path class="st23" d="M546.29,582.06c-16.91,18.15-39.58,27.72-62.56,28.53c-11.49,0.4-23.05-1.38-34.01-5.38
				c-2.74-1-5.44-2.14-8.1-3.42h6.19V511h121.82v-1.94c0.37,2.85,0.61,5.72,0.71,8.59C571.16,540.63,563.21,563.91,546.29,582.06z"
				/>
		</g>
		<g class="st0">
			<path class="st24" d="M545.95,581.74c-16.82,18.05-39.37,27.58-62.22,28.38c-11.43,0.4-22.93-1.37-33.83-5.36
				c-2.73-1-5.41-2.13-8.05-3.4h5.99V511h121.35v-1.88c0.37,2.84,0.61,5.69,0.71,8.55C570.68,540.52,562.77,563.69,545.95,581.74z"
				/>
		</g>
		<g class="st0">
			<path class="st24" d="M545.6,581.41c-16.73,17.96-39.16,27.43-61.89,28.23c-11.37,0.4-22.81-1.37-33.66-5.33
				c-2.71-0.99-5.39-2.12-8.01-3.38h5.78V511H568.7v-1.82c0.37,2.82,0.61,5.66,0.71,8.5C570.21,540.42,562.33,563.46,545.6,581.41z"
				/>
		</g>
		<g class="st0">
			<path class="st25" d="M545.25,581.09c-16.64,17.86-38.95,27.28-61.56,28.08c-11.31,0.4-22.69-1.36-33.48-5.3
				c-2.7-0.98-5.36-2.11-7.97-3.36h5.58V511h120.41v-1.75c0.37,2.81,0.6,5.63,0.7,8.45C569.73,540.31,561.9,563.23,545.25,581.09z"
				/>
		</g>
		<g class="st0">
			<path class="st26" d="M544.91,580.77c-16.55,17.76-38.74,27.14-61.23,27.93c-11.25,0.4-22.57-1.35-33.3-5.27
				c-2.68-0.98-5.33-2.09-7.93-3.34h5.37V511h119.93v-1.69c0.37,2.79,0.6,5.6,0.7,8.41C569.25,540.21,561.46,563,544.91,580.77z"/>
		</g>
		<g class="st0">
			<path class="st26" d="M544.56,580.44c-16.47,17.67-38.53,26.99-60.9,27.78c-11.18,0.39-22.44-1.35-33.12-5.24
				c-2.67-0.97-5.3-2.08-7.88-3.33h5.17V511h119.46v-1.63c0.36,2.78,0.6,5.57,0.7,8.36C568.77,540.1,561.02,562.77,544.56,580.44z"
				/>
		</g>
		<g class="st0">
			<path class="st27" d="M544.21,580.12c-16.38,17.57-38.32,26.84-60.57,27.63c-11.12,0.39-22.32-1.34-32.94-5.21
				c-2.65-0.97-5.27-2.07-7.84-3.31h4.96V511h118.99v-1.57c0.36,2.76,0.59,5.54,0.69,8.32C568.29,540,560.59,562.55,544.21,580.12z"
				/>
		</g>
		<g class="st0">
			<path class="st27" d="M543.86,579.79c-16.29,17.48-38.12,26.7-60.24,27.48c-11.06,0.39-22.2-1.33-32.76-5.18
				c-2.64-0.96-5.24-2.06-7.8-3.29h4.75V511h118.52v-1.51c0.36,2.75,0.59,5.51,0.69,8.27C567.81,539.9,560.15,562.32,543.86,579.79z
				"/>
		</g>
		<g class="st0">
			<path class="st28" d="M543.52,579.47c-16.2,17.38-37.91,26.55-59.91,27.33c-11,0.39-22.08-1.32-32.58-5.16
				c-2.62-0.96-5.21-2.05-7.76-3.27h4.55V511h116.58v-9.58c1.24,5.38,1.96,10.87,2.15,16.37
				C567.33,539.79,559.71,562.09,543.52,579.47z"/>
		</g>
		<g class="st0">
			<path class="st29" d="M543.17,579.15c-16.11,17.28-37.7,26.4-59.58,27.17c-10.94,0.39-21.96-1.32-32.4-5.13
				c-2.61-0.95-5.18-2.04-7.71-3.25h4.34V511h116.12v-9.48c1.23,5.35,1.95,10.81,2.14,16.28
				C566.85,539.69,559.28,561.86,543.17,579.15z"/>
		</g>
		<g class="st0">
			<path class="st29" d="M542.82,578.82c-16.02,17.19-37.49,26.26-59.25,27.02c-10.88,0.38-21.83-1.31-32.22-5.1
				c-2.6-0.95-5.16-2.03-7.67-3.24h4.14V511h115.66v-9.37c1.23,5.32,1.94,10.75,2.13,16.19
				C566.38,539.58,558.84,561.64,542.82,578.82z"/>
		</g>
		<g class="st0">
			<path class="st30" d="M542.47,578.5c-15.93,17.09-37.28,26.11-58.92,26.87c-10.82,0.38-21.71-1.3-32.04-5.07
				c-2.58-0.94-5.13-2.02-7.63-3.22h3.93V511h115.2v-9.26c1.22,5.29,1.93,10.69,2.12,16.1C565.9,539.48,558.4,561.41,542.47,578.5z"
				/>
		</g>
		<g class="st0">
			<path class="st31" d="M542.13,578.18c-15.84,17-37.07,25.96-58.59,26.72c-10.76,0.38-21.59-1.29-31.86-5.04
				c-2.57-0.94-5.1-2-7.58-3.2h3.73V511h114.73v-9.15c1.21,5.26,1.92,10.63,2.11,16.01C565.42,539.37,557.97,561.18,542.13,578.18z"
				/>
		</g>
		<g class="st0">
			<path class="st31" d="M541.78,577.85c-15.75,16.9-36.86,25.82-58.26,26.57c-10.7,0.38-21.47-1.29-31.68-5.01
				c-2.55-0.93-5.07-1.99-7.54-3.18h3.52V511h114.27v-9.05c1.21,5.23,1.9,10.57,2.09,15.91
				C564.94,539.27,557.53,560.95,541.78,577.85z"/>
		</g>
		<g class="st0">
			<path class="st32" d="M541.43,577.53c-15.66,16.81-36.65,25.67-57.93,26.42c-10.64,0.37-21.35-1.28-31.5-4.99
				c-2.54-0.93-5.04-1.98-7.5-3.16h3.31V511h113.81v-8.94c1.2,5.2,1.89,10.51,2.08,15.82C564.46,539.16,557.09,560.72,541.43,577.53
				z"/>
		</g>
		<g class="st0">
			<path class="st33" d="M541.09,577.21c-15.57,16.71-36.44,25.52-57.6,26.27c-10.58,0.37-21.23-1.27-31.32-4.96
				c-2.52-0.92-5.01-1.97-7.46-3.15h3.11V511h113.35v-8.83c1.19,5.17,1.88,10.45,2.07,15.73
				C563.98,539.06,556.66,560.5,541.09,577.21z"/>
		</g>
		<g class="st0">
			<path class="st34" d="M540.74,576.88c-15.48,16.61-36.23,25.38-57.27,26.12c-10.52,0.37-21.1-1.26-31.14-4.93
				c-2.51-0.92-4.98-1.96-7.41-3.13h2.9V511h112.88v-8.73c1.19,5.15,1.87,10.39,2.06,15.64
				C563.5,538.95,556.22,560.27,540.74,576.88z"/>
		</g>
		<g class="st0">
			<path class="st35" d="M540.39,576.56c-15.39,16.52-36.02,25.23-56.94,25.97c-10.46,0.37-20.98-1.26-30.96-4.9
				c-2.49-0.91-4.95-1.95-7.37-3.11h2.7V511h112.42v-8.62c1.18,5.12,1.86,10.33,2.05,15.55
				C563.03,538.85,555.78,560.04,540.39,576.56z"/>
		</g>
		<g class="st0">
			<path class="st36" d="M540.04,576.23c-15.3,16.42-35.81,25.09-56.61,25.82c-10.4,0.37-20.86-1.25-30.78-4.87
				c-4.96-1.81-9.78-4.12-14.39-6.94h9.55V511h111.96v-8.51c1.17,5.09,1.85,10.27,2.03,15.46
				C562.55,538.74,555.35,559.81,540.04,576.23z"/>
		</g>
		<g class="st0">
			<path class="st37" d="M539.7,575.91c-15.21,16.33-35.61,24.94-56.27,25.67c-10.33,0.36-20.74-1.24-30.6-4.84
				c-4.93-1.8-9.73-4.1-14.31-6.9h9.31V511h111.5v-8.41c1.16,5.06,1.84,10.21,2.02,15.37C562.07,538.64,554.91,559.59,539.7,575.91z
				"/>
		</g>
		<g class="st0">
			<path class="st37" d="M539.35,575.59c-15.12,16.23-35.4,24.79-55.94,25.52c-10.27,0.36-20.62-1.24-30.42-4.81
				c-4.9-1.79-9.67-4.07-14.22-6.86h9.06V511h111.03v-8.3c1.16,5.03,1.83,10.15,2.01,15.28
				C561.59,538.53,554.47,559.36,539.35,575.59z"/>
		</g>
		<g class="st0">
			<path class="st38" d="M539,575.26c-15.04,16.13-35.19,24.65-55.61,25.37c-10.21,0.36-20.49-1.23-30.24-4.79
				c-4.87-1.78-9.61-4.05-14.14-6.82h8.81V511h110.57v-8.19c1.15,5,1.82,10.09,2,15.19C561.11,538.43,554.04,559.13,539,575.26z"/>
		</g>
		<g class="st0">
			<path class="st39" d="M538.65,574.94c-14.95,16.04-34.98,24.5-55.28,25.21c-10.15,0.36-20.37-1.22-30.06-4.76
				c-4.84-1.77-9.55-4.03-14.06-6.78h8.57V511h110.11v-8.08c1.14,4.97,1.81,10.03,1.99,15.1
				C560.63,538.32,553.6,558.9,538.65,574.94z"/>
		</g>
		<g class="st0">
			<path class="st40" d="M538.31,574.62c-14.86,15.94-34.77,24.35-54.95,25.06c-10.09,0.36-20.25-1.21-29.88-4.73
				c-4.81-1.76-9.5-4-13.97-6.74h8.32V511h109.65v-7.98c1.14,4.94,1.8,9.97,1.97,15.01C560.15,538.22,553.16,558.67,538.31,574.62z"
				/>
		</g>
		<g class="st0">
			<path class="st41" d="M537.96,574.29c-14.77,15.85-34.56,24.21-54.62,24.91c-10.03,0.35-20.13-1.21-29.7-4.7
				c-4.79-1.75-9.44-3.98-13.89-6.69h8.07V511H557v-7.87c1.13,4.91,1.79,9.91,1.96,14.92C559.67,538.12,552.73,558.45,537.96,574.29
				z"/>
		</g>
		<g class="st0">
			<path class="st42" d="M537.61,573.97c-14.68,15.75-34.35,24.06-54.29,24.76c-9.97,0.35-20.01-1.2-29.52-4.67
				c-4.76-1.74-9.38-3.95-13.8-6.65h7.83V511h108.72v-7.76c1.12,4.88,1.77,9.85,1.95,14.83
				C559.2,538.01,552.29,558.22,537.61,573.97z"/>
		</g>
		<g class="st0">
			<path class="st43" d="M537.27,573.65c-14.59,15.65-34.14,23.91-53.96,24.61c-9.91,0.35-19.89-1.19-29.34-4.64
				c-4.73-1.73-9.33-3.93-13.72-6.61h7.58v-76h108.26v-7.66c1.12,4.85,1.76,9.79,1.94,14.74
				C558.72,537.91,551.85,557.99,537.27,573.65z"/>
		</g>
		<g class="st0">
			<path class="st44" d="M536.92,573.32c-14.5,15.56-33.93,23.77-53.63,24.46c-9.85,0.35-19.76-1.18-29.16-4.62
				c-4.7-1.72-9.27-3.91-13.64-6.57h7.33V511h107.79v-7.55c1.11,4.82,1.75,9.73,1.93,14.65
				C558.24,537.8,551.42,557.76,536.92,573.32z"/>
		</g>
		<g class="st0">
			<path class="st45" d="M536.57,573c-14.41,15.46-33.72,23.62-53.3,24.31c-9.79,0.34-19.64-1.18-28.98-4.59
				c-4.67-1.7-9.21-3.88-13.55-6.53h7.08V511h107.33v-7.44c1.1,4.79,1.74,9.67,1.91,14.56C557.76,537.7,550.98,557.54,536.57,573z"
				/>
		</g>
		<g class="st0">
			<path class="st46" d="M536.22,572.67c-14.32,15.37-33.51,23.47-52.97,24.16c-9.73,0.34-19.52-1.17-28.8-4.56
				c-4.64-1.69-9.15-3.86-13.47-6.49h6.84V511h106.87v-7.33c1.1,4.76,1.73,9.61,1.9,14.47
				C557.28,537.59,550.54,557.31,536.22,572.67z"/>
		</g>
		<g class="st0">
			<path class="st47" d="M535.88,572.35c-14.23,15.27-33.3,23.33-52.64,24.01c-9.67,0.34-19.4-1.16-28.62-4.53
				c-4.61-1.68-9.1-3.83-13.38-6.45h6.59V511h106.41v-7.23c1.09,4.73,1.72,9.55,1.89,14.38
				C556.8,537.49,550.11,557.08,535.88,572.35z"/>
		</g>
		<g class="st0">
			<path class="st47" d="M535.53,572.03c-14.14,15.17-33.1,23.18-52.31,23.86c-9.61,0.34-19.28-1.16-28.44-4.5
				c-4.58-1.67-9.04-3.81-13.3-6.41h6.34V511h105.94v-7.12c1.08,4.7,1.71,9.49,1.88,14.29
				C556.32,537.38,549.67,556.85,535.53,572.03z"/>
		</g>
		<g class="st0">
			<path class="st48" d="M535.18,571.7c-14.05,15.08-32.89,23.03-51.98,23.71c-9.55,0.34-19.15-1.15-28.26-4.47
				c-4.55-1.66-8.98-3.79-13.22-6.37h6.1V511H553.3v-7.01c1.08,4.67,1.7,9.43,1.87,14.2C555.84,537.28,549.23,556.62,535.18,571.7z"
				/>
		</g>
		<g class="st0">
			<path class="st49" d="M534.83,571.38c-13.96,14.98-32.68,22.89-51.65,23.56c-9.48,0.33-19.03-1.14-28.08-4.44
				c-4.53-1.65-8.93-3.76-13.13-6.33h5.85V511h105.02v-6.91c1.07,4.64,1.69,9.37,1.86,14.11
				C555.37,537.17,548.8,556.4,534.83,571.38z"/>
		</g>
		<g class="st0">
			<path class="st50" d="M534.49,571.06c-13.87,14.89-32.47,22.74-51.32,23.41c-9.42,0.33-18.91-1.13-27.9-4.42
				c-4.5-1.64-8.87-3.74-13.05-6.29h5.6V511h104.56v-6.8c1.06,4.61,1.68,9.31,1.84,14.02C554.89,537.07,548.36,556.17,534.49,571.06
				z"/>
		</g>
		<g class="st0">
			<path class="st51" d="M534.14,570.73c-13.78,14.79-32.26,22.59-50.99,23.25c-9.36,0.33-18.79-1.13-27.72-4.39
				c-4.47-1.63-8.81-3.71-12.96-6.25h5.35V511h104.09v-6.69c1.06,4.58,1.67,9.25,1.83,13.93
				C554.41,536.96,547.92,555.94,534.14,570.73z"/>
		</g>
		<g class="st0">
			<path class="st52" d="M533.79,570.41c-13.7,14.7-32.05,22.45-50.65,23.1c-9.3,0.33-18.67-1.12-27.54-4.36
				c-4.44-1.62-8.75-3.69-12.88-6.21h5.11V511h103.63v-6.59c1.05,4.55,1.66,9.19,1.82,13.84
				C553.93,536.86,547.49,555.71,533.79,570.41z"/>
		</g>
		<g class="st0">
			<path class="st53" d="M533.45,570.09c-13.61,14.6-31.84,22.3-50.32,22.95c-9.24,0.33-18.55-1.11-27.36-4.33
				c-4.41-1.61-8.7-3.66-12.79-6.17h4.86V511h103.17v-6.48c1.04,4.52,1.65,9.13,1.81,13.75
				C553.45,536.75,547.05,555.49,533.45,570.09z"/>
		</g>
		<g class="st0">
			<path class="st54" d="M533.1,569.76c-13.52,14.5-31.63,22.16-49.99,22.8c-9.18,0.32-18.42-1.1-27.18-4.3
				c-4.38-1.6-8.64-3.64-12.71-6.13h4.61V511h102.71v-6.37c1.03,4.49,1.63,9.07,1.8,13.66C552.97,536.65,546.61,555.26,533.1,569.76
				z"/>
		</g>
		<g class="st0">
			<path class="st55" d="M532.75,569.44c-13.43,14.41-31.42,22.01-49.66,22.65c-9.12,0.32-18.3-1.1-27-4.27
				c-4.35-1.59-8.58-3.62-12.63-6.09h4.37V511h102.24v-6.26c1.03,4.46,1.62,9.01,1.78,13.57
				C552.49,536.54,546.18,555.03,532.75,569.44z"/>
		</g>
		<g class="st0">
			<path class="st56" d="M532.4,569.11c-13.34,14.31-31.21,21.86-49.33,22.5c-9.06,0.32-18.18-1.09-26.82-4.25
				c-4.32-1.58-8.53-3.59-12.54-6.05h4.12V511H549.6v-6.16c1.02,4.43,1.61,8.95,1.77,13.48C552.02,536.44,545.74,554.8,532.4,569.11
				z"/>
		</g>
		<g class="st0">
			<path class="st57" d="M532.06,568.79c-13.25,14.22-31,21.72-49,22.35c-9,0.32-18.06-1.08-26.64-4.22
				c-4.29-1.57-8.47-3.57-12.46-6.01h3.87V511h101.32v-6.05c1.01,4.4,1.6,8.89,1.76,13.39C551.54,536.34,545.3,554.58,532.06,568.79
				z"/>
		</g>
		<g class="st0">
			<path class="st58" d="M531.71,568.47c-13.16,14.12-30.79,21.57-48.67,22.2c-8.94,0.31-17.94-1.08-26.47-4.19
				c-4.26-1.56-8.41-3.54-12.37-5.97h3.62V511h100.86v-5.94c1.01,4.37,1.59,8.83,1.75,13.3
				C551.06,536.23,544.87,554.35,531.71,568.47z"/>
		</g>
		<g class="st0">
			<path class="st59" d="M531.36,568.14c-13.07,14.02-30.59,21.42-48.34,22.05c-8.88,0.31-17.81-1.07-26.29-4.16
				c-4.24-1.55-8.35-3.52-12.29-5.92h3.38V511h100.39v-5.84c1,4.34,1.58,8.77,1.74,13.21C550.58,536.13,544.43,554.12,531.36,568.14
				z"/>
		</g>
		<g class="st0">
			<path class="st60" d="M531.01,567.82c-12.98,13.93-30.38,21.28-48.01,21.9c-8.82,0.31-17.69-1.06-26.11-4.13
				c-4.21-1.54-8.3-3.5-12.21-5.88h3.13V511h99.93v-5.73c0.99,4.31,1.57,8.71,1.72,13.12C550.1,536.02,543.99,553.89,531.01,567.82z
				"/>
		</g>
		<g class="st0">
			<path class="st61" d="M530.67,567.5c-12.89,13.83-30.17,21.13-47.68,21.75c-8.76,0.31-17.57-1.05-25.93-4.1
				c-4.18-1.53-8.24-3.47-12.12-5.84h2.88V511h99.47v-5.62c0.99,4.28,1.56,8.65,1.71,13.03
				C549.62,535.92,543.56,553.66,530.67,567.5z"/>
		</g>
		<g class="st0">
			<path class="st62" d="M530.32,567.17c-12.8,13.74-29.96,20.98-47.35,21.6c-8.7,0.31-17.45-1.05-25.75-4.07
				c-4.15-1.51-8.18-3.45-12.04-5.8h2.64V511h99.01v-5.52c0.98,4.25,1.55,8.59,1.7,12.93C549.14,535.81,543.12,553.44,530.32,567.17
				z"/>
		</g>
		<g class="st0">
			<path class="st63" d="M529.97,566.85c-12.71,13.64-29.75,20.84-47.02,21.45c-8.63,0.3-17.33-1.04-25.57-4.05
				c-4.12-1.5-8.13-3.42-11.95-5.76h2.39V511h98.54v-5.41c0.97,4.22,1.54,8.53,1.69,12.84
				C548.66,535.71,542.68,553.21,529.97,566.85z"/>
		</g>
		<g class="st0">
			<path class="st64" d="M529.63,566.53c-12.62,13.54-29.54,20.69-46.69,21.29c-8.57,0.3-17.21-1.03-25.39-4.02
				c-4.09-1.49-8.07-3.4-11.87-5.72h2.14V511h98.08v-5.3c0.97,4.19,1.53,8.47,1.68,12.75C548.19,535.6,542.25,552.98,529.63,566.53z
				"/>
		</g>
		<g class="st0">
			<path class="st65" d="M529.28,566.2c-12.53,13.45-29.33,20.54-46.36,21.14c-8.51,0.3-17.08-1.02-25.21-3.99
				c-4.06-1.48-8.01-3.38-11.79-5.68h1.9V511h97.62v-5.19c0.96,4.16,1.52,8.41,1.67,12.66C547.71,535.5,541.81,552.75,529.28,566.2z
				"/>
		</g>
		<g class="st0">
			<path class="st66" d="M528.93,565.88c-12.44,13.35-29.12,20.4-46.03,20.99c-8.45,0.3-16.96-1.02-25.03-3.96
				c-4.03-1.47-7.95-3.35-11.7-5.64h1.65V511h97.16v-5.09c0.95,4.14,1.5,8.35,1.65,12.57C547.23,535.39,541.37,552.53,528.93,565.88
				z"/>
		</g>
		<g class="st0">
			<path class="st67" d="M528.58,565.55c-12.35,13.26-28.91,20.25-45.7,20.84c-8.39,0.3-16.84-1.01-24.85-3.93
				c-4-1.46-7.9-3.33-11.62-5.6h1.4V511h96.69v-4.98c0.95,4.11,1.49,8.29,1.64,12.48C546.75,535.29,540.94,552.3,528.58,565.55z"/>
		</g>
		<g class="st0">
			<path class="st68" d="M528.24,565.23c-12.27,13.16-28.7,20.1-45.37,20.69c-8.33,0.29-16.72-1-24.67-3.9
				c-3.97-1.45-7.84-3.3-11.53-5.56h1.15V511h96.23v-4.87c0.94,4.08,1.48,8.23,1.63,12.39C546.27,535.18,540.5,552.07,528.24,565.23
				z"/>
		</g>
		<g class="st0">
			<path class="st69" d="M527.89,564.91c-12.18,13.06-28.49,19.96-45.04,20.54c-8.27,0.29-16.6-0.99-24.49-3.88
				c-3.95-1.44-7.78-3.28-11.45-5.52h0.91V511h95.77v-4.77c0.93,4.05,1.47,8.17,1.62,12.3
				C545.79,535.08,540.06,551.84,527.89,564.91z"/>
		</g>
		<g class="st0">
			<path class="st70" d="M527.54,564.58c-12.09,12.97-28.29,19.81-44.7,20.39c-8.21,0.29-16.47-0.99-24.31-3.85
				c-3.92-1.43-7.73-3.26-11.37-5.48h0.66V511h95.31v-4.66c0.93,4.02,1.46,8.11,1.61,12.21
				C545.31,534.97,539.63,551.61,527.54,564.58z"/>
		</g>
		<g class="st0">
			<path class="st71" d="M527.19,564.26c-12,12.87-28.08,19.66-44.37,20.24c-8.15,0.29-16.35-0.98-24.13-3.82
				c-3.89-1.42-7.67-3.23-11.28-5.44h0.41V511h94.84v-4.55c0.92,3.99,1.45,8.05,1.59,12.12
				C544.83,534.87,539.19,551.39,527.19,564.26z"/>
		</g>
		<g class="st0">
			<path class="st72" d="M526.85,563.94c-11.91,12.78-27.87,19.52-44.04,20.09c-8.09,0.28-16.23-0.97-23.95-3.79
				c-3.86-1.41-7.61-3.21-11.2-5.4h0.17V511h94.38v-4.45c0.91,3.96,1.44,7.99,1.58,12.03C544.36,534.76,538.75,551.16,526.85,563.94
				z"/>
		</g>
		<g class="st0">
			<path class="st73" d="M526.5,563.61c-11.82,12.68-27.66,19.37-43.71,19.94c-8.03,0.28-16.11-0.97-23.77-3.76
				c-3.83-1.4-7.55-3.18-11.11-5.36c-1.78-1.09-3.52-2.27-5.21-3.55h5.13V511h93.92v-4.34c0.9,3.93,1.43,7.93,1.57,11.94
				C543.88,534.66,538.32,550.93,526.5,563.61z"/>
		</g>
		<g class="st0">
			<path class="st74" d="M526.15,563.29c-11.73,12.59-27.45,19.23-43.38,19.79c-7.97,0.28-15.99-0.96-23.59-3.73
				c-3.8-1.39-7.5-3.16-11.03-5.32c-1.77-1.08-3.49-2.25-5.17-3.53h4.84V511h93.46v-4.23c0.9,3.9,1.42,7.87,1.56,11.85
				C543.4,534.56,537.88,550.7,526.15,563.29z"/>
		</g>
		<g class="st0">
			<path class="st75" d="M525.81,562.97c-23.28,24.98-62.4,26.36-87.38,3.08h9.4V511h92.99v-4.12c0.89,3.87,1.41,7.81,1.55,11.76
				C542.92,534.45,537.44,550.48,525.81,562.97z"/>
		</g>
		<g class="st0">
			<path class="st76" d="M525.46,562.64c-23.1,24.79-61.92,26.15-86.71,3.05h9.07V511h92.53v-4.02c0.88,3.84,1.4,7.75,1.53,11.67
				C542.44,534.35,537.01,550.25,525.46,562.64z"/>
		</g>
		<g class="st0">
			<path class="st77" d="M525.11,562.32c-22.92,24.6-61.44,25.95-86.04,3.03h8.75V511h92.07v-3.91c0.88,3.81,1.39,7.69,1.52,11.58
				C541.96,534.24,536.57,550.02,525.11,562.32z"/>
		</g>
		<g class="st0">
			<path class="st78" d="M524.76,561.99c-22.74,24.4-60.96,25.75-85.37,3.01h8.42v-54h91.61v-3.8c0.87,3.78,1.38,7.63,1.51,11.49
				C541.48,534.14,536.13,549.79,524.76,561.99z"/>
		</g>
		<g class="st0">
			<path class="st79" d="M524.42,561.67c-22.56,24.21-60.48,25.55-84.69,2.98h8.1V511h91.14v-3.7c0.86,3.75,1.36,7.57,1.5,11.4
				C541.01,534.03,535.7,549.56,524.42,561.67z"/>
		</g>
		<g class="st0">
			<path class="st80" d="M524.07,561.35c-22.39,24.02-60,25.35-84.02,2.96h7.78V511h90.68v-3.59c0.86,3.72,1.35,7.51,1.49,11.31
				C540.53,533.93,535.26,549.34,524.07,561.35z"/>
		</g>
		<g class="st0">
			<path class="st81" d="M523.72,561.02c-22.21,23.83-59.52,25.14-83.35,2.94h7.45V511h90.22v-3.48c0.85,3.69,1.34,7.45,1.48,11.22
				C540.05,533.82,534.82,549.11,523.72,561.02z"/>
		</g>
		<g class="st0">
			<path class="st82" d="M523.37,560.7c-22.03,23.64-59.05,24.94-82.68,2.91h7.13V511h89.76v-3.38c0.84,3.66,1.33,7.39,1.46,11.13
				C539.57,533.72,534.39,548.88,523.37,560.7z"/>
		</g>
		<g class="st0">
			<path class="st83" d="M523.03,560.38c-21.85,23.44-58.57,24.74-82.01,2.89h6.81V511h89.29v-3.27c0.84,3.63,1.32,7.33,1.45,11.04
				C539.09,533.61,533.95,548.65,523.03,560.38z"/>
		</g>
		<g class="st0">
			<path class="st84" d="M522.68,560.05c-21.67,23.25-58.09,24.54-81.34,2.87h6.48V511h88.83v-3.16c0.83,3.6,1.31,7.27,1.44,10.95
				C538.61,533.51,533.51,548.43,522.68,560.05z"/>
		</g>
		<g class="st0">
			<path class="st85" d="M522.33,559.73c-21.49,23.06-57.61,24.33-80.67,2.84h6.16V511h88.37v-3.05c0.82,3.57,1.3,7.21,1.43,10.86
				C538.13,533.4,533.08,548.2,522.33,559.73z"/>
		</g>
		<g class="st0">
			<path class="st86" d="M521.99,559.41c-21.31,22.87-57.13,24.13-80,2.82h5.84V511h87.91v-2.95c0.82,3.54,1.29,7.15,1.42,10.77
				C537.65,533.3,532.64,547.97,521.99,559.41z"/>
		</g>
		<g class="st0">
			<path class="st87" d="M521.64,559.08c-21.13,22.68-56.65,23.93-79.33,2.79h5.51V511h87.44v-2.84c0.81,3.51,1.28,7.09,1.4,10.68
				C537.18,533.19,532.2,547.74,521.64,559.08z"/>
		</g>
		<g class="st0">
			<path class="st88" d="M521.29,558.76c-20.96,22.49-56.17,23.73-78.66,2.77h5.19V511h86.98v-2.73c0.8,3.48,1.27,7.03,1.39,10.59
				C536.7,533.09,531.77,547.52,521.29,558.76z"/>
		</g>
		<g class="st0">
			<path class="st89" d="M520.94,558.43c-20.78,22.29-55.69,23.52-77.99,2.75h4.86V511h86.52v-2.63c0.8,3.45,1.26,6.97,1.38,10.5
				C536.22,532.98,531.33,547.29,520.94,558.43z"/>
		</g>
		<g class="st0">
			<path class="st90" d="M520.6,558.11c-20.6,22.1-55.21,23.32-77.31,2.72h4.54V511h86.06v-2.52c0.79,3.42,1.25,6.91,1.37,10.41
				C535.74,532.88,530.89,547.06,520.6,558.11z"/>
		</g>
		<g class="st0">
			<path class="st91" d="M520.25,557.79c-20.42,21.91-54.73,23.12-76.64,2.7h4.22V511h85.59v-2.41c0.78,3.39,1.23,6.85,1.36,10.32
				C535.26,532.78,530.46,546.83,520.25,557.79z"/>
		</g>
		<g class="st0">
			<path class="st92" d="M519.9,557.46c-20.24,21.72-54.25,22.92-75.97,2.68h3.89V511h85.13v-2.3c0.77,3.36,1.22,6.79,1.34,10.23
				C534.78,532.67,530.02,546.6,519.9,557.46z"/>
		</g>
		<g class="st0">
			<path class="st93" d="M519.55,557.14c-20.06,21.53-53.78,22.71-75.3,2.65h3.57V511h84.67v-2.2c0.77,3.33,1.21,6.73,1.33,10.14
				C534.3,532.57,529.58,546.38,519.55,557.14z"/>
		</g>
		<g class="st0">
			<path class="st94" d="M519.21,556.82c-19.88,21.33-53.3,22.51-74.63,2.63h3.25V511h84.21v-2.09c0.76,3.3,1.2,6.67,1.32,10.05
				C533.82,532.46,529.15,546.15,519.21,556.82z"/>
		</g>
		<g class="st0">
			<path class="st95" d="M518.86,556.49c-19.7,21.14-52.82,22.31-73.96,2.61h2.92V511h83.74v-1.98c0.75,3.27,1.19,6.61,1.31,9.95
				C533.35,532.36,528.71,545.92,518.86,556.49z"/>
		</g>
		<g class="st0">
			<path class="st96" d="M518.51,556.17c-19.53,20.95-52.34,22.11-73.29,2.58h2.6V511h83.28v-1.88c0.75,3.24,1.18,6.55,1.3,9.86
				C532.87,532.25,528.27,545.69,518.51,556.17z"/>
		</g>
		<g class="st0">
			<path class="st97" d="M518.16,555.84c-19.35,20.76-51.86,21.9-72.62,2.56h2.28V511h82.82v-1.77c0.74,3.21,1.17,6.49,1.29,9.77
				C532.39,532.15,527.84,545.47,518.16,555.84z"/>
		</g>
		<g class="st0">
			<path class="st98" d="M517.82,555.52c-19.17,20.57-51.38,21.7-71.95,2.53h1.95V511h82.35v-1.66c0.73,3.18,1.16,6.43,1.27,9.68
				C531.91,532.04,527.4,545.24,517.82,555.52z"/>
		</g>
		<g class="st0">
			<path class="st99" d="M517.47,555.2c-18.99,20.38-50.9,21.5-71.28,2.51h1.63V511h81.89v-1.56c0.73,3.16,1.15,6.37,1.26,9.59
				C531.43,531.94,526.96,545.01,517.47,555.2z"/>
		</g>
		<g class="st0">
			<path class="st100" d="M517.12,554.87c-18.81,20.18-50.42,21.3-70.61,2.49h1.3V511h81.43v-1.45c0.72,3.13,1.14,6.31,1.25,9.5
				C530.95,531.83,526.53,544.78,517.12,554.87z"/>
		</g>
		<g class="st0">
			<path class="st101" d="M516.78,554.55c-18.63,19.99-49.94,21.1-69.93,2.46h0.98V511h80.97v-1.34c0.71,3.1,1.13,6.25,1.24,9.41
				C530.47,531.73,526.09,544.55,516.78,554.55z"/>
		</g>
		<g class="st0">
			<path class="st102" d="M516.43,554.23c-18.45,19.8-49.46,20.89-69.26,2.44h0.66V511h80.5v-1.23c0.71,3.07,1.12,6.19,1.23,9.32
				C529.99,531.62,525.65,544.33,516.43,554.23z"/>
		</g>
		<g class="st0">
			<path class="st103" d="M516.08,553.9c-18.27,19.61-48.98,20.69-68.59,2.42h0.33V511h80.04v-1.13c0.7,3.04,1.1,6.13,1.21,9.23
				C529.52,531.52,525.22,544.1,516.08,553.9z"/>
		</g>
		<g class="st0">
			<path class="st104" d="M515.73,553.58c-18.1,19.42-48.5,20.49-67.92,2.39h0.01V511h79.58v-1.02c0.69,3.01,1.09,6.07,1.2,9.14
				C529.04,531.41,524.78,543.87,515.73,553.58z"/>
		</g>
		<g class="st0">
			<path class="st105" d="M515.39,553.26c-17.92,19.22-48.03,20.29-67.25,2.37c-2.4-2.24-4.52-4.67-6.36-7.25h6.04V511h76.2v-9.63
				c2.52,5.64,3.9,11.69,4.11,17.77C528.56,531.31,524.34,543.64,515.39,553.26z"/>
		</g>
		<g class="st0">
			<path class="st106" d="M515.04,552.93c-17.74,19.03-47.55,20.08-66.58,2.35c-2.38-2.22-4.48-4.62-6.29-7.17h5.66V511h75.76v-9.44
				c2.5,5.59,3.86,11.57,4.07,17.59C528.08,531.21,523.91,543.42,515.04,552.93z"/>
		</g>
		<g class="st0">
			<path class="st107" d="M514.69,552.61c-17.56,18.84-47.07,19.88-65.91,2.32c-2.36-2.19-4.43-4.58-6.23-7.1h5.27V511h75.33v-9.25
				c2.47,5.53,3.82,11.45,4.03,17.42C527.6,531.1,523.47,543.19,514.69,552.61z"/>
		</g>
		<g class="st0">
			<path class="st108" d="M514.34,552.28c-17.38,18.65-46.59,19.68-65.24,2.3c-4.66-4.35-8.22-9.43-10.67-14.9h9.39V511h74.9v-9.05
				c2.45,5.47,3.78,11.34,3.99,17.24C527.12,531,523.03,542.96,514.34,552.28z"/>
		</g>
		<g class="st0">
			<path class="st109" d="M514,551.96c-17.2,18.46-46.11,19.48-64.57,2.27c-4.61-4.3-8.14-9.33-10.56-14.75h8.95V511h74.46v-8.86
				c2.42,5.42,3.74,11.22,3.95,17.06C526.64,530.89,522.6,542.73,514,551.96z"/>
		</g>
		<g class="st0">
			<path class="st110" d="M513.65,551.64c-17.02,18.27-45.63,19.27-63.9,2.25c-4.57-4.26-8.05-9.24-10.45-14.6h8.52V511h74.03v-8.66
				c2.4,5.36,3.7,11.1,3.91,16.89C526.17,530.79,522.16,542.5,513.65,551.64z"/>
		</g>
		<g class="st0">
			<path class="st111" d="M513.3,551.31c-16.84,18.07-45.15,19.07-63.23,2.23c-4.52-4.21-7.97-9.14-10.34-14.44h8.09V511h73.59
				v-8.47c2.37,5.3,3.66,10.99,3.87,16.71C525.69,530.68,521.72,542.28,513.3,551.31z"/>
		</g>
		<g class="st0">
			<path class="st112" d="M512.96,550.99c-16.67,17.88-44.67,18.87-62.55,2.2c-4.47-4.17-7.89-9.04-10.23-14.29h7.65V511h73.16
				v-8.28c2.35,5.25,3.63,10.87,3.83,16.53C525.21,530.58,521.29,542.05,512.96,550.99z"/>
		</g>
		<g class="st0">
			<path class="st113" d="M512.61,550.67c-16.49,17.69-44.19,18.67-61.88,2.18c-4.42-4.12-7.8-8.94-10.12-14.14h7.22V511h72.73
				v-8.08c2.32,5.19,3.59,10.75,3.78,16.35C524.73,530.47,520.85,541.82,512.61,550.67z"/>
		</g>
		<g class="st0">
			<path class="st114" d="M512.26,550.34c-16.31,17.5-43.71,18.46-61.21,2.16c-4.37-4.08-7.72-8.85-10.01-13.98h6.79V511h72.29
				v-7.89c2.3,5.14,3.55,10.64,3.74,16.18C524.25,530.37,520.41,541.59,512.26,550.34z"/>
		</g>
		<g class="st0">
			<path class="st115" d="M511.91,550.02c-16.13,17.31-43.23,18.26-60.54,2.13c-4.33-4.03-7.63-8.75-9.9-13.83h6.35V511h71.86v-7.69
				c2.27,5.08,3.51,10.52,3.7,16C523.77,530.26,519.98,541.37,511.91,550.02z"/>
		</g>
		<g class="st0">
			<path class="st116" d="M511.57,549.7c-15.95,17.12-42.76,18.06-59.87,2.11c-8.56-7.98-13.07-18.66-13.45-29.5h9.58V511h71.43
				v-7.5c2.25,5.02,3.47,10.4,3.66,15.82C523.29,530.16,519.54,541.14,511.57,549.7z"/>
		</g>
		<g class="st0">
			<path class="st117" d="M511.22,549.37c-15.77,16.92-42.28,17.86-59.2,2.09c-8.46-7.89-12.93-18.45-13.3-29.17h9.11V511h70.99
				v-7.31c2.22,4.97,3.43,10.29,3.62,15.64C522.81,530.05,519.1,540.91,511.22,549.37z"/>
		</g>
		<g class="st0">
			<path class="st118" d="M510.87,549.05c-15.59,16.73-41.8,17.65-58.53,2.06c-8.37-7.8-12.78-18.25-13.15-28.84h8.63V511h70.56
				v-7.11c2.2,4.91,3.39,10.17,3.58,15.47C522.34,529.95,518.67,540.68,510.87,549.05z"/>
		</g>
		<g class="st0">
			<path class="st119" d="M510.52,548.72c-15.41,16.54-41.32,17.45-57.86,2.04c-8.27-7.71-12.63-18.04-13-28.51h8.16V511h70.13
				v-6.92c2.17,4.85,3.35,10.05,3.54,15.29C521.86,529.84,518.23,540.45,510.52,548.72z"/>
		</g>
		<g class="st0">
			<path class="st120" d="M510.18,548.4c-15.24,16.35-40.84,17.25-57.19,2.01c-8.17-7.62-12.49-17.83-12.85-28.18h7.68V511h69.69
				v-6.72c2.15,4.8,3.31,9.94,3.5,15.11C521.38,529.74,517.79,540.23,510.18,548.4z"/>
		</g>
		<g class="st0">
			<path class="st121" d="M509.83,548.08c-15.06,16.16-40.36,17.05-56.52,1.99c-8.08-7.53-12.34-17.62-12.7-27.85h7.21V511h69.26
				v-6.53c2.12,4.74,3.28,9.82,3.46,14.93C520.9,529.63,517.36,540,509.83,548.08z"/>
		</g>
		<g class="st0">
			<path class="st122" d="M509.48,547.75c-14.88,15.96-39.88,16.85-55.84,1.97c-7.98-7.44-12.19-17.41-12.55-27.51h6.73V511h68.83
				v-6.34c2.1,4.69,3.24,9.7,3.41,14.76C520.42,529.53,516.92,539.77,509.48,547.75z"/>
		</g>
		<g class="st0">
			<path class="st123" d="M509.14,547.43c-14.7,15.77-39.4,16.64-55.17,1.94c-7.89-7.35-12.05-17.2-12.4-27.18h6.26V511h68.39v-6.14
				c2.07,4.63,3.2,9.59,3.37,14.58C519.94,529.43,516.49,539.54,509.14,547.43z"/>
		</g>
		<g class="st0">
			<path class="st124" d="M508.79,547.11c-14.52,15.58-38.92,16.44-54.5,1.92c-7.79-7.26-11.9-16.99-12.25-26.85h5.79V511h67.96
				v-5.95c2.04,4.57,3.16,9.47,3.33,14.4C519.46,529.32,516.05,539.32,508.79,547.11z"/>
		</g>
		<g class="st0">
			<path class="st125" d="M508.44,546.78c-14.34,15.39-38.44,16.24-53.83,1.9c-7.69-7.17-11.75-16.78-12.1-26.52h5.31V511h67.53
				v-5.75c2.02,4.52,3.12,9.35,3.29,14.23C518.98,529.22,515.61,539.09,508.44,546.78z"/>
		</g>
		<g class="st0">
			<path class="st126" d="M508.09,546.46c-14.16,15.2-37.96,16.04-53.16,1.87c-7.6-7.08-11.61-16.57-11.95-26.19h4.84V511h67.09
				v-5.56c1.99,4.46,3.08,9.24,3.25,14.05C518.51,529.11,515.18,538.86,508.09,546.46z"/>
		</g>
		<g class="st0">
			<path class="st127" d="M507.75,546.14c-13.98,15.01-37.48,15.83-52.49,1.85c-7.5-6.99-11.46-16.36-11.8-25.86h4.36V511h66.66
				v-5.37c1.97,4.4,3.04,9.12,3.21,13.87C518.03,529.01,514.74,538.63,507.75,546.14z"/>
		</g>
		<g class="st0">
			<path class="st128" d="M507.4,545.81c-13.81,14.81-37.01,15.63-51.82,1.83c-7.41-6.9-11.31-16.15-11.64-25.53h3.89V511h66.23
				v-5.17c1.94,4.35,3,9.01,3.17,13.69C517.55,528.9,514.3,538.41,507.4,545.81z"/>
		</g>
		<g class="st0">
			<path class="st129" d="M507.05,545.49c-13.63,14.62-36.53,15.43-51.15,1.8c-7.31-6.81-11.17-15.94-11.49-25.2h3.41V511h65.79
				v-4.98c1.92,4.29,2.96,8.89,3.13,13.52C517.07,528.8,513.87,538.18,507.05,545.49z"/>
		</g>
		<g class="st0">
			<path class="st130" d="M506.7,545.16c-13.45,14.43-36.05,15.23-50.48,1.78c-7.21-6.72-11.02-15.74-11.34-24.87h2.94V511h65.36
				v-4.78c1.89,4.24,2.93,8.77,3.09,13.34C516.59,528.69,513.43,537.95,506.7,545.16z"/>
		</g>
		<g class="st0">
			<path class="st131" d="M506.36,544.84c-13.27,14.24-35.57,15.02-49.81,1.75c-7.12-6.63-10.88-15.53-11.19-24.54h2.46V511h64.93
				v-4.59c1.87,4.18,2.89,8.66,3.05,13.16C516.11,528.59,512.99,537.72,506.36,544.84z"/>
		</g>
		<g class="st0">
			<path class="st132" d="M506.01,544.52c-13.09,14.05-35.09,14.82-49.14,1.73c-7.02-6.55-10.73-15.32-11.04-24.21
				c-0.16-4.45,0.53-8.92,2.08-13.16V511h64.4v-4.4c1.84,4.12,2.85,8.54,3,12.98C515.63,528.48,512.56,537.49,506.01,544.52z"/>
		</g>
		<g class="st0">
			<path class="st133" d="M505.66,544.19c-12.91,13.85-34.61,14.62-48.46,1.71c-6.93-6.46-10.58-15.11-10.89-23.88
				c-0.15-4.39,0.53-8.8,2.06-12.98V511h63.52v-4.2c1.82,4.07,2.81,8.42,2.96,12.81C515.16,528.38,512.12,537.27,505.66,544.19z"/>
		</g>
		<g class="st0">
			<path class="st134" d="M505.32,543.87c-12.73,13.66-34.13,14.42-47.79,1.68c-6.83-6.37-10.44-14.9-10.74-23.55
				c-0.15-4.32,0.52-8.68,2.03-12.8v1.8h62.64v-4.01c1.79,4.01,2.77,8.31,2.92,12.63C514.68,528.27,511.68,537.04,505.32,543.87z"/>
		</g>
		<g class="st0">
			<path class="st135" d="M504.97,543.55c-12.55,13.47-33.65,14.21-47.12,1.66c-6.74-6.28-10.29-14.69-10.59-23.22
				c-0.15-4.26,0.51-8.56,2-12.62V511h61.76v-3.81c1.77,3.95,2.73,8.19,2.88,12.45C514.2,528.17,511.25,536.81,504.97,543.55z"/>
		</g>
		<g class="st0">
			<path class="st136" d="M504.62,543.22c-12.38,13.28-33.17,14.01-46.45,1.64c-6.64-6.19-10.14-14.48-10.44-22.89
				c-0.15-4.2,0.51-8.43,1.97-12.44V511h60.88v-3.62c1.74,3.9,2.69,8.07,2.84,12.28C513.72,528.06,510.81,536.58,504.62,543.22z"/>
		</g>
		<g class="st0">
			<path class="st137" d="M504.27,542.9c-12.2,13.09-32.69,13.81-45.78,1.61c-6.54-6.1-10-14.27-10.29-22.56
				c-0.15-4.14,0.5-8.31,1.94-12.27V511h60v-3.43c1.72,3.84,2.65,7.96,2.8,12.1C513.24,527.96,510.37,536.36,504.27,542.9z"/>
		</g>
		<g class="st0">
			<path class="st138" d="M503.93,542.58c-12.02,12.9-32.21,13.61-45.11,1.59c-6.45-6.01-9.85-14.06-10.14-22.23
				c-0.14-4.08,0.49-8.19,1.91-12.09V511h59.12v-3.23c1.69,3.78,2.61,7.84,2.76,11.92C512.76,527.85,509.94,536.13,503.93,542.58z"
				/>
		</g>
		<g class="st0">
			<path class="st139" d="M503.58,542.25c-11.84,12.7-31.74,13.4-44.44,1.57c-6.35-5.92-9.7-13.85-9.99-21.9
				c-0.14-4.02,0.48-8.07,1.88-11.91V511h58.24v-3.04c1.67,3.73,2.58,7.72,2.72,11.74C512.28,527.75,509.5,535.9,503.58,542.25z"/>
		</g>
		<g class="st0">
			<path class="st140" d="M503.23,541.93c-11.66,12.51-31.26,13.2-43.77,1.54c-6.26-5.83-9.56-13.64-9.84-21.56
				c-0.14-3.96,0.48-7.95,1.86-11.73V511h57.36v-2.84c1.64,3.67,2.54,7.61,2.68,11.57C511.8,527.65,509.06,535.67,503.23,541.93z"/>
		</g>
		<g class="st0">
			<path class="st141" d="M502.88,541.6c-11.48,12.32-30.78,13-43.1,1.52c-6.16-5.74-9.41-13.44-9.68-21.23
				c-0.14-3.9,0.47-7.83,1.83-11.55V511h56.49v-2.65c1.62,3.62,2.5,7.49,2.64,11.39C511.33,527.54,508.63,535.44,502.88,541.6z"/>
		</g>
		<g class="st0">
			<path class="st142" d="M502.54,541.28c-11.3,12.13-30.3,12.8-42.43,1.49c-6.06-5.65-9.26-13.23-9.53-20.9
				c-0.14-3.84,0.46-7.7,1.8-11.37v0.5h55.61v-2.46c1.59,3.56,2.46,7.37,2.59,11.21C510.85,527.44,508.19,535.22,502.54,541.28z"/>
		</g>
		<g class="st0">
			<path class="st143" d="M502.19,540.96c-11.12,11.94-29.82,12.6-41.76,1.47c-5.97-5.56-9.12-13.02-9.38-20.57
				c-0.13-3.78,0.45-7.58,1.77-11.19V511h54.73v-2.26c1.57,3.5,2.42,7.26,2.55,11.03C510.37,527.33,507.75,534.99,502.19,540.96z"/>
		</g>
		<g class="st0">
			<path class="st144" d="M501.84,540.63c-10.95,11.74-29.34,12.39-41.08,1.45c-5.87-5.47-8.97-12.81-9.23-20.24
				c-0.13-3.72,0.45-7.46,1.74-11.01V511h53.85v-2.07c1.54,3.45,2.38,7.14,2.51,10.86C509.89,527.23,507.32,534.76,501.84,540.63z"
				/>
		</g>
		<g class="st0">
			<path class="st145" d="M501.5,540.31c-10.77,11.55-28.86,12.19-40.41,1.42c-5.78-5.38-8.82-12.6-9.08-19.91
				c-0.13-3.66,0.44-7.34,1.71-10.83V511h52.97v-1.87c1.52,3.39,2.34,7.02,2.47,10.68C509.41,527.12,506.88,534.53,501.5,540.31z"/>
		</g>
		<g class="st0">
			<path class="st146" d="M501.15,539.99c-10.59,11.36-28.38,11.99-39.74,1.4c-11.36-10.59-11.99-28.38-1.4-39.74V511h46.24v-1.68
				c1.49,3.33,2.3,6.91,2.43,10.5C508.93,527.02,506.44,534.31,501.15,539.99z"/>
		</g>
		<g class="st0">
			<path class="st147" d="M500.8,539.66c-10.41,11.17-27.9,11.79-39.07,1.38c-11.17-10.41-11.79-27.9-1.38-39.07V511h45.46v-1.49
				c1.47,3.28,2.26,6.79,2.39,10.33C508.45,526.91,506.01,534.08,500.8,539.66z"/>
		</g>
		<g class="st0">
			<path class="st148" d="M500.45,539.34c-10.23,10.98-27.42,11.58-38.4,1.35c-10.98-10.23-11.58-27.42-1.35-38.4V511h44.68v-1.29
				c1.44,3.22,2.23,6.67,2.35,10.15C507.97,526.81,505.57,533.85,500.45,539.34z"/>
		</g>
		<g class="st0">
			<path class="st149" d="M500.11,539.02c-10.05,10.79-26.94,11.38-37.73,1.33c-10.79-10.05-11.38-26.94-1.33-37.73V511h43.9v-1.1
				c1.42,3.17,2.19,6.56,2.31,9.97C507.5,526.7,505.13,533.62,500.11,539.02z"/>
		</g>
		<g class="st0">
			<path class="st150" d="M499.76,538.69c-9.87,10.59-26.46,11.18-37.06,1.31c-10.59-9.87-11.18-26.46-1.31-37.06V511h37.06v-9.37
				C509.05,511.51,509.63,528.1,499.76,538.69z"/>
		</g>
		<g class="st0">
			<path class="st151" d="M499.41,538.37c-9.69,10.4-25.99,10.98-36.39,1.28c-10.4-9.69-10.98-25.99-1.28-36.39V511h36.39v-9.02
				C508.53,511.67,509.11,527.97,499.41,538.37z"/>
		</g>
		<g class="st0">
			<path class="st152" d="M499.06,538.04c-9.52,10.21-25.51,10.77-35.72,1.26c-10.21-9.52-10.77-25.51-1.26-35.72V511h35.72v-8.67
				C508.02,511.84,508.58,527.83,499.06,538.04z"/>
		</g>
		<g class="st0">
			<path class="st153" d="M498.72,537.72c-9.34,10.02-25.03,10.57-35.05,1.23c-10.02-9.34-10.57-25.03-1.23-35.05V511h35.05v-8.33
				C507.5,512.01,508.05,527.7,498.72,537.72z"/>
		</g>
		<g class="st0">
			<path class="st154" d="M498.37,537.4c-9.16,9.83-24.55,10.37-34.37,1.21c-9.83-9.16-10.37-24.55-1.21-34.37V511h34.37v-7.98
				C506.99,512.18,507.53,527.57,498.37,537.4z"/>
		</g>
		<g class="st0">
			<path class="st155" d="M498.02,537.07c-8.98,9.64-24.07,10.17-33.7,1.19s-10.17-24.07-1.19-33.7V511h33.7v-7.63
				C506.47,512.35,507,527.44,498.02,537.07z"/>
		</g>
		<g class="st0">
			<path class="st156" d="M497.68,536.75c-8.8,9.44-23.59,9.96-33.03,1.16s-9.96-23.59-1.16-33.03V511h33.03v-7.29
				C505.95,512.52,506.48,527.31,497.68,536.75z"/>
		</g>
		<g class="st0">
			<path class="st157" d="M497.33,536.43c-8.62,9.25-23.11,9.76-32.36,1.14c-9.25-8.62-9.76-23.11-1.14-32.36v5.8h32.36v-6.94
				C505.44,512.69,505.95,527.17,497.33,536.43z"/>
		</g>
		<g class="st0">
			<path class="st158" d="M496.98,536.1c-8.44,9.06-22.63,9.56-31.69,1.12c-9.06-8.44-9.56-22.63-1.12-31.69V511h31.69v-6.59
				C504.92,512.85,505.42,527.04,496.98,536.1z"/>
		</g>
		<g class="st0">
			<path class="st159" d="M496.63,535.78c-8.26,8.87-22.15,9.36-31.02,1.09s-9.36-22.15-1.09-31.02V511h31.02v-6.24
				C504.41,513.02,504.9,526.91,496.63,535.78z"/>
		</g>
		<g class="st0">
			<path class="st160" d="M496.29,535.46c-8.09,8.68-21.67,9.15-30.35,1.07c-8.68-8.09-9.15-21.67-1.07-30.35V511h30.35v-5.9
				C503.89,513.19,504.37,526.78,496.29,535.46z"/>
		</g>
		<g class="st0">
			<path class="st161" d="M495.94,535.13c-7.91,8.48-21.19,8.95-29.68,1.05c-8.48-7.91-8.95-21.19-1.05-29.68v4.5h29.68v-5.55
				C503.38,513.36,503.85,526.65,495.94,535.13z"/>
		</g>
		<g class="st0">
			<path class="st162" d="M495.59,534.81c-7.73,8.29-20.72,8.75-29.01,1.02c-8.29-7.73-8.75-20.72-1.02-29.01V511h29.01v-5.2
				C502.86,513.53,503.32,526.52,495.59,534.81z"/>
		</g>
		<g class="st0">
			<path class="st163" d="M495.24,534.48c-7.55,8.1-20.24,8.55-28.34,1c-8.1-7.55-8.55-20.24-1-28.34V511h28.34v-4.85
				C502.35,513.7,502.79,526.38,495.24,534.48z"/>
		</g>
		<g class="st0">
			<path class="st164" d="M494.9,534.16c-7.37,7.91-19.76,8.35-27.67,0.97c-7.91-7.37-8.35-19.76-0.97-27.67V511h27.67v-4.51
				C501.83,513.87,502.27,526.25,494.9,534.16z"/>
		</g>
		<g class="st0">
			<path class="st165" d="M494.55,533.84c-7.19,7.72-19.28,8.14-26.99,0.95c-7.72-7.19-8.14-19.28-0.95-26.99V511h26.99v-4.16
				C501.32,514.03,501.74,526.12,494.55,533.84z"/>
		</g>
		<g class="st0">
			<path class="st166" d="M494.2,533.51c-7.01,7.53-18.8,7.94-26.32,0.93s-7.94-18.8-0.93-26.32V511h26.32v-3.81
				C500.8,514.2,501.22,525.99,494.2,533.51z"/>
		</g>
		<g class="st0">
			<path class="st167" d="M493.85,533.19c-6.83,7.33-18.32,7.74-25.65,0.9c-7.33-6.83-7.74-18.32-0.9-25.65V511h25.65v-3.46
				C500.28,514.37,500.69,525.86,493.85,533.19z"/>
		</g>
		<g class="st0">
			<path class="st168" d="M493.51,532.87c-6.66,7.14-17.84,7.54-24.98,0.88c-7.14-6.66-7.54-17.84-0.88-24.98V511h24.98v-3.12
				C499.77,514.54,500.16,525.72,493.51,532.87z"/>
		</g>
		<g class="st0">
			<path class="st169" d="M493.16,532.54c-6.48,6.95-17.36,7.33-24.31,0.86c-6.95-6.48-7.33-17.36-0.86-24.31V511h24.31v-2.77
				C499.25,514.71,499.64,525.59,493.16,532.54z"/>
		</g>
		<g class="st0">
			<path class="st170" d="M492.81,532.22c-6.3,6.76-16.88,7.13-23.64,0.83c-6.76-6.3-7.13-16.88-0.83-23.64V511h23.64v-2.42
				C498.74,514.88,499.11,525.46,492.81,532.22z"/>
		</g>
		<g class="st0">
			<path class="st171" d="M492.47,531.9c-6.12,6.57-16.4,6.93-22.97,0.81c-6.57-6.12-6.93-16.4-0.81-22.97V511h22.97v-2.08
				C498.22,515.05,498.59,525.33,492.47,531.9z"/>
		</g>
		<g class="st0">
			<path class="st172" d="M492.12,531.57c-5.94,6.37-15.92,6.73-22.3,0.79c-6.37-5.94-6.73-15.92-0.79-22.3V511h22.3v-1.73
				C497.71,515.21,498.06,525.2,492.12,531.57z"/>
		</g>
		<g class="st0">
			<path class="st173" d="M491.77,531.25c-5.76,6.18-15.44,6.52-21.63,0.76s-6.52-15.44-0.76-21.63V511h21.63v-1.38
				C497.19,515.38,497.53,525.07,491.77,531.25z"/>
		</g>
		<g class="st0">
			<path class="st174" d="M491.42,530.92c-5.58,5.99-14.97,6.32-20.96,0.74c-5.99-5.58-6.32-14.97-0.74-20.96v0.3h20.96v-1.03
				C496.68,515.55,497.01,524.93,491.42,530.92z"/>
		</g>
		<g class="st0">
			<circle class="st175" cx="480.58" cy="520.82" r="14.35"/>
		</g>
	</g>
</g>
<path d="M510.91,464.33c-38.28,0-69.43,31.15-69.43,69.43c0,2.96,0.2,6,0.6,9.04c7.89,17.07,19.46,26.46,32.59,26.46h0.51
	c19.58-0.31,21.92-14.43,22.01-15.03c0.53-3.11-0.22-5.81-2-7.26c-0.99-0.82-2.02-1.18-3.32-1.18c-4.03,0-5.68,4.3-5.86,4.79
	c-1.08,3.11-4.11,5.12-7.38,4.83c-3.26-0.22-5.96-2.64-6.56-5.88c-0.31-1.69-2.71-16.64,5.03-26.48c3.11-3.94,7.28-6.5,12.4-7.6
	c2.9-4.54,9.56-11.54,23.09-11.54c3.54,0,7.44,0.51,11.58,1.49c25.19,6.07,32.59,28.68,40.42,52.63l0.39,1.19
	c1.33,4.05,2.7,8.22,4.19,12.3c7.31-11.2,11.16-24.2,11.16-37.76C580.33,495.48,549.18,464.33,510.91,464.33z M565.93,558.91
	l-0.39-1.19c-7.92-24.22-15.39-47.09-41.14-53.29c-4.25-1.01-8.22-1.52-11.81-1.52c-13.79,0-20.71,7.14-23.71,11.65
	c-5.16,1.2-9.39,3.84-12.57,7.87c-8.06,10.25-5.54,25.57-5.22,27.28c0.68,3.69,3.75,6.45,7.45,6.7c3.72,0.33,7.18-1.94,8.41-5.49
	c0.25-0.69,1.68-4.13,4.92-4.13c1.08,0,1.88,0.28,2.69,0.96c1.5,1.21,2.11,3.58,1.64,6.33c-0.08,0.57-2.29,13.88-21.02,14.18h-0.51
	c-12.68,0-23.91-9.14-31.62-25.74c-0.38-2.94-0.57-5.88-0.57-8.76c0-37.73,30.7-68.43,68.43-68.43c37.73,0,68.42,30.7,68.42,68.43
	c0,12.64-3.42,24.86-9.91,35.49C568.19,565.79,567.04,562.3,565.93,558.91z M510.91,464.33c-38.28,0-69.43,31.15-69.43,69.43
	c0,2.96,0.2,6,0.6,9.04c7.89,17.07,19.46,26.46,32.59,26.46h0.51c19.58-0.31,21.92-14.43,22.01-15.03c0.53-3.11-0.22-5.81-2-7.26
	c-0.99-0.82-2.02-1.18-3.32-1.18c-4.03,0-5.68,4.3-5.86,4.79c-1.08,3.11-4.11,5.12-7.38,4.83c-3.26-0.22-5.96-2.64-6.56-5.88
	c-0.31-1.69-2.71-16.64,5.03-26.48c3.11-3.94,7.28-6.5,12.4-7.6c2.9-4.54,9.56-11.54,23.09-11.54c3.54,0,7.44,0.51,11.58,1.49
	c25.19,6.07,32.59,28.68,40.42,52.63l0.39,1.19c1.33,4.05,2.7,8.22,4.19,12.3c7.31-11.2,11.16-24.2,11.16-37.76
	C580.33,495.48,549.18,464.33,510.91,464.33z M565.93,558.91l-0.39-1.19c-7.92-24.22-15.39-47.09-41.14-53.29
	c-4.25-1.01-8.22-1.52-11.81-1.52c-13.79,0-20.71,7.14-23.71,11.65c-5.16,1.2-9.39,3.84-12.57,7.87
	c-8.06,10.25-5.54,25.57-5.22,27.28c0.68,3.69,3.75,6.45,7.45,6.7c3.72,0.33,7.18-1.94,8.41-5.49c0.25-0.69,1.68-4.13,4.92-4.13
	c1.08,0,1.88,0.28,2.69,0.96c1.5,1.21,2.11,3.58,1.64,6.33c-0.08,0.57-2.29,13.88-21.02,14.18h-0.51
	c-12.68,0-23.91-9.14-31.62-25.74c-0.38-2.94-0.57-5.88-0.57-8.76c0-37.73,30.7-68.43,68.43-68.43c37.73,0,68.42,30.7,68.42,68.43
	c0,12.64-3.42,24.86-9.91,35.49C568.19,565.79,567.04,562.3,565.93,558.91z M510.91,464.33c-38.28,0-69.43,31.15-69.43,69.43
	c0,2.96,0.2,6,0.6,9.04c7.89,17.07,19.46,26.46,32.59,26.46h0.51c19.58-0.31,21.92-14.43,22.01-15.03c0.53-3.11-0.22-5.81-2-7.26
	c-0.99-0.82-2.02-1.18-3.32-1.18c-4.03,0-5.68,4.3-5.86,4.79c-1.08,3.11-4.11,5.12-7.38,4.83c-3.26-0.22-5.96-2.64-6.56-5.88
	c-0.31-1.69-2.71-16.64,5.03-26.48c3.11-3.94,7.28-6.5,12.4-7.6c2.9-4.54,9.56-11.54,23.09-11.54c3.54,0,7.44,0.51,11.58,1.49
	c25.19,6.07,32.59,28.68,40.42,52.63l0.39,1.19c1.33,4.05,2.7,8.22,4.19,12.3c7.31-11.2,11.16-24.2,11.16-37.76
	C580.33,495.48,549.18,464.33,510.91,464.33z M565.93,558.91l-0.39-1.19c-7.92-24.22-15.39-47.09-41.14-53.29
	c-4.25-1.01-8.22-1.52-11.81-1.52c-13.79,0-20.71,7.14-23.71,11.65c-5.16,1.2-9.39,3.84-12.57,7.87
	c-8.06,10.25-5.54,25.57-5.22,27.28c0.68,3.69,3.75,6.45,7.45,6.7c3.72,0.33,7.18-1.94,8.41-5.49c0.25-0.69,1.68-4.13,4.92-4.13
	c1.08,0,1.88,0.28,2.69,0.96c1.5,1.21,2.11,3.58,1.64,6.33c-0.08,0.57-2.29,13.88-21.02,14.18h-0.51
	c-12.68,0-23.91-9.14-31.62-25.74c-0.38-2.94-0.57-5.88-0.57-8.76c0-37.73,30.7-68.43,68.43-68.43c37.73,0,68.42,30.7,68.42,68.43
	c0,12.64-3.42,24.86-9.91,35.49C568.19,565.79,567.04,562.3,565.93,558.91z"/>
<path class="st176" d="M630.05,629.38c-1-1.99-2.43-3.3-4.49-4.13l-0.44-0.42h-0.76c-0.16-0.05-0.28-0.08-0.36-0.1l-0.11-0.02
	c-0.18-0.04-0.42-0.1-0.69-0.13c-18.35-4.06-35.27-16.48-45.41-33.28c13.76-15.97,21.33-36.38,21.33-57.54
	c0-48.64-39.57-88.22-88.21-88.22c-48.64,0-88.22,39.58-88.22,88.22c0,48.65,39.58,88.22,88.22,88.22c12.63,0,20.55-0.84,31.3-5.58
	c0.18-0.07,0.37-0.15,0.55-0.23l0.39-0.17c7.88-3.49,15.4-8.78,18.26-10.89c1.06-0.78,1.68-2.01,1.65-3.27
	c0-1.31-0.63-2.53-1.69-3.28c-0.39-0.27-0.78-0.53-1.16-0.75c-8.43-5.15-17.83-1.98-18.3-1.82l-0.53,0.23l-0.1,0.05
	c-9.54,5.45-17.2,7.29-30.37,7.29c-18.28,0-35.55-7.03-48.64-19.8c-0.31-0.57-0.54-1.31-0.29-1.66c0.19-0.25,0.79-0.36,1.57-0.29
	c3.8,1.08,7.76,1.58,11.81,1.53c24.76-0.41,34.11-17.05,35.73-26.81c1.36-8.12-1.25-15.76-6.97-20.45
	c-3.54-2.9-7.66-4.37-12.25-4.37c-1.36,0-2.67,0.13-3.94,0.38c0.08-0.11,0.16-0.23,0.24-0.34c1.2-1.49,2.89-2.37,5.19-2.7h0.08
	c0.05,0,4.68-0.22,11.16-0.08c1.72-0.03,3.19-1.21,3.57-2.87c0.37-1.71-0.49-3.45-2.06-4.13l-2.78-1.26
	c2.77-2.22,7.95-3.91,17.54-1.62c17.57,4.23,23.49,22.36,30.34,43.34c3.24,9.89,7.31,21.44,12.89,32.14
	c13.32,25.6,31.59,39.46,57.52,43.62l0.31,0.03c0.16,0.02,0.33,0.03,0.56,0.03l1-0.02v-0.09c1.46-0.22,3.7-0.87,5.09-2.18
	C629.69,634.9,631.22,631.62,630.05,629.38z M564.98,559.22l-0.39-1.19c-7.83-23.95-15.23-46.56-40.42-52.63
	c-4.14-0.98-8.04-1.49-11.58-1.49c-13.53,0-20.19,7-23.09,11.54c-5.12,1.1-9.29,3.66-12.4,7.6c-7.74,9.84-5.34,24.79-5.03,26.48
	c0.6,3.24,3.3,5.66,6.56,5.88c3.27,0.29,6.3-1.72,7.38-4.83c0.18-0.49,1.83-4.79,5.86-4.79c1.3,0,2.33,0.36,3.32,1.18
	c1.78,1.45,2.53,4.15,2,7.26c-0.09,0.6-2.43,14.72-22.01,15.03h-0.51c-13.13,0-24.7-9.39-32.59-26.46c-0.4-3.04-0.6-6.08-0.6-9.04
	c0-38.28,31.15-69.43,69.43-69.43c38.27,0,69.42,31.15,69.42,69.43c0,13.56-3.85,26.56-11.16,37.76
	C567.68,567.44,566.31,563.27,564.98,559.22z"/>
<g>
	<g>
		<path class="st177" d="M580.33,533.76c0,13.56-3.85,26.56-11.16,37.76c-1.49-4.08-2.86-8.25-4.19-12.3l-0.39-1.19
			c-7.83-23.95-15.23-46.56-40.42-52.63c-4.14-0.98-8.04-1.49-11.58-1.49c-13.53,0-20.19,7-23.09,11.54
			c-5.12,1.1-9.29,3.66-12.4,7.6c-7.74,9.84-5.34,24.79-5.03,26.48c0.6,3.24,3.3,5.66,6.56,5.88c3.27,0.29,6.3-1.72,7.38-4.83
			c0.18-0.49,1.83-4.79,5.86-4.79c1.3,0,2.33,0.36,3.32,1.18c1.78,1.45,2.53,4.15,2,7.26c-0.09,0.6-2.43,14.72-22.01,15.03h-0.51
			c-13.13,0-24.7-9.39-32.59-26.46c-0.4-3.04-0.6-6.08-0.6-9.04c0-38.28,31.15-69.43,69.43-69.43
			C549.18,464.33,580.33,495.48,580.33,533.76z"/>
	</g>
</g>
<g>
	<path class="st176" d="M919.98,428.45c-31.21,21.66-92.73,34.29-168.79,34.65c-1.12,0.01-2.25,0.01-3.37,0.01
		c-74.99,0-154.7-11.9-219.24-32.78c-108.59-35.12-196.2-37.59-258.86-30.18v198.57c0,8.01-6.5,14.5-14.51,14.5
		c-8.01,0-14.5-6.49-14.5-14.5V404.53c-52.86,9.77-81.43,25.34-82.05,25.69c-6.98,3.93-15.82,1.45-19.75-5.53
		c-3.92-6.99-1.45-15.83,5.54-19.76c1.53-0.86,38.2-21.16,105.28-31.44c61.09-9.37,160.6-11.9,287.78,29.24
		c139.29,45.05,314.08,37.87,365.93,1.88c6.59-4.56,15.62-2.93,20.19,3.65C928.2,414.84,926.56,423.88,919.98,428.45z"/>
</g>
<g>
	<path class="st176" d="M368.79,423.96v161.55c0,8.01-6.49,14.51-14.5,14.51c-8.01,0-14.51-6.5-14.51-14.51V423.96
		c0-8.01,6.5-14.5,14.51-14.5C362.3,409.46,368.79,415.95,368.79,423.96z"/>
</g>
<g>
	<path class="st176" d="M934.61,675.07c-1.53,0.86-38.2,21.16-105.29,31.44c-21.48,3.3-47.72,5.75-78.24,5.75
		c-56.26,0-127.08-8.32-209.53-34.99c-139.29-45.05-314.08-37.87-365.93-1.88c-6.58,4.56-15.62,2.93-20.19-3.65
		s-2.94-15.62,3.65-20.19c31.21-21.66,92.73-34.29,168.79-34.65c75.91-0.37,157.1,11.58,222.6,32.77
		c108.59,35.12,196.21,37.59,258.87,30.18V481.28c0-8.01,6.49-14.5,14.51-14.5c8.01,0,14.5,6.49,14.5,14.5v194.19
		c52.85-9.77,81.43-25.34,82.04-25.69c6.99-3.93,15.83-1.45,19.76,5.53C944.07,662.3,941.59,671.14,934.61,675.07z"/>
</g>
<g>
	<g>
		<path class="st176" d="M765.03,649.56c0.06,8.01-6.38,14.56-14.39,14.62h-2.21c-37.61,0-71.9-7.09-73.36-7.4
			c-6.72-1.41-11.53-7.33-11.53-14.2V491.23c0-4.26,1.88-8.31,5.13-11.07c3.25-2.75,7.56-3.94,11.77-3.23
			c31.8,5.32,69.06,3.72,69.44,3.7c7.98-0.36,14.78,5.84,15.14,13.84c0.36,8-5.84,14.78-13.84,15.14
			c-1.38,0.07-29.16,1.26-58.63-1.81v46.02c4.8,0.7,11.71,1.42,21.28,1.85c8.01,0.35,14.2,7.13,13.84,15.14
			c-0.35,7.78-6.77,13.85-14.48,13.85c-0.22,0-0.44,0-0.66-0.01c-8.07-0.36-14.65-0.92-19.98-1.56v47.34
			c12.94,2.06,35.09,4.93,57.87,4.73h0.11C758.49,635.16,764.97,641.59,765.03,649.56z"/>
	</g>
</g>
</svg>
