<svg version="1.1" id="Layer_1" xmlns="http://www.w3.org/2000/svg" xmlns:xlink="http://www.w3.org/1999/xlink" viewBox="370 390 300 300">
  <style>
  </style>
  <path d="M510.91 464.33c-38.28 0-69.43 31.15-69.43 69.43 0 2.96.2 6 .6 9.04 7.89 17.07 19.46 26.46 32.59 26.46h.51c19.58-.31 21.92-14.43 22.01-15.03.53-3.11-.22-5.81-2-7.26-.99-.82-2.02-1.18-3.32-1.18-4.03 0-5.68 4.3-5.86 4.79-1.08 3.11-4.11 5.12-7.38 4.83-3.26-.22-5.96-2.64-6.56-5.88-.31-1.69-2.71-16.64 5.03-26.48 3.11-3.94 7.28-6.5 12.4-7.6 2.9-4.54 9.56-11.54 23.09-11.54 3.54 0 7.44.51 11.58 1.49 25.19 6.07 32.59 28.68 40.42 52.63l.39 1.19c1.33 4.05 2.7 8.22 4.19 12.3 7.31-11.2 11.16-24.2 11.16-37.76 0-38.28-31.15-69.43-69.42-69.43m55.02 94.58-.39-1.19c-7.92-24.22-15.39-47.09-41.14-53.29-4.25-1.01-8.22-1.52-11.81-1.52-13.79 0-20.71 7.14-23.71 11.65-5.16 1.2-9.39 3.84-12.57 7.87-8.06 10.25-5.54 25.57-5.22 27.28.68 3.69 3.75 6.45 7.45 6.7 3.72.33 7.18-1.94 8.41-5.49.25-.69 1.68-4.13 4.92-4.13 1.08 0 1.88.28 2.69.96 1.5 1.21 2.11 3.58 1.64 6.33-.08.57-2.29 13.88-21.02 14.18h-.51c-12.68 0-23.91-9.14-31.62-25.74-.38-2.94-.57-5.88-.57-8.76 0-37.73 30.7-68.43 68.43-68.43s68.42 30.7 68.42 68.43c0 12.64-3.42 24.86-9.91 35.49-1.23-3.46-2.38-6.95-3.49-10.34m-55.02-94.58c-38.28 0-69.43 31.15-69.43 69.43 0 2.96.2 6 .6 9.04 7.89 17.07 19.46 26.46 32.59 26.46h.51c19.58-.31 21.92-14.43 22.01-15.03.53-3.11-.22-5.81-2-7.26-.99-.82-2.02-1.18-3.32-1.18-4.03 0-5.68 4.3-5.86 4.79-1.08 3.11-4.11 5.12-7.38 4.83-3.26-.22-5.96-2.64-6.56-5.88-.31-1.69-2.71-16.64 5.03-26.48 3.11-3.94 7.28-6.5 12.4-7.6 2.9-4.54 9.56-11.54 23.09-11.54 3.54 0 7.44.51 11.58 1.49 25.19 6.07 32.59 28.68 40.42 52.63l.39 1.19c1.33 4.05 2.7 8.22 4.19 12.3 7.31-11.2 11.16-24.2 11.16-37.76 0-38.28-31.15-69.43-69.42-69.43m55.02 94.58-.39-1.19c-7.92-24.22-15.39-47.09-41.14-53.29-4.25-1.01-8.22-1.52-11.81-1.52-13.79 0-20.71 7.14-23.71 11.65-5.16 1.2-9.39 3.84-12.57 7.87-8.06 10.25-5.54 25.57-5.22 27.28.68 3.69 3.75 6.45 7.45 6.7 3.72.33 7.18-1.94 8.41-5.49.25-.69 1.68-4.13 4.92-4.13 1.08 0 1.88.28 2.69.96 1.5 1.21 2.11 3.58 1.64 6.33-.08.57-2.29 13.88-21.02 14.18h-.51c-12.68 0-23.91-9.14-31.62-25.74-.38-2.94-.57-5.88-.57-8.76 0-37.73 30.7-68.43 68.43-68.43s68.42 30.7 68.42 68.43c0 12.64-3.42 24.86-9.91 35.49-1.23-3.46-2.38-6.95-3.49-10.34m-55.02-94.58c-38.28 0-69.43 31.15-69.43 69.43 0 2.96.2 6 .6 9.04 7.89 17.07 19.46 26.46 32.59 26.46h.51c19.58-.31 21.92-14.43 22.01-15.03.53-3.11-.22-5.81-2-7.26-.99-.82-2.02-1.18-3.32-1.18-4.03 0-5.68 4.3-5.86 4.79-1.08 3.11-4.11 5.12-7.38 4.83-3.26-.22-5.96-2.64-6.56-5.88-.31-1.69-2.71-16.64 5.03-26.48 3.11-3.94 7.28-6.5 12.4-7.6 2.9-4.54 9.56-11.54 23.09-11.54 3.54 0 7.44.51 11.58 1.49 25.19 6.07 32.59 28.68 40.42 52.63l.39 1.19c1.33 4.05 2.7 8.22 4.19 12.3 7.31-11.2 11.16-24.2 11.16-37.76 0-38.28-31.15-69.43-69.42-69.43m55.02 94.58-.39-1.19c-7.92-24.22-15.39-47.09-41.14-53.29-4.25-1.01-8.22-1.52-11.81-1.52-13.79 0-20.71 7.14-23.71 11.65-5.16 1.2-9.39 3.84-12.57 7.87-8.06 10.25-5.54 25.57-5.22 27.28.68 3.69 3.75 6.45 7.45 6.7 3.72.33 7.18-1.94 8.41-5.49.25-.69 1.68-4.13 4.92-4.13 1.08 0 1.88.28 2.69.96 1.5 1.21 2.11 3.58 1.64 6.33-.08.57-2.29 13.88-21.02 14.18h-.51c-12.68 0-23.91-9.14-31.62-25.74-.38-2.94-.57-5.88-.57-8.76 0-37.73 30.7-68.43 68.43-68.43s68.42 30.7 68.42 68.43c0 12.64-3.42 24.86-9.91 35.49-1.23-3.46-2.38-6.95-3.49-10.34" style="fill:#231f20"/>
  <path d="M630.05 629.38c-1-1.99-2.43-3.3-4.49-4.13l-.44-.42h-.76c-.16-.05-.28-.08-.36-.1l-.11-.02c-.18-.04-.42-.1-.69-.13-18.35-4.06-35.27-16.48-45.41-33.28 13.76-15.97 21.33-36.38 21.33-57.54 0-48.64-39.57-88.22-88.21-88.22s-88.22 39.58-88.22 88.22c0 48.65 39.58 88.22 88.22 88.22 12.63 0 20.55-.84 31.3-5.58.18-.07.37-.15.55-.23l.39-.17c7.88-3.49 15.4-8.78 18.26-10.89 1.06-.78 1.68-2.01 1.65-3.27 0-1.31-.63-2.53-1.69-3.28-.39-.27-.78-.53-1.16-.75-8.43-5.15-17.83-1.98-18.3-1.82l-.53.23-.1.05c-9.54 5.45-17.2 7.29-30.37 7.29-18.28 0-35.55-7.03-48.64-19.8-.31-.57-.54-1.31-.29-1.66.19-.25.79-.36 1.57-.29 3.8 1.08 7.76 1.58 11.81 1.53 24.76-.41 34.11-17.05 35.73-26.81 1.36-8.12-1.25-15.76-6.97-20.45-3.54-2.9-7.66-4.37-12.25-4.37-1.36 0-2.67.13-3.94.38.08-.11.16-.23.24-.34 1.2-1.49 2.89-2.37 5.19-2.7h.08c.05 0 4.68-.22 11.16-.08a3.71 3.71 0 0 0 3.57-2.87c.37-1.71-.49-3.45-2.06-4.13l-2.78-1.26c2.77-2.22 7.95-3.91 17.54-1.62 17.57 4.23 23.49 22.36 30.34 43.34 3.24 9.89 7.31 21.44 12.89 32.14 13.32 25.6 31.59 39.46 57.52 43.62l.31.03c.16.02.33.03.56.03l1-.02v-.09c1.46-.22 3.7-.87 5.09-2.18 1.11-1.06 2.64-4.34 1.47-6.58m-65.07-70.16-.39-1.19c-7.83-23.95-15.23-46.56-40.42-52.63-4.14-.98-8.04-1.49-11.58-1.49-13.53 0-20.19 7-23.09 11.54-5.12 1.1-9.29 3.66-12.4 7.6-7.74 9.84-5.34 24.79-5.03 26.48.6 3.24 3.3 5.66 6.56 5.88 3.27.29 6.3-1.72 7.38-4.83.18-.49 1.83-4.79 5.86-4.79 1.3 0 2.33.36 3.32 1.18 1.78 1.45 2.53 4.15 2 7.26-.09.6-2.43 14.72-22.01 15.03h-.51c-13.13 0-24.7-9.39-32.59-26.46-.4-3.04-.6-6.08-.6-9.04 0-38.28 31.15-69.43 69.43-69.43 38.27 0 69.42 31.15 69.42 69.43 0 13.56-3.85 26.56-11.16 37.76-1.49-4.08-2.86-8.25-4.19-12.3" style="fill:#231f20"/>
</svg>
